{"glyphs":{"0":{"ha":656,"x_min":69,"x_max":586,"o":"m 328 -17 q 135 104 201 -17 q 69 447 69 225 q 135 788 69 669 q 328 906 201 906 q 520 788 454 906 q 586 447 586 669 q 520 104 586 225 q 328 -17 454 -17 m 328 22 q 484 131 426 22 q 542 447 542 240 q 484 760 542 654 q 328 867 426 867 q 172 760 229 867 q 114 447 114 654 q 172 131 114 240 q 328 22 229 22 z "},"1":{"ha":656,"x_min":119,"x_max":569,"o":"m 119 39 l 331 39 l 331 806 l 172 806 l 172 836 q 266 858 225 844 q 336 889 307 872 l 372 889 l 372 39 l 569 39 l 569 0 l 119 0 l 119 39 z "},"2":{"ha":656,"x_min":56,"x_max":592,"o":"m 58 28 q 254 234 171 143 q 393 400 338 325 q 476 538 449 475 q 503 661 503 601 q 491 742 503 704 q 454 807 479 779 q 391 851 429 835 q 300 867 353 867 q 183 833 238 867 q 86 747 128 800 l 56 775 q 164 867 104 829 q 303 906 224 906 q 484 839 421 906 q 547 661 547 772 q 517 526 547 593 q 433 383 488 458 q 299 223 378 308 q 122 33 219 138 q 197 38 160 36 q 272 39 235 39 l 592 39 l 592 0 l 58 0 l 58 28 z "},"3":{"ha":656,"x_min":42,"x_max":583,"o":"m 69 139 q 113 96 89 117 q 168 58 138 75 q 236 32 199 42 q 322 22 274 22 q 409 38 369 22 q 478 80 449 53 q 523 145 507 107 q 539 231 539 183 q 521 318 539 278 q 464 387 503 358 q 365 431 425 415 q 219 447 304 447 l 219 489 q 353 505 299 489 q 442 549 408 521 q 490 613 475 576 q 506 692 506 650 q 454 819 506 771 q 317 867 403 867 q 200 838 254 867 q 108 767 146 808 l 81 797 q 182 874 125 842 q 317 906 239 906 q 408 891 365 906 q 483 849 451 876 q 532 783 514 822 q 550 694 550 744 q 537 614 550 650 q 501 551 524 578 q 446 504 478 524 q 378 472 414 485 l 378 467 q 457 439 419 458 q 522 390 494 419 q 567 320 550 360 q 583 233 583 281 q 563 130 583 176 q 508 51 543 83 q 424 1 472 18 q 319 -17 375 -17 q 224 -6 267 -17 q 149 24 182 6 q 89 64 115 42 q 42 108 63 86 l 69 139 z "},"4":{"ha":656,"x_min":22,"x_max":611,"o":"m 433 311 l 433 661 q 435 735 433 690 q 439 808 436 779 l 433 808 q 399 756 417 781 q 361 703 381 732 l 81 311 l 433 311 m 611 272 l 475 272 l 475 0 l 433 0 l 433 272 l 22 272 l 22 294 l 447 889 l 475 889 l 475 311 l 611 311 l 611 272 z "},"5":{"ha":656,"x_min":36,"x_max":589,"o":"m 64 133 q 107 92 83 113 q 160 57 131 72 q 228 32 190 42 q 314 22 265 22 q 401 40 360 22 q 475 92 443 58 q 526 172 507 125 q 544 275 544 218 q 483 452 544 388 q 317 517 421 517 q 226 500 264 517 q 147 456 188 483 l 111 478 l 144 889 l 542 889 l 542 850 l 183 850 l 153 508 q 228 544 189 531 q 319 558 267 558 q 424 542 375 558 q 510 491 474 525 q 568 403 547 457 q 589 278 589 350 q 565 152 589 207 q 502 60 542 97 q 413 3 463 22 q 311 -17 363 -17 q 217 -6 258 -17 q 142 22 175 6 q 83 60 108 39 q 36 103 57 82 l 64 133 z "},"6":{"ha":656,"x_min":75,"x_max":594,"o":"m 361 22 q 436 41 401 22 q 496 92 471 60 q 535 167 521 124 q 550 258 550 210 q 539 351 550 308 q 503 426 528 394 q 440 476 478 458 q 347 494 401 494 q 239 463 299 494 q 121 354 179 431 q 141 221 125 282 q 186 116 157 160 q 259 47 215 72 q 361 22 303 22 m 547 792 q 478 848 517 829 q 394 867 439 867 q 290 843 340 867 q 203 765 240 819 q 142 623 165 711 q 119 407 119 535 q 226 499 167 465 q 350 533 285 533 q 531 463 468 533 q 594 258 594 393 q 576 149 594 199 q 524 62 557 99 q 449 4 492 25 q 358 -17 406 -17 q 149 92 224 -17 q 75 400 75 201 q 101 638 75 542 q 172 794 128 735 q 275 880 217 854 q 397 906 333 906 q 499 883 456 906 q 575 822 542 860 l 547 792 z "},"7":{"ha":656,"x_min":61,"x_max":597,"o":"m 267 0 q 290 252 272 138 q 340 468 307 367 q 422 663 374 569 q 539 850 471 756 l 61 850 l 61 889 l 597 889 l 597 864 q 465 657 517 757 q 381 455 413 557 q 334 242 349 353 q 314 0 319 131 l 267 0 l 267 0 z "},"8":{"ha":656,"x_min":56,"x_max":597,"o":"m 100 228 q 117 147 100 185 q 166 82 135 110 q 240 38 197 54 q 333 22 282 22 q 424 38 383 22 q 493 78 464 53 q 538 139 522 104 q 553 214 553 174 q 528 306 553 268 q 465 372 504 344 q 374 422 425 400 q 269 464 322 443 q 148 364 196 422 q 100 228 100 306 m 400 458 q 493 560 461 507 q 525 675 525 614 q 513 749 525 714 q 475 810 500 783 q 415 851 450 836 q 333 867 379 867 q 260 853 293 867 q 203 817 228 840 q 166 761 179 793 q 153 692 153 729 q 174 606 153 642 q 231 542 196 569 q 311 496 267 515 q 400 458 356 476 m 56 228 q 72 313 56 274 q 115 385 89 353 q 172 442 140 417 q 236 483 204 467 l 236 489 q 190 525 213 504 q 149 571 167 546 q 119 626 131 596 q 108 692 108 656 q 126 778 108 739 q 174 845 143 817 q 245 890 204 874 q 333 906 286 906 q 433 888 389 906 q 508 840 478 871 q 553 766 538 808 q 569 675 569 724 q 556 603 569 638 q 524 538 543 568 q 483 484 506 508 q 442 444 460 460 l 442 439 q 497 401 469 421 q 547 353 525 381 q 583 292 569 326 q 597 214 597 258 q 578 124 597 165 q 525 51 560 82 q 442 1 490 19 q 333 -17 393 -17 q 222 2 272 -17 q 134 53 171 21 q 76 131 97 86 q 56 228 56 175 z "},"9":{"ha":656,"x_min":61,"x_max":581,"o":"m 308 394 q 417 426 357 394 q 535 535 476 458 q 515 668 531 607 q 469 773 499 729 q 397 842 440 817 q 294 867 353 867 q 219 848 254 867 q 160 797 185 829 q 120 722 135 765 q 106 631 106 679 q 117 538 106 581 q 153 463 128 494 q 216 413 178 431 q 308 394 254 394 m 108 97 q 178 41 139 60 q 261 22 217 22 q 365 46 315 22 q 453 124 415 69 q 513 266 490 178 q 536 482 536 354 q 430 390 489 424 q 306 356 371 356 q 124 426 188 356 q 61 631 61 496 q 80 740 61 690 q 131 827 99 790 q 206 885 164 864 q 297 906 249 906 q 506 797 432 906 q 581 489 581 688 q 554 251 581 347 q 483 94 528 154 q 381 9 439 35 q 258 -17 322 -17 q 156 6 200 -17 q 81 67 113 29 l 108 97 z "},"\u0000":{"ha":0,"x_min":0,"x_max":0,"o":""},"\r":{"ha":275,"x_min":0,"x_max":0,"o":""}," ":{"ha":275,"x_min":0,"x_max":0,"o":""},"A":{"ha":722,"x_min":14,"x_max":708,"o":"m 533 367 l 469 550 q 415 708 440 633 q 364 869 389 783 l 358 869 q 308 708 333 783 q 253 550 282 633 l 188 367 l 533 367 m 547 328 l 174 328 l 58 0 l 14 0 l 342 917 l 381 917 l 708 0 l 661 0 l 547 328 z "},"B":{"ha":797,"x_min":139,"x_max":733,"o":"m 139 917 l 378 917 q 596 862 517 917 q 675 694 675 807 q 634 568 675 621 q 511 494 593 515 l 511 489 q 674 418 614 474 q 733 267 733 363 q 642 67 733 135 q 394 0 551 0 l 139 0 l 139 917 m 350 508 q 565 556 500 508 q 631 700 631 604 q 562 836 631 794 q 358 878 493 878 l 183 878 l 183 508 l 350 508 m 378 39 q 508 52 450 39 q 606 93 565 65 q 667 163 646 121 q 689 264 689 206 q 608 419 689 368 q 378 469 526 469 l 183 469 l 183 39 l 378 39 z "},"C":{"ha":781,"x_min":78,"x_max":725,"o":"m 78 461 q 106 657 78 569 q 183 806 133 744 q 305 900 233 867 q 464 933 376 933 q 602 900 543 933 q 697 825 661 867 l 669 794 q 581 865 632 839 q 464 892 529 892 q 322 862 385 892 q 215 776 258 832 q 148 640 171 719 q 125 461 125 560 q 148 282 125 363 q 215 144 171 201 q 319 56 258 88 q 458 25 381 25 q 588 54 532 25 q 697 142 644 83 l 725 114 q 609 18 672 53 q 456 -17 546 -17 q 301 17 371 -17 q 182 114 232 51 q 105 265 132 176 q 78 461 78 353 z "},"D":{"ha":833,"x_min":139,"x_max":756,"o":"m 139 917 l 344 917 q 528 884 450 917 q 656 791 606 851 q 731 647 707 731 q 756 461 756 563 q 731 274 756 358 q 656 128 707 189 q 528 34 606 68 q 344 0 450 0 l 139 0 l 139 917 m 339 39 q 506 71 436 39 q 622 159 576 103 q 688 293 667 215 q 708 461 708 371 q 688 628 708 551 q 622 760 667 704 q 506 847 576 815 q 339 878 436 878 l 183 878 l 183 39 l 339 39 z "},"E":{"ha":708,"x_min":139,"x_max":644,"o":"m 139 917 l 631 917 l 631 878 l 183 878 l 183 508 l 558 508 l 558 469 l 183 469 l 183 39 l 644 39 l 644 0 l 139 0 l 139 917 z "},"F":{"ha":653,"x_min":139,"x_max":628,"o":"m 139 917 l 628 917 l 628 878 l 183 878 l 183 492 l 558 492 l 558 453 l 183 453 l 183 0 l 139 0 l 139 917 z "},"G":{"ha":833,"x_min":78,"x_max":731,"o":"m 78 461 q 106 657 78 569 q 187 806 135 744 q 313 900 239 867 q 478 933 388 933 q 561 924 524 933 q 628 898 599 914 q 681 863 658 882 q 722 825 704 843 l 694 794 q 607 863 658 835 q 478 892 556 892 q 331 862 396 892 q 219 776 265 832 q 149 640 174 719 q 125 461 125 560 q 149 282 125 363 q 216 144 172 201 q 323 56 260 88 q 467 25 386 25 q 592 44 533 25 q 686 100 650 64 l 686 403 l 458 403 l 458 442 l 731 442 l 731 86 q 622 12 689 40 q 464 -17 554 -17 q 305 17 376 -17 q 183 114 233 51 q 106 265 133 176 q 78 461 78 353 z "},"H":{"ha":881,"x_min":139,"x_max":742,"o":"m 139 917 l 183 917 l 183 508 l 697 508 l 697 917 l 742 917 l 742 0 l 697 0 l 697 469 l 183 469 l 183 0 l 139 0 l 139 917 z "},"I":{"ha":322,"x_min":139,"x_max":183,"o":"m 139 917 l 183 917 l 183 0 l 139 0 l 139 917 z "},"J":{"ha":633,"x_min":61,"x_max":497,"o":"m 97 136 q 176 50 133 75 q 281 25 219 25 q 410 78 368 25 q 453 247 453 132 l 453 917 l 497 917 l 497 242 q 485 140 497 188 q 448 58 474 93 q 380 3 422 24 q 278 -17 338 -17 q 149 17 204 -17 q 61 114 94 51 l 97 136 z "},"K":{"ha":764,"x_min":139,"x_max":747,"o":"m 139 917 l 183 917 l 183 389 l 186 389 l 653 917 l 708 917 l 414 581 l 747 0 l 694 0 l 381 547 l 183 325 l 183 0 l 139 0 l 139 917 z "},"L":{"ha":639,"x_min":139,"x_max":614,"o":"m 139 917 l 183 917 l 183 39 l 614 39 l 614 0 l 139 0 l 139 917 z "},"M":{"ha":969,"x_min":139,"x_max":831,"o":"m 139 917 l 211 917 l 408 361 l 483 153 l 489 153 l 561 361 l 758 917 l 831 917 l 831 0 l 786 0 l 786 639 q 788 757 786 693 q 792 878 789 821 l 786 878 l 715 678 l 511 103 l 458 103 l 253 678 l 181 878 l 175 878 q 179 757 178 821 q 181 639 181 693 l 181 0 l 139 0 l 139 917 z "},"N":{"ha":878,"x_min":139,"x_max":739,"o":"m 139 917 l 186 917 l 592 244 l 697 64 l 703 64 q 699 194 700 131 q 697 322 697 257 l 697 917 l 739 917 l 739 0 l 692 0 l 286 672 l 181 853 l 175 853 q 179 728 178 788 q 181 603 181 668 l 181 0 l 139 0 l 139 917 z "},"O":{"ha":900,"x_min":78,"x_max":822,"o":"m 450 -17 q 300 17 368 -17 q 183 114 232 51 q 106 265 133 176 q 78 461 78 353 q 106 657 78 569 q 183 806 133 744 q 300 900 232 867 q 450 933 368 933 q 599 900 531 933 q 717 806 668 867 q 794 657 767 744 q 822 461 822 569 q 794 265 822 353 q 717 114 767 176 q 599 17 668 51 q 450 -17 531 -17 m 450 25 q 583 56 522 25 q 685 144 643 88 q 751 282 728 201 q 775 461 775 363 q 751 640 775 560 q 685 776 728 719 q 583 862 643 832 q 450 892 522 892 q 317 862 376 892 q 215 776 257 832 q 149 640 172 719 q 125 461 125 560 q 149 282 125 363 q 215 144 172 201 q 317 56 257 88 q 450 25 376 25 z "},"P":{"ha":767,"x_min":139,"x_max":700,"o":"m 139 917 l 378 917 q 616 860 532 917 q 700 667 700 804 q 617 470 700 535 q 378 406 533 406 l 183 406 l 183 0 l 139 0 l 139 917 m 361 444 q 581 496 510 444 q 653 667 653 547 q 581 833 653 788 q 361 878 508 878 l 183 878 l 183 444 l 361 444 z "},"Q":{"ha":900,"x_min":78,"x_max":822,"o":"m 125 461 q 149 281 125 363 q 215 142 172 200 q 317 53 257 85 q 450 22 376 22 q 583 53 522 22 q 685 142 643 85 q 751 281 728 200 q 775 461 775 363 q 751 640 775 560 q 685 776 728 719 q 583 862 643 832 q 450 892 522 892 q 317 862 376 892 q 215 776 257 832 q 149 640 172 719 q 125 461 125 560 m 819 -197 q 774 -206 803 -201 q 714 -211 746 -211 q 528 -156 601 -211 q 422 -15 454 -100 q 283 26 346 -10 q 174 125 219 63 q 103 272 128 188 q 78 461 78 357 q 106 657 78 569 q 183 806 133 744 q 300 900 232 867 q 450 933 368 933 q 599 900 531 933 q 717 806 668 867 q 794 657 767 744 q 822 461 822 569 q 797 271 822 357 q 724 123 771 185 q 614 25 678 61 q 474 -15 550 -11 q 566 -127 504 -87 q 717 -167 628 -167 q 770 -163 749 -167 q 808 -156 792 -160 l 819 -197 z "},"R":{"ha":767,"x_min":139,"x_max":700,"o":"m 375 472 q 571 523 503 472 q 639 681 639 574 q 571 833 639 789 q 375 878 503 878 l 183 878 l 183 472 l 375 472 m 647 0 l 389 433 l 183 433 l 183 0 l 139 0 l 139 917 l 392 917 q 514 903 460 917 q 606 862 568 890 q 665 789 644 833 q 686 681 686 744 q 620 509 686 571 q 439 436 554 447 l 700 0 l 647 0 z "},"S":{"ha":717,"x_min":67,"x_max":658,"o":"m 97 153 q 218 60 147 94 q 372 25 289 25 q 472 40 428 25 q 548 80 517 54 q 597 142 579 106 q 614 222 614 178 q 600 299 614 268 q 563 353 586 331 q 510 393 540 376 q 444 425 479 410 l 303 489 q 241 519 274 501 q 181 563 208 538 q 135 626 153 589 q 117 714 117 663 q 136 803 117 763 q 190 872 156 843 q 272 917 225 901 q 375 933 319 933 q 522 901 458 933 q 625 825 585 868 l 597 794 q 501 865 557 839 q 375 892 446 892 q 220 844 279 892 q 161 717 161 796 q 177 644 161 674 q 217 592 193 614 q 269 556 242 571 q 322 531 297 542 l 464 467 q 537 430 501 450 q 599 382 572 410 q 642 316 626 354 q 658 225 658 278 q 638 128 658 172 q 579 52 617 85 q 489 1 542 19 q 372 -17 436 -17 q 194 22 269 -17 q 67 122 119 61 l 97 153 z "},"T":{"ha":722,"x_min":42,"x_max":681,"o":"m 339 878 l 42 878 l 42 917 l 681 917 l 681 878 l 383 878 l 383 0 l 339 0 l 339 878 z "},"U":{"ha":875,"x_min":136,"x_max":739,"o":"m 136 917 l 181 917 l 181 353 q 201 195 181 258 q 258 94 222 132 q 340 41 293 57 q 436 25 386 25 q 535 41 488 25 q 618 94 582 57 q 676 195 654 132 q 697 353 697 258 l 697 917 l 739 917 l 739 342 q 713 166 739 235 q 643 56 686 97 q 546 -1 600 15 q 436 -17 492 -17 q 327 -1 381 -17 q 231 56 274 15 q 163 166 189 97 q 136 342 136 235 l 136 917 z "},"V":{"ha":669,"x_min":8,"x_max":661,"o":"m 8 917 l 56 917 l 233 367 q 259 286 247 324 q 283 212 271 249 q 306 137 294 175 q 333 57 318 99 l 339 57 q 365 137 353 99 q 390 212 378 175 q 413 286 401 249 q 439 367 425 324 l 617 917 l 661 917 l 358 0 l 314 0 l 8 917 z "},"W":{"ha":1061,"x_min":42,"x_max":1017,"o":"m 42 917 l 89 917 l 211 361 l 278 61 l 283 61 q 318 211 300 136 q 356 361 336 286 l 506 917 l 556 917 l 706 361 l 781 61 l 786 61 q 818 211 803 136 q 850 361 833 286 l 972 917 l 1017 917 l 806 0 l 761 0 l 583 658 q 558 761 571 713 q 533 864 546 810 l 528 864 q 501 761 515 810 q 475 658 488 713 l 300 0 l 256 0 l 42 917 z "},"X":{"ha":653,"x_min":25,"x_max":628,"o":"m 303 475 l 44 917 l 92 917 l 253 633 q 288 575 272 601 q 328 511 304 549 l 333 511 q 369 575 354 549 q 403 633 383 601 l 564 917 l 608 917 l 350 472 l 628 0 l 581 0 l 411 294 q 371 363 392 328 q 325 439 350 397 l 319 439 q 277 363 296 397 q 239 294 258 328 l 69 0 l 25 0 l 303 475 z "},"Y":{"ha":606,"x_min":6,"x_max":600,"o":"m 281 378 l 6 917 l 53 917 l 200 619 q 249 521 225 569 q 300 422 272 472 l 306 422 q 359 521 333 472 q 408 619 385 569 l 556 917 l 600 917 l 325 378 l 325 0 l 281 0 l 281 378 z "},"Z":{"ha":747,"x_min":72,"x_max":678,"o":"m 72 25 l 617 878 l 119 878 l 119 917 l 672 917 l 672 892 l 128 39 l 678 39 l 678 0 l 72 0 l 72 25 z "},"a":{"ha":686,"x_min":94,"x_max":572,"o":"m 94 163 q 200 331 94 274 q 531 414 306 389 q 526 495 532 454 q 501 569 519 536 q 451 622 483 601 q 367 642 418 642 q 299 634 331 642 q 239 614 267 626 q 188 588 211 601 q 150 561 165 574 l 128 594 q 167 621 143 606 q 223 649 192 636 q 292 672 254 663 q 369 681 329 681 q 467 660 428 681 q 529 606 506 640 q 563 526 553 571 q 572 431 572 481 l 572 0 l 536 0 l 531 89 l 528 89 q 414 15 475 47 q 286 -17 353 -17 q 213 -6 247 -17 q 151 26 178 4 q 110 81 125 47 q 94 163 94 115 m 139 164 q 151 98 139 125 q 183 54 163 71 q 231 30 204 38 q 289 22 258 22 q 407 51 350 22 q 531 136 464 79 l 531 378 q 346 347 421 365 q 225 301 271 328 q 159 241 179 275 q 139 164 139 207 z "},"b":{"ha":750,"x_min":133,"x_max":675,"o":"m 133 1003 l 175 1003 l 175 706 l 172 572 q 285 649 225 617 q 408 681 346 681 q 609 588 543 681 q 675 342 675 496 q 651 190 675 257 q 588 78 628 124 q 494 8 547 32 q 381 -17 440 -17 q 279 4 332 -17 q 178 61 226 25 l 175 61 l 169 0 l 133 0 l 133 1003 m 175 114 q 288 43 233 64 q 383 22 343 22 q 483 46 438 22 q 561 112 528 69 q 613 213 594 154 q 631 342 631 272 q 619 460 631 406 q 580 556 607 515 q 510 619 553 596 q 406 642 467 642 q 295 612 353 642 q 175 525 238 582 l 175 114 z "},"c":{"ha":619,"x_min":75,"x_max":583,"o":"m 75 331 q 99 479 75 414 q 165 589 124 544 q 259 657 206 633 q 372 681 313 681 q 488 655 442 681 q 567 597 533 629 l 539 567 q 465 620 506 599 q 372 642 425 642 q 273 619 319 642 q 192 555 226 596 q 139 456 158 514 q 119 331 119 399 q 138 205 119 261 q 189 108 156 149 q 269 44 222 67 q 372 22 315 22 q 476 46 429 22 q 558 103 522 69 l 583 72 q 490 9 542 35 q 372 -17 438 -17 q 254 7 308 -17 q 160 75 200 31 q 98 184 121 119 q 75 331 75 249 z "},"d":{"ha":750,"x_min":75,"x_max":617,"o":"m 75 331 q 99 476 75 411 q 163 586 122 540 q 258 656 204 632 q 372 681 311 681 q 479 659 433 681 q 578 597 525 638 l 575 722 l 575 1003 l 617 1003 l 617 0 l 581 0 l 575 89 l 572 89 q 475 15 531 47 q 350 -17 419 -17 q 149 72 224 -17 q 75 331 75 161 m 119 331 q 135 205 119 261 q 180 108 150 149 q 253 44 210 67 q 353 22 296 22 q 465 52 411 22 q 575 139 518 82 l 575 550 q 470 621 518 600 q 369 642 422 642 q 271 617 317 642 q 192 551 225 593 q 139 451 158 508 q 119 331 119 394 z "},"e":{"ha":664,"x_min":75,"x_max":611,"o":"m 75 331 q 99 476 75 411 q 163 587 124 542 q 254 656 203 632 q 361 681 306 681 q 544 602 476 681 q 611 375 611 524 q 611 353 611 364 q 608 331 611 343 l 119 331 q 138 208 119 264 q 191 110 157 151 q 273 45 225 68 q 381 22 321 22 q 482 39 438 22 q 564 83 526 56 l 583 47 q 499 3 546 24 q 378 -17 453 -17 q 260 7 315 -17 q 164 76 206 31 q 99 185 122 121 q 75 331 75 249 m 569 367 q 513 574 569 506 q 361 642 456 642 q 275 622 317 642 q 201 567 233 603 q 147 481 168 532 q 119 367 125 431 l 569 367 z "},"f":{"ha":350,"x_min":47,"x_max":383,"o":"m 369 961 q 328 976 349 972 q 289 981 308 981 q 206 939 232 981 q 181 822 181 897 l 181 664 l 339 664 l 339 625 l 181 625 l 181 0 l 139 0 l 139 625 l 47 625 l 47 658 l 139 664 l 139 828 q 180 973 139 926 q 292 1019 221 1019 q 383 997 335 1019 l 369 961 z "},"g":{"ha":667,"x_min":75,"x_max":653,"o":"m 119 -136 q 179 -244 119 -203 q 350 -286 239 -286 q 458 -270 410 -286 q 539 -229 506 -254 q 590 -172 572 -204 q 608 -106 608 -139 q 567 -22 608 -47 q 447 3 526 3 l 294 3 q 265 5 288 3 q 214 14 242 7 q 142 -59 164 -19 q 119 -136 119 -99 m 75 -139 q 102 -51 75 -94 q 175 25 129 -8 l 175 31 q 133 72 150 46 q 117 136 117 99 q 142 213 117 182 q 189 258 168 243 l 189 264 q 131 339 157 292 q 106 447 106 386 q 123 540 106 497 q 172 613 140 582 q 244 663 203 644 q 333 681 285 681 q 383 676 361 681 q 419 664 404 671 l 642 664 l 642 625 l 481 625 q 539 550 517 596 q 561 447 561 504 q 544 354 561 397 q 495 279 526 311 q 422 229 464 247 q 333 211 381 211 q 274 219 304 211 q 219 242 243 226 q 178 199 196 222 q 161 139 161 175 q 167 103 161 119 q 188 74 174 86 q 228 54 203 61 q 292 47 253 47 l 439 47 q 601 11 550 47 q 653 -103 653 -25 q 631 -185 653 -144 q 570 -256 610 -225 q 474 -306 531 -287 q 347 -325 417 -325 q 147 -274 219 -325 q 75 -139 75 -222 m 333 250 q 403 265 369 250 q 461 305 436 279 q 501 367 486 331 q 517 447 517 403 q 502 528 517 492 q 463 589 488 564 q 404 628 438 614 q 333 642 371 642 q 263 628 296 642 q 204 589 229 614 q 165 528 179 564 q 150 447 150 492 q 165 367 150 403 q 206 305 181 331 q 264 265 231 279 q 333 250 297 250 z "},"h":{"ha":725,"x_min":133,"x_max":608,"o":"m 133 1003 l 175 1003 l 175 706 l 175 556 q 284 645 229 610 q 408 681 339 681 q 560 619 511 681 q 608 428 608 558 l 608 0 l 567 0 l 567 422 q 529 588 567 533 q 406 642 492 642 q 291 608 343 642 q 175 508 239 575 l 175 0 l 133 0 l 133 1003 z "},"i":{"ha":308,"x_min":108,"x_max":203,"o":"m 156 833 q 122 847 136 833 q 108 881 108 860 q 122 916 108 904 q 156 928 136 928 q 189 916 175 928 q 203 881 203 904 q 189 847 203 860 q 156 833 175 833 m 133 664 l 175 664 l 175 0 l 133 0 l 133 664 z "},"j":{"ha":308,"x_min":-42,"x_max":203,"o":"m 133 664 l 175 664 l 175 -142 q 142 -281 175 -237 q 39 -325 108 -325 q -4 -320 18 -325 q -42 -308 -26 -315 l -31 -272 q 1 -281 -18 -276 q 42 -286 21 -286 q 89 -275 71 -286 q 117 -244 107 -264 q 130 -196 126 -224 q 133 -136 133 -168 l 133 664 m 156 833 q 122 847 136 833 q 108 881 108 860 q 122 916 108 904 q 156 928 136 928 q 189 916 175 928 q 203 881 203 904 q 189 847 203 860 q 156 833 175 833 z "},"k":{"ha":628,"x_min":133,"x_max":611,"o":"m 133 1003 l 175 1003 l 175 242 l 178 242 l 522 664 l 572 664 l 358 403 l 611 0 l 564 0 l 333 369 l 175 183 l 175 0 l 133 0 l 133 1003 z "},"l":{"ha":319,"x_min":133,"x_max":236,"o":"m 133 1003 l 175 1003 l 175 64 q 203 22 175 22 q 212 22 207 22 q 228 25 217 22 l 236 -11 q 220 -15 228 -14 q 200 -17 213 -17 q 151 3 168 -17 q 133 72 133 24 l 133 1003 z "},"m":{"ha":1119,"x_min":133,"x_max":997,"o":"m 133 664 l 169 664 l 175 558 l 178 558 q 279 646 224 611 q 389 681 335 681 q 513 642 471 681 q 572 542 556 604 q 687 644 631 607 q 800 681 743 681 q 948 619 899 681 q 997 428 997 558 l 997 0 l 956 0 l 956 422 q 917 588 956 533 q 797 642 879 642 q 696 608 747 642 q 586 508 644 575 l 586 0 l 544 0 l 544 422 q 506 588 544 533 q 386 642 468 642 q 175 508 292 642 l 175 0 l 133 0 l 133 664 z "},"n":{"ha":731,"x_min":133,"x_max":608,"o":"m 133 664 l 169 664 l 175 558 l 178 558 q 285 646 231 611 q 408 681 339 681 q 560 619 511 681 q 608 428 608 558 l 608 0 l 567 0 l 567 422 q 529 588 567 533 q 406 642 492 642 q 291 608 343 642 q 175 508 239 575 l 175 0 l 133 0 l 133 664 z "},"o":{"ha":739,"x_min":75,"x_max":664,"o":"m 75 331 q 99 479 75 414 q 163 589 122 544 q 256 657 203 633 q 369 681 310 681 q 483 657 429 681 q 576 589 536 633 q 640 479 617 544 q 664 331 664 414 q 640 184 664 249 q 576 75 617 119 q 483 7 536 31 q 369 -17 429 -17 q 256 7 310 -17 q 163 75 203 31 q 99 184 122 119 q 75 331 75 249 m 119 331 q 139 205 119 261 q 192 108 158 149 q 271 44 225 67 q 369 22 317 22 q 468 44 422 22 q 547 108 514 67 q 600 205 581 149 q 619 331 619 261 q 600 456 619 399 q 547 555 581 514 q 468 619 514 596 q 369 642 422 642 q 271 619 317 642 q 192 555 225 596 q 139 456 158 514 q 119 331 119 399 z "},"p":{"ha":750,"x_min":133,"x_max":675,"o":"m 175 -58 l 175 -308 l 133 -308 l 133 664 l 169 664 l 175 578 l 178 578 q 287 649 228 618 q 408 681 346 681 q 609 588 543 681 q 675 342 675 496 q 651 190 675 257 q 588 78 628 124 q 494 8 547 32 q 381 -17 440 -17 q 281 5 332 -17 q 175 67 229 26 l 175 -58 m 175 114 q 290 43 236 64 q 383 22 343 22 q 483 46 438 22 q 561 112 528 69 q 613 213 594 154 q 631 342 631 272 q 619 460 631 406 q 580 556 607 515 q 510 619 553 596 q 406 642 467 642 q 297 612 353 642 q 175 525 240 582 l 175 114 z "},"q":{"ha":739,"x_min":75,"x_max":617,"o":"m 75 331 q 99 476 75 411 q 163 586 122 540 q 258 656 204 632 q 372 681 311 681 q 478 660 433 681 q 572 603 524 639 l 575 603 l 581 664 l 617 664 l 617 -308 l 575 -308 l 575 -44 l 578 89 q 476 15 532 47 q 350 -17 419 -17 q 149 72 224 -17 q 75 331 75 161 m 119 331 q 135 205 119 261 q 180 108 150 149 q 253 44 210 67 q 353 22 296 22 q 465 52 411 22 q 575 139 518 82 l 575 550 q 470 621 518 600 q 369 642 422 642 q 271 617 317 642 q 192 551 225 593 q 139 451 158 508 q 119 331 119 394 z "},"r":{"ha":425,"x_min":133,"x_max":431,"o":"m 133 664 l 169 664 l 175 539 l 178 539 q 258 640 211 600 q 367 681 306 681 q 399 678 383 681 q 431 667 414 675 l 419 628 q 392 637 403 635 q 361 639 381 639 q 265 599 315 639 q 175 461 215 560 l 175 0 l 133 0 l 133 664 z "},"s":{"ha":556,"x_min":47,"x_max":506,"o":"m 75 108 q 167 47 117 72 q 292 22 217 22 q 365 34 333 22 q 418 65 397 46 q 450 110 439 85 q 461 164 461 136 q 446 222 461 197 q 407 265 431 246 q 353 296 383 283 q 294 319 324 308 q 217 349 256 333 q 148 385 179 364 q 97 435 117 406 q 78 508 78 465 q 91 574 78 543 q 131 629 104 606 q 196 667 157 653 q 286 681 235 681 q 385 662 336 681 q 469 614 433 643 l 444 581 q 374 624 411 606 q 283 642 336 642 q 211 631 242 642 q 161 601 181 619 q 132 559 142 582 q 122 511 122 536 q 136 459 122 481 q 173 422 150 438 q 224 393 196 406 q 283 369 253 381 q 363 339 322 354 q 434 302 403 324 q 485 248 465 281 q 506 167 506 215 q 491 97 506 131 q 449 39 476 64 q 381 -1 422 14 q 289 -17 340 -17 q 153 10 214 -17 q 47 75 92 38 l 75 108 z "},"t":{"ha":419,"x_min":42,"x_max":406,"o":"m 147 625 l 42 625 l 42 658 l 147 664 l 153 858 l 189 858 l 189 664 l 386 664 l 386 625 l 189 625 l 189 169 q 194 110 189 138 q 211 64 199 83 q 247 33 224 44 q 306 22 269 22 q 349 29 325 22 q 392 44 372 36 l 406 8 q 348 -10 376 -3 q 303 -17 319 -17 q 227 -3 257 -17 q 179 36 197 11 q 154 97 161 61 q 147 175 147 132 l 147 625 z "},"u":{"ha":728,"x_min":122,"x_max":594,"o":"m 122 664 l 164 664 l 164 242 q 201 76 164 131 q 325 22 239 22 q 439 57 388 22 q 553 167 490 92 l 553 664 l 594 664 l 594 0 l 558 0 l 553 114 l 550 114 q 446 19 500 56 q 322 -17 392 -17 q 171 44 219 -17 q 122 236 122 106 l 122 664 z "},"v":{"ha":586,"x_min":17,"x_max":569,"o":"m 17 664 l 64 664 l 222 233 q 257 137 239 185 q 292 44 275 89 l 297 44 q 332 137 314 89 q 367 233 350 185 l 525 664 l 569 664 l 319 0 l 269 0 l 17 664 z "},"w":{"ha":933,"x_min":33,"x_max":900,"o":"m 33 664 l 81 664 l 208 217 q 233 128 221 171 q 256 42 244 86 l 261 42 q 286 128 274 86 q 311 217 299 171 l 439 664 l 497 664 l 625 217 q 650 128 638 171 q 675 42 663 86 l 681 42 q 706 128 693 86 q 731 217 718 171 l 856 664 l 900 664 l 706 0 l 647 0 l 522 433 q 496 528 507 482 q 469 622 485 574 l 464 622 q 438 526 451 574 q 408 431 425 479 l 286 0 l 233 0 l 33 664 z "},"x":{"ha":544,"x_min":19,"x_max":525,"o":"m 247 347 l 39 664 l 86 664 l 200 486 q 235 432 217 458 q 272 378 253 406 l 278 378 q 314 432 297 406 q 350 486 331 458 l 461 664 l 506 664 l 297 344 l 525 0 l 478 0 l 353 192 q 313 254 333 224 q 272 314 293 285 l 267 314 q 226 254 246 285 q 186 192 207 224 l 64 0 l 19 0 l 247 347 z "},"y":{"ha":589,"x_min":17,"x_max":572,"o":"m 39 -256 q 65 -263 50 -260 q 94 -267 79 -267 q 201 -213 157 -267 q 272 -78 244 -160 l 292 -17 l 17 664 l 64 664 l 233 228 q 269 136 250 186 q 308 42 289 86 l 314 42 q 347 136 331 86 q 378 228 363 186 l 528 664 l 572 664 l 306 -94 q 274 -172 293 -133 q 229 -240 256 -210 q 169 -290 203 -271 q 92 -308 135 -308 q 28 -294 56 -308 l 39 -256 l 39 -256 z "},"z":{"ha":550,"x_min":36,"x_max":514,"o":"m 36 22 l 444 625 l 81 625 l 81 664 l 500 664 l 500 642 l 92 39 l 514 39 l 514 0 l 36 0 l 36 22 z "},"À":{"ha":722,"x_min":14,"x_max":708,"o":"m 533 367 l 469 550 q 415 708 440 633 q 364 869 389 783 l 358 869 q 308 708 333 783 q 253 550 282 633 l 188 367 l 533 367 m 547 328 l 174 328 l 58 0 l 14 0 l 342 917 l 381 917 l 708 0 l 661 0 l 547 328 m 214 1131 l 275 1131 l 406 986 l 364 986 l 214 1131 z "},"Á":{"ha":722,"x_min":14,"x_max":708,"o":"m 533 367 l 469 550 q 415 708 440 633 q 364 869 389 783 l 358 869 q 308 708 333 783 q 253 550 282 633 l 188 367 l 533 367 m 547 328 l 174 328 l 58 0 l 14 0 l 342 917 l 381 917 l 708 0 l 661 0 l 547 328 m 358 986 l 317 986 l 447 1131 l 508 1131 l 358 986 z "},"Â":{"ha":722,"x_min":14,"x_max":708,"o":"m 533 367 l 469 550 q 415 708 440 633 q 364 869 389 783 l 358 869 q 308 708 333 783 q 253 550 282 633 l 188 367 l 533 367 m 547 328 l 174 328 l 58 0 l 14 0 l 342 917 l 381 917 l 708 0 l 661 0 l 547 328 m 208 986 l 342 1131 l 381 1131 l 514 986 l 472 986 l 364 1089 l 358 1089 l 250 986 l 208 986 z "},"Ã":{"ha":722,"x_min":14,"x_max":708,"o":"m 533 367 l 469 550 q 415 708 440 633 q 364 869 389 783 l 358 869 q 308 708 333 783 q 253 550 282 633 l 188 367 l 533 367 m 547 328 l 174 328 l 58 0 l 14 0 l 342 917 l 381 917 l 708 0 l 661 0 l 547 328 m 442 997 q 394 1010 414 997 q 355 1038 374 1022 q 318 1065 336 1053 q 278 1078 300 1078 q 239 1056 254 1078 q 219 997 224 1033 l 189 997 q 196 1038 190 1017 q 213 1077 201 1060 q 240 1106 224 1094 q 281 1117 257 1117 q 328 1104 307 1117 q 367 1076 349 1092 q 404 1049 386 1061 q 444 1036 422 1036 q 483 1058 468 1036 q 503 1117 499 1081 l 533 1117 q 526 1076 532 1097 q 510 1037 521 1054 q 481 1008 499 1019 q 442 997 464 997 z "},"Ä":{"ha":722,"x_min":14,"x_max":708,"o":"m 533 367 l 469 550 q 415 708 440 633 q 364 869 389 783 l 358 869 q 308 708 333 783 q 253 550 282 633 l 188 367 l 533 367 m 547 328 l 174 328 l 58 0 l 14 0 l 342 917 l 381 917 l 708 0 l 661 0 l 547 328 m 256 1011 q 224 1023 236 1011 q 211 1056 211 1035 q 224 1088 211 1076 q 256 1100 236 1100 q 288 1088 275 1100 q 300 1056 300 1076 q 288 1023 300 1035 q 256 1011 275 1011 m 467 1011 q 435 1023 447 1011 q 422 1056 422 1035 q 435 1088 422 1076 q 467 1100 447 1100 q 499 1088 486 1100 q 511 1056 511 1076 q 499 1023 511 1035 q 467 1011 486 1011 z "},"Ā":{"ha":722,"x_min":14,"x_max":708,"o":"m 533 367 l 469 550 q 415 708 440 633 q 364 869 389 783 l 358 869 q 308 708 333 783 q 253 550 282 633 l 188 367 l 533 367 m 547 328 l 174 328 l 58 0 l 14 0 l 342 917 l 381 917 l 708 0 l 661 0 l 547 328 m 208 1061 l 514 1061 l 514 1022 l 208 1022 l 208 1061 z "},"Ă":{"ha":722,"x_min":14,"x_max":708,"o":"m 533 367 l 469 550 q 415 708 440 633 q 364 869 389 783 l 358 869 q 308 708 333 783 q 253 550 282 633 l 188 367 l 533 367 m 547 328 l 174 328 l 58 0 l 14 0 l 342 917 l 381 917 l 708 0 l 661 0 l 547 328 m 361 989 q 294 1003 322 989 q 248 1038 267 1017 q 219 1083 229 1058 q 206 1131 208 1108 l 242 1131 q 253 1092 244 1111 q 276 1059 261 1074 q 312 1035 290 1044 q 361 1025 333 1025 q 410 1035 389 1025 q 445 1059 431 1044 q 469 1092 460 1074 q 481 1131 478 1111 l 517 1131 q 503 1083 514 1108 q 474 1038 493 1058 q 428 1003 456 1017 q 361 989 400 989 z "},"Å":{"ha":722,"x_min":14,"x_max":708,"o":"m 533 367 l 469 550 q 415 708 440 633 q 364 869 389 783 l 358 869 q 308 708 333 783 q 253 550 282 633 l 188 367 l 533 367 m 547 328 l 174 328 l 58 0 l 14 0 l 342 917 l 381 917 l 708 0 l 661 0 l 547 328 m 361 972 q 284 1003 315 972 q 253 1083 253 1033 q 284 1164 253 1133 q 361 1194 315 1194 q 438 1164 406 1194 q 469 1083 469 1133 q 438 1003 469 1033 q 361 972 406 972 m 361 1003 q 412 1023 390 1003 q 433 1083 433 1043 q 412 1142 433 1121 q 361 1164 390 1164 q 308 1142 329 1164 q 286 1083 286 1121 q 308 1023 286 1043 q 361 1003 329 1003 z "},"Ǎ":{"ha":722,"x_min":14,"x_max":708,"o":"m 533 367 l 469 550 q 415 708 440 633 q 364 869 389 783 l 358 869 q 308 708 333 783 q 253 550 282 633 l 188 367 l 533 367 m 547 328 l 174 328 l 58 0 l 14 0 l 342 917 l 381 917 l 708 0 l 661 0 l 547 328 m 514 1131 l 381 986 l 342 986 l 208 1131 l 250 1131 l 358 1028 l 364 1028 l 472 1131 l 514 1131 z "},"Ạ":{"ha":722,"x_min":14,"x_max":708,"o":"m 533 367 l 469 550 q 415 708 440 633 q 364 869 389 783 l 358 869 q 308 708 333 783 q 253 550 282 633 l 188 367 l 533 367 m 547 328 l 174 328 l 58 0 l 14 0 l 342 917 l 381 917 l 708 0 l 661 0 l 547 328 m 361 -264 q 329 -251 342 -264 q 317 -214 317 -237 q 329 -180 317 -193 q 361 -167 342 -167 q 393 -180 381 -167 q 406 -214 406 -193 q 393 -251 406 -237 q 361 -264 381 -264 z "},"Ả":{"ha":722,"x_min":14,"x_max":708,"o":"m 533 367 l 469 550 q 415 708 440 633 q 364 869 389 783 l 358 869 q 308 708 333 783 q 253 550 282 633 l 188 367 l 533 367 m 547 328 l 174 328 l 58 0 l 14 0 l 342 917 l 381 917 l 708 0 l 661 0 l 547 328 m 319 1008 q 385 1039 360 1021 q 411 1089 411 1057 q 380 1139 411 1122 q 292 1158 349 1156 l 294 1194 q 353 1188 325 1193 q 404 1169 382 1182 q 440 1139 426 1157 q 453 1094 453 1121 q 442 1049 453 1068 q 415 1017 432 1031 q 375 994 397 1004 q 331 978 353 985 l 319 1008 z "},"Ấ":{"ha":722,"x_min":14,"x_max":708,"o":"m 533 367 l 469 550 q 415 708 440 633 q 364 869 389 783 l 358 869 q 308 708 333 783 q 253 550 282 633 l 188 367 l 533 367 m 547 328 l 174 328 l 58 0 l 14 0 l 342 917 l 381 917 l 708 0 l 661 0 l 547 328 m 564 1214 l 617 1214 l 500 1069 l 464 1069 l 564 1214 m 342 1122 l 381 1122 l 506 986 l 464 986 l 364 1081 l 358 1081 l 258 986 l 217 986 l 342 1122 z "},"Ầ":{"ha":722,"x_min":14,"x_max":708,"o":"m 533 367 l 469 550 q 415 708 440 633 q 364 869 389 783 l 358 869 q 308 708 333 783 q 253 550 282 633 l 188 367 l 533 367 m 547 328 l 174 328 l 58 0 l 14 0 l 342 917 l 381 917 l 708 0 l 661 0 l 547 328 m 556 1069 l 519 1069 l 403 1214 l 456 1214 l 556 1069 m 342 1122 l 381 1122 l 506 986 l 464 986 l 364 1081 l 358 1081 l 258 986 l 217 986 l 342 1122 z "},"Ẩ":{"ha":722,"x_min":14,"x_max":708,"o":"m 533 367 l 469 550 q 415 708 440 633 q 364 869 389 783 l 358 869 q 308 708 333 783 q 253 550 282 633 l 188 367 l 533 367 m 547 328 l 174 328 l 58 0 l 14 0 l 342 917 l 381 917 l 708 0 l 661 0 l 547 328 m 482 1086 q 535 1108 514 1094 q 557 1147 557 1122 q 531 1193 557 1181 q 454 1208 504 1206 l 460 1244 q 512 1238 486 1243 q 556 1223 538 1233 q 587 1195 575 1213 q 599 1153 599 1178 q 589 1113 599 1129 q 565 1085 579 1097 q 532 1066 550 1074 q 496 1053 514 1058 l 482 1086 m 342 1122 l 381 1122 l 506 986 l 464 986 l 364 1081 l 358 1081 l 258 986 l 217 986 l 342 1122 z "},"Ẫ":{"ha":722,"x_min":14,"x_max":708,"o":"m 533 367 l 469 550 q 415 708 440 633 q 364 869 389 783 l 358 869 q 308 708 333 783 q 253 550 282 633 l 188 367 l 533 367 m 547 328 l 174 328 l 58 0 l 14 0 l 342 917 l 381 917 l 708 0 l 661 0 l 547 328 m 342 1122 l 381 1122 l 506 986 l 464 986 l 364 1081 l 358 1081 l 258 986 l 217 986 l 342 1122 m 197 1169 q 204 1205 199 1186 q 221 1239 210 1224 q 249 1265 232 1254 q 292 1275 267 1275 q 335 1264 317 1275 q 369 1240 353 1253 q 399 1217 385 1228 q 433 1206 414 1206 q 472 1224 457 1206 q 492 1275 488 1243 l 525 1275 q 518 1240 524 1258 q 501 1206 513 1221 q 473 1180 490 1190 q 431 1169 456 1169 q 388 1181 406 1169 q 353 1204 369 1192 q 322 1228 338 1217 q 289 1239 307 1239 q 250 1220 265 1239 q 231 1169 235 1201 l 197 1169 z "},"Ậ":{"ha":722,"x_min":14,"x_max":708,"o":"m 533 367 l 469 550 q 415 708 440 633 q 364 869 389 783 l 358 869 q 308 708 333 783 q 253 550 282 633 l 188 367 l 533 367 m 547 328 l 174 328 l 58 0 l 14 0 l 342 917 l 381 917 l 708 0 l 661 0 l 547 328 m 208 986 l 342 1131 l 381 1131 l 514 986 l 472 986 l 364 1089 l 358 1089 l 250 986 l 208 986 m 361 -264 q 329 -251 342 -264 q 317 -214 317 -237 q 329 -180 317 -193 q 361 -167 342 -167 q 393 -180 381 -167 q 406 -214 406 -193 q 393 -251 406 -237 q 361 -264 381 -264 z "},"Ắ":{"ha":722,"x_min":14,"x_max":708,"o":"m 533 367 l 469 550 q 415 708 440 633 q 364 869 389 783 l 358 869 q 308 708 333 783 q 253 550 282 633 l 188 367 l 533 367 m 547 328 l 174 328 l 58 0 l 14 0 l 342 917 l 381 917 l 708 0 l 661 0 l 547 328 m 428 1239 l 483 1239 l 353 1108 l 314 1108 l 428 1239 m 361 989 q 297 1002 325 989 q 251 1035 269 1015 q 222 1079 232 1056 q 208 1125 211 1103 l 244 1125 q 280 1056 253 1088 q 361 1025 307 1025 q 442 1056 415 1025 q 478 1125 469 1088 l 514 1125 q 500 1079 511 1103 q 470 1035 489 1056 q 424 1002 451 1015 q 361 989 397 989 z "},"Ằ":{"ha":722,"x_min":14,"x_max":708,"o":"m 533 367 l 469 550 q 415 708 440 633 q 364 869 389 783 l 358 869 q 308 708 333 783 q 253 550 282 633 l 188 367 l 533 367 m 547 328 l 174 328 l 58 0 l 14 0 l 342 917 l 381 917 l 708 0 l 661 0 l 547 328 m 408 1108 l 369 1108 l 239 1239 l 294 1239 l 408 1108 m 361 989 q 297 1002 325 989 q 251 1035 269 1015 q 222 1079 232 1056 q 208 1125 211 1103 l 244 1125 q 280 1056 253 1088 q 361 1025 307 1025 q 442 1056 415 1025 q 478 1125 469 1088 l 514 1125 q 500 1079 511 1103 q 470 1035 489 1056 q 424 1002 451 1015 q 361 989 397 989 z "},"Ẳ":{"ha":722,"x_min":14,"x_max":708,"o":"m 533 367 l 469 550 q 415 708 440 633 q 364 869 389 783 l 358 869 q 308 708 333 783 q 253 550 282 633 l 188 367 l 533 367 m 547 328 l 174 328 l 58 0 l 14 0 l 342 917 l 381 917 l 708 0 l 661 0 l 547 328 m 326 1139 q 380 1161 358 1147 q 401 1200 401 1175 q 375 1246 401 1233 q 299 1261 349 1258 l 304 1297 q 356 1291 331 1296 q 401 1276 382 1286 q 431 1248 419 1265 q 443 1206 443 1231 q 433 1166 443 1182 q 409 1138 424 1150 q 376 1119 394 1126 q 340 1106 358 1111 l 326 1139 m 361 989 q 297 1002 325 989 q 251 1035 269 1015 q 222 1079 232 1056 q 208 1125 211 1103 l 244 1125 q 280 1056 253 1088 q 361 1025 307 1025 q 442 1056 415 1025 q 478 1125 469 1088 l 514 1125 q 500 1079 511 1103 q 470 1035 489 1056 q 424 1002 451 1015 q 361 989 397 989 z "},"Ẵ":{"ha":722,"x_min":14,"x_max":708,"o":"m 533 367 l 469 550 q 415 708 440 633 q 364 869 389 783 l 358 869 q 308 708 333 783 q 253 550 282 633 l 188 367 l 533 367 m 547 328 l 174 328 l 58 0 l 14 0 l 342 917 l 381 917 l 708 0 l 661 0 l 547 328 m 361 989 q 297 1002 325 989 q 251 1035 269 1015 q 222 1079 232 1056 q 208 1125 211 1103 l 244 1125 q 280 1056 253 1088 q 361 1025 307 1025 q 442 1056 415 1025 q 478 1125 469 1088 l 514 1125 q 500 1079 511 1103 q 470 1035 489 1056 q 424 1002 451 1015 q 361 989 397 989 m 197 1169 q 204 1205 199 1186 q 221 1239 210 1224 q 249 1265 232 1254 q 292 1275 267 1275 q 335 1264 317 1275 q 369 1240 353 1253 q 399 1217 385 1228 q 433 1206 414 1206 q 472 1224 457 1206 q 492 1275 488 1243 l 525 1275 q 518 1240 524 1258 q 501 1206 513 1221 q 473 1180 490 1190 q 431 1169 456 1169 q 388 1181 406 1169 q 353 1204 369 1192 q 322 1228 338 1217 q 289 1239 307 1239 q 250 1220 265 1239 q 231 1169 235 1201 l 197 1169 z "},"Ặ":{"ha":722,"x_min":14,"x_max":708,"o":"m 533 367 l 469 550 q 415 708 440 633 q 364 869 389 783 l 358 869 q 308 708 333 783 q 253 550 282 633 l 188 367 l 533 367 m 547 328 l 174 328 l 58 0 l 14 0 l 342 917 l 381 917 l 708 0 l 661 0 l 547 328 m 361 989 q 294 1003 322 989 q 248 1038 267 1017 q 219 1083 229 1058 q 206 1131 208 1108 l 242 1131 q 253 1092 244 1111 q 276 1059 261 1074 q 312 1035 290 1044 q 361 1025 333 1025 q 410 1035 389 1025 q 445 1059 431 1044 q 469 1092 460 1074 q 481 1131 478 1111 l 517 1131 q 503 1083 514 1108 q 474 1038 493 1058 q 428 1003 456 1017 q 361 989 400 989 m 361 -264 q 329 -251 342 -264 q 317 -214 317 -237 q 329 -180 317 -193 q 361 -167 342 -167 q 393 -180 381 -167 q 406 -214 406 -193 q 393 -251 406 -237 q 361 -264 381 -264 z "},"Ą":{"ha":722,"x_min":14,"x_max":761,"o":"m 533 367 l 469 550 q 415 708 440 633 q 364 869 389 783 l 358 869 q 308 708 333 783 q 253 550 282 633 l 188 367 l 533 367 m 761 -250 q 722 -272 746 -262 q 678 -281 699 -281 q 599 -253 632 -281 q 567 -169 567 -226 q 597 -74 567 -119 q 664 0 626 -28 l 661 0 l 547 328 l 174 328 l 58 0 l 14 0 l 342 917 l 381 917 l 708 0 q 638 -77 667 -32 q 608 -167 608 -122 q 631 -223 608 -204 q 681 -242 653 -242 q 713 -237 700 -242 q 742 -222 726 -233 l 761 -250 z "},"Æ":{"ha":1117,"x_min":36,"x_max":1053,"o":"m 575 353 l 575 875 l 569 875 q 480 713 525 796 q 389 544 435 631 l 282 353 l 575 353 m 1053 39 l 1053 0 l 575 0 l 575 314 l 260 314 l 83 0 l 36 0 l 553 917 l 1039 917 l 1039 878 l 619 878 l 619 508 l 967 508 l 967 469 l 619 469 l 619 39 l 1053 39 z "},"Ç":{"ha":781,"x_min":78,"x_max":725,"o":"m 78 461 q 106 657 78 569 q 183 806 133 744 q 305 900 233 867 q 464 933 376 933 q 602 900 543 933 q 697 825 661 867 l 669 794 q 581 865 632 839 q 464 892 529 892 q 322 862 385 892 q 215 776 258 832 q 148 640 171 719 q 125 461 125 560 q 148 282 125 363 q 215 144 171 201 q 319 56 258 88 q 458 25 381 25 q 588 54 532 25 q 697 142 644 83 l 725 114 q 609 18 672 53 q 456 -17 546 -17 q 301 17 371 -17 q 182 114 232 51 q 105 265 132 176 q 78 461 78 353 m 464 3 l 503 3 l 461 -78 q 519 -110 494 -89 q 544 -172 544 -131 q 531 -218 544 -199 q 494 -251 517 -237 q 441 -274 471 -265 q 381 -286 411 -282 l 372 -250 q 467 -224 431 -242 q 503 -178 503 -207 q 476 -129 503 -144 q 408 -103 449 -114 l 464 3 z "},"Ć":{"ha":781,"x_min":78,"x_max":725,"o":"m 78 461 q 106 657 78 569 q 183 806 133 744 q 305 900 233 867 q 464 933 376 933 q 602 900 543 933 q 697 825 661 867 l 669 794 q 581 865 632 839 q 464 892 529 892 q 322 862 385 892 q 215 776 258 832 q 148 640 171 719 q 125 461 125 560 q 148 282 125 363 q 215 144 171 201 q 319 56 258 88 q 458 25 381 25 q 588 54 532 25 q 697 142 644 83 l 725 114 q 609 18 672 53 q 456 -17 546 -17 q 301 17 371 -17 q 182 114 232 51 q 105 265 132 176 q 78 461 78 353 m 442 986 l 400 986 l 531 1131 l 592 1131 l 442 986 z "},"Ĉ":{"ha":781,"x_min":78,"x_max":725,"o":"m 78 461 q 106 657 78 569 q 183 806 133 744 q 305 900 233 867 q 464 933 376 933 q 602 900 543 933 q 697 825 661 867 l 669 794 q 581 865 632 839 q 464 892 529 892 q 322 862 385 892 q 215 776 258 832 q 148 640 171 719 q 125 461 125 560 q 148 282 125 363 q 215 144 171 201 q 319 56 258 88 q 458 25 381 25 q 588 54 532 25 q 697 142 644 83 l 725 114 q 609 18 672 53 q 456 -17 546 -17 q 301 17 371 -17 q 182 114 232 51 q 105 265 132 176 q 78 461 78 353 m 292 986 l 425 1131 l 464 1131 l 597 986 l 556 986 l 447 1089 l 442 1089 l 333 986 l 292 986 z "},"Č":{"ha":781,"x_min":78,"x_max":725,"o":"m 78 461 q 106 657 78 569 q 183 806 133 744 q 305 900 233 867 q 464 933 376 933 q 602 900 543 933 q 697 825 661 867 l 669 794 q 581 865 632 839 q 464 892 529 892 q 322 862 385 892 q 215 776 258 832 q 148 640 171 719 q 125 461 125 560 q 148 282 125 363 q 215 144 171 201 q 319 56 258 88 q 458 25 381 25 q 588 54 532 25 q 697 142 644 83 l 725 114 q 609 18 672 53 q 456 -17 546 -17 q 301 17 371 -17 q 182 114 232 51 q 105 265 132 176 q 78 461 78 353 m 597 1131 l 464 986 l 425 986 l 292 1131 l 333 1131 l 442 1028 l 447 1028 l 556 1131 l 597 1131 z "},"Ċ":{"ha":781,"x_min":78,"x_max":725,"o":"m 78 461 q 106 657 78 569 q 183 806 133 744 q 305 900 233 867 q 464 933 376 933 q 602 900 543 933 q 697 825 661 867 l 669 794 q 581 865 632 839 q 464 892 529 892 q 322 862 385 892 q 215 776 258 832 q 148 640 171 719 q 125 461 125 560 q 148 282 125 363 q 215 144 171 201 q 319 56 258 88 q 458 25 381 25 q 588 54 532 25 q 697 142 644 83 l 725 114 q 609 18 672 53 q 456 -17 546 -17 q 301 17 371 -17 q 182 114 232 51 q 105 265 132 176 q 78 461 78 353 m 444 1006 q 411 1019 425 1006 q 397 1056 397 1032 q 411 1090 397 1076 q 444 1103 425 1103 q 478 1090 464 1103 q 492 1056 492 1076 q 478 1019 492 1032 q 444 1006 464 1006 z "},"Ď":{"ha":833,"x_min":139,"x_max":756,"o":"m 139 917 l 344 917 q 528 884 450 917 q 656 791 606 851 q 731 647 707 731 q 756 461 756 563 q 731 274 756 358 q 656 128 707 189 q 528 34 606 68 q 344 0 450 0 l 139 0 l 139 917 m 339 39 q 506 71 436 39 q 622 159 576 103 q 688 293 667 215 q 708 461 708 371 q 688 628 708 551 q 622 760 667 704 q 506 847 576 815 q 339 878 436 878 l 183 878 l 183 39 l 339 39 m 569 1131 l 436 986 l 397 986 l 264 1131 l 306 1131 l 414 1028 l 419 1028 l 528 1131 l 569 1131 z "},"Ḍ":{"ha":833,"x_min":139,"x_max":756,"o":"m 139 917 l 344 917 q 528 884 450 917 q 656 791 606 851 q 731 647 707 731 q 756 461 756 563 q 731 274 756 358 q 656 128 707 189 q 528 34 606 68 q 344 0 450 0 l 139 0 l 139 917 m 339 39 q 506 71 436 39 q 622 159 576 103 q 688 293 667 215 q 708 461 708 371 q 688 628 708 551 q 622 760 667 704 q 506 847 576 815 q 339 878 436 878 l 183 878 l 183 39 l 339 39 m 414 -264 q 382 -251 394 -264 q 369 -214 369 -237 q 382 -180 369 -193 q 414 -167 394 -167 q 446 -180 433 -167 q 458 -214 458 -193 q 446 -251 458 -237 q 414 -264 433 -264 z "},"Ḏ":{"ha":833,"x_min":139,"x_max":756,"o":"m 139 917 l 344 917 q 528 884 450 917 q 656 791 606 851 q 731 647 707 731 q 756 461 756 563 q 731 274 756 358 q 656 128 707 189 q 528 34 606 68 q 344 0 450 0 l 139 0 l 139 917 m 339 39 q 506 71 436 39 q 622 159 576 103 q 688 293 667 215 q 708 461 708 371 q 688 628 708 551 q 622 760 667 704 q 506 847 576 815 q 339 878 436 878 l 183 878 l 183 39 l 339 39 m 567 -217 l 258 -217 l 258 -178 l 567 -178 l 567 -217 z "},"Đ":{"ha":861,"x_min":53,"x_max":783,"o":"m 367 39 q 534 71 464 39 q 649 159 604 103 q 715 293 694 215 q 736 461 736 371 q 715 628 736 551 q 649 760 694 704 q 534 847 604 815 q 367 878 464 878 l 211 878 l 211 506 l 444 506 l 444 467 l 211 467 l 211 39 l 367 39 m 372 917 q 556 884 478 917 q 684 791 633 851 q 759 647 735 731 q 783 461 783 563 q 759 274 783 358 q 684 128 735 189 q 556 34 633 68 q 372 0 478 0 l 167 0 l 167 467 l 53 467 l 53 503 l 167 506 l 167 917 l 372 917 z "},"È":{"ha":708,"x_min":139,"x_max":644,"o":"m 139 917 l 631 917 l 631 878 l 183 878 l 183 508 l 558 508 l 558 469 l 183 469 l 183 39 l 644 39 l 644 0 l 139 0 l 139 917 m 243 1131 l 304 1131 l 435 986 l 393 986 l 243 1131 z "},"É":{"ha":708,"x_min":139,"x_max":644,"o":"m 139 917 l 631 917 l 631 878 l 183 878 l 183 508 l 558 508 l 558 469 l 183 469 l 183 39 l 644 39 l 644 0 l 139 0 l 139 917 m 388 986 l 346 986 l 476 1131 l 538 1131 l 388 986 z "},"Ê":{"ha":708,"x_min":139,"x_max":644,"o":"m 139 917 l 631 917 l 631 878 l 183 878 l 183 508 l 558 508 l 558 469 l 183 469 l 183 39 l 644 39 l 644 0 l 139 0 l 139 917 m 238 986 l 371 1131 l 410 1131 l 543 986 l 501 986 l 393 1089 l 388 1089 l 279 986 l 238 986 z "},"Ě":{"ha":708,"x_min":139,"x_max":644,"o":"m 139 917 l 631 917 l 631 878 l 183 878 l 183 508 l 558 508 l 558 469 l 183 469 l 183 39 l 644 39 l 644 0 l 139 0 l 139 917 m 543 1131 l 410 986 l 371 986 l 238 1131 l 279 1131 l 388 1028 l 393 1028 l 501 1131 l 543 1131 z "},"Ë":{"ha":708,"x_min":139,"x_max":644,"o":"m 139 917 l 631 917 l 631 878 l 183 878 l 183 508 l 558 508 l 558 469 l 183 469 l 183 39 l 644 39 l 644 0 l 139 0 l 139 917 m 285 1011 q 253 1023 265 1011 q 240 1056 240 1035 q 253 1088 240 1076 q 285 1100 265 1100 q 317 1088 304 1100 q 329 1056 329 1076 q 317 1023 329 1035 q 285 1011 304 1011 m 496 1011 q 464 1023 476 1011 q 451 1056 451 1035 q 464 1088 451 1076 q 496 1100 476 1100 q 528 1088 515 1100 q 540 1056 540 1076 q 528 1023 540 1035 q 496 1011 515 1011 z "},"Ē":{"ha":708,"x_min":139,"x_max":644,"o":"m 139 917 l 631 917 l 631 878 l 183 878 l 183 508 l 558 508 l 558 469 l 183 469 l 183 39 l 644 39 l 644 0 l 139 0 l 139 917 m 238 1061 l 543 1061 l 543 1022 l 238 1022 l 238 1061 z "},"Ĕ":{"ha":708,"x_min":139,"x_max":644,"o":"m 139 917 l 631 917 l 631 878 l 183 878 l 183 508 l 558 508 l 558 469 l 183 469 l 183 39 l 644 39 l 644 0 l 139 0 l 139 917 m 390 989 q 324 1003 351 989 q 277 1038 296 1017 q 248 1083 258 1058 q 235 1131 238 1108 l 271 1131 q 282 1092 274 1111 q 305 1059 290 1074 q 341 1035 319 1044 q 390 1025 363 1025 q 439 1035 418 1025 q 474 1059 460 1044 q 498 1092 489 1074 q 510 1131 507 1111 l 546 1131 q 533 1083 543 1108 q 503 1038 522 1058 q 457 1003 485 1017 q 390 989 429 989 z "},"Ė":{"ha":708,"x_min":139,"x_max":644,"o":"m 139 917 l 631 917 l 631 878 l 183 878 l 183 508 l 558 508 l 558 469 l 183 469 l 183 39 l 644 39 l 644 0 l 139 0 l 139 917 m 390 1006 q 357 1019 371 1006 q 343 1056 343 1032 q 357 1090 343 1076 q 390 1103 371 1103 q 424 1090 410 1103 q 438 1056 438 1076 q 424 1019 438 1032 q 390 1006 410 1006 z "},"Ẹ":{"ha":708,"x_min":139,"x_max":644,"o":"m 139 917 l 631 917 l 631 878 l 183 878 l 183 508 l 558 508 l 558 469 l 183 469 l 183 39 l 644 39 l 644 0 l 139 0 l 139 917 m 413 -264 q 381 -251 393 -264 q 368 -214 368 -237 q 381 -180 368 -193 q 413 -167 393 -167 q 444 -180 432 -167 q 457 -214 457 -193 q 444 -251 457 -237 q 413 -264 432 -264 z "},"Ẻ":{"ha":708,"x_min":139,"x_max":644,"o":"m 139 917 l 631 917 l 631 878 l 183 878 l 183 508 l 558 508 l 558 469 l 183 469 l 183 39 l 644 39 l 644 0 l 139 0 l 139 917 m 349 1008 q 415 1039 389 1021 q 440 1089 440 1057 q 409 1139 440 1122 q 321 1158 378 1156 l 324 1194 q 383 1188 354 1193 q 433 1169 411 1182 q 469 1139 456 1157 q 482 1094 482 1121 q 472 1049 482 1068 q 444 1017 461 1031 q 404 994 426 1004 q 360 978 382 985 l 349 1008 z "},"Ẽ":{"ha":708,"x_min":139,"x_max":644,"o":"m 139 917 l 631 917 l 631 878 l 183 878 l 183 508 l 558 508 l 558 469 l 183 469 l 183 39 l 644 39 l 644 0 l 139 0 l 139 917 m 471 997 q 423 1010 443 997 q 384 1038 403 1022 q 347 1065 365 1053 q 307 1078 329 1078 q 268 1056 283 1078 q 249 997 253 1033 l 218 997 q 225 1038 219 1017 q 242 1077 231 1060 q 269 1106 253 1094 q 310 1117 286 1117 q 357 1104 336 1117 q 397 1076 378 1092 q 433 1049 415 1061 q 474 1036 451 1036 q 513 1058 497 1036 q 532 1117 528 1081 l 563 1117 q 556 1076 561 1097 q 539 1037 550 1054 q 510 1008 528 1019 q 471 997 493 997 z "},"Ế":{"ha":708,"x_min":139,"x_max":646,"o":"m 139 917 l 631 917 l 631 878 l 183 878 l 183 508 l 558 508 l 558 469 l 183 469 l 183 39 l 644 39 l 644 0 l 139 0 l 139 917 m 593 1214 l 646 1214 l 529 1069 l 493 1069 l 593 1214 m 371 1122 l 410 1122 l 535 986 l 493 986 l 393 1081 l 388 1081 l 288 986 l 246 986 l 371 1122 z "},"Ề":{"ha":708,"x_min":139,"x_max":644,"o":"m 139 917 l 631 917 l 631 878 l 183 878 l 183 508 l 558 508 l 558 469 l 183 469 l 183 39 l 644 39 l 644 0 l 139 0 l 139 917 m 585 1069 l 549 1069 l 432 1214 l 485 1214 l 585 1069 m 371 1122 l 410 1122 l 535 986 l 493 986 l 393 1081 l 388 1081 l 288 986 l 246 986 l 371 1122 z "},"Ể":{"ha":708,"x_min":139,"x_max":644,"o":"m 139 917 l 631 917 l 631 878 l 183 878 l 183 508 l 558 508 l 558 469 l 183 469 l 183 39 l 644 39 l 644 0 l 139 0 l 139 917 m 511 1086 q 565 1108 543 1094 q 586 1147 586 1122 q 560 1193 586 1181 q 483 1208 533 1206 l 489 1244 q 541 1238 515 1243 q 585 1223 567 1233 q 616 1195 604 1213 q 628 1153 628 1178 q 618 1113 628 1129 q 594 1085 608 1097 q 561 1066 579 1074 q 525 1053 543 1058 l 511 1086 m 371 1122 l 410 1122 l 535 986 l 493 986 l 393 1081 l 388 1081 l 288 986 l 246 986 l 371 1122 z "},"Ễ":{"ha":708,"x_min":139,"x_max":644,"o":"m 139 917 l 631 917 l 631 878 l 183 878 l 183 508 l 558 508 l 558 469 l 183 469 l 183 39 l 644 39 l 644 0 l 139 0 l 139 917 m 371 1122 l 410 1122 l 535 986 l 493 986 l 393 1081 l 388 1081 l 288 986 l 246 986 l 371 1122 m 226 1169 q 233 1205 228 1186 q 250 1239 239 1224 q 278 1265 261 1254 q 321 1275 296 1275 q 364 1264 346 1275 q 398 1240 382 1253 q 428 1217 414 1228 q 463 1206 443 1206 q 501 1224 486 1206 q 521 1275 517 1243 l 554 1275 q 547 1240 553 1258 q 531 1206 542 1221 q 502 1180 519 1190 q 460 1169 485 1169 q 417 1181 435 1169 q 383 1204 399 1192 q 351 1228 367 1217 q 318 1239 336 1239 q 279 1220 294 1239 q 260 1169 264 1201 l 226 1169 z "},"Ệ":{"ha":708,"x_min":139,"x_max":644,"o":"m 139 917 l 631 917 l 631 878 l 183 878 l 183 508 l 558 508 l 558 469 l 183 469 l 183 39 l 644 39 l 644 0 l 139 0 l 139 917 m 238 986 l 371 1131 l 410 1131 l 543 986 l 501 986 l 393 1089 l 388 1089 l 279 986 l 238 986 m 413 -264 q 381 -251 393 -264 q 368 -214 368 -237 q 381 -180 368 -193 q 413 -167 393 -167 q 444 -180 432 -167 q 457 -214 457 -193 q 444 -251 457 -237 q 413 -264 432 -264 z "},"Ę":{"ha":708,"x_min":139,"x_max":661,"o":"m 139 917 l 631 917 l 631 878 l 183 878 l 183 508 l 558 508 l 558 469 l 183 469 l 183 39 l 644 39 l 644 0 l 642 0 q 594 -20 618 -6 q 551 -57 571 -35 q 520 -108 532 -79 q 508 -167 508 -136 q 531 -223 508 -204 q 581 -242 553 -242 q 613 -237 600 -242 q 642 -222 626 -233 l 661 -250 q 622 -272 646 -262 q 578 -281 599 -281 q 499 -253 532 -281 q 467 -169 467 -226 q 496 -72 467 -117 q 567 0 525 -28 l 139 0 l 139 917 z "},"Ĝ":{"ha":833,"x_min":78,"x_max":731,"o":"m 78 461 q 106 657 78 569 q 187 806 135 744 q 313 900 239 867 q 478 933 388 933 q 561 924 524 933 q 628 898 599 914 q 681 863 658 882 q 722 825 704 843 l 694 794 q 607 863 658 835 q 478 892 556 892 q 331 862 396 892 q 219 776 265 832 q 149 640 174 719 q 125 461 125 560 q 149 282 125 363 q 216 144 172 201 q 323 56 260 88 q 467 25 386 25 q 592 44 533 25 q 686 100 650 64 l 686 403 l 458 403 l 458 442 l 731 442 l 731 86 q 622 12 689 40 q 464 -17 554 -17 q 305 17 376 -17 q 183 114 233 51 q 106 265 133 176 q 78 461 78 353 m 324 986 l 457 1131 l 496 1131 l 629 986 l 588 986 l 479 1089 l 474 1089 l 365 986 l 324 986 z "},"Ğ":{"ha":833,"x_min":78,"x_max":731,"o":"m 78 461 q 106 657 78 569 q 187 806 135 744 q 313 900 239 867 q 478 933 388 933 q 561 924 524 933 q 628 898 599 914 q 681 863 658 882 q 722 825 704 843 l 694 794 q 607 863 658 835 q 478 892 556 892 q 331 862 396 892 q 219 776 265 832 q 149 640 174 719 q 125 461 125 560 q 149 282 125 363 q 216 144 172 201 q 323 56 260 88 q 467 25 386 25 q 592 44 533 25 q 686 100 650 64 l 686 403 l 458 403 l 458 442 l 731 442 l 731 86 q 622 12 689 40 q 464 -17 554 -17 q 305 17 376 -17 q 183 114 233 51 q 106 265 133 176 q 78 461 78 353 m 476 989 q 410 1003 438 989 q 363 1038 382 1017 q 334 1083 344 1058 q 321 1131 324 1108 l 357 1131 q 368 1092 360 1111 q 391 1059 376 1074 q 427 1035 406 1044 q 476 1025 449 1025 q 525 1035 504 1025 q 560 1059 546 1044 q 584 1092 575 1074 q 596 1131 593 1111 l 632 1131 q 619 1083 629 1108 q 590 1038 608 1058 q 543 1003 571 1017 q 476 989 515 989 z "},"Ġ":{"ha":833,"x_min":78,"x_max":731,"o":"m 78 461 q 106 657 78 569 q 187 806 135 744 q 313 900 239 867 q 478 933 388 933 q 561 924 524 933 q 628 898 599 914 q 681 863 658 882 q 722 825 704 843 l 694 794 q 607 863 658 835 q 478 892 556 892 q 331 862 396 892 q 219 776 265 832 q 149 640 174 719 q 125 461 125 560 q 149 282 125 363 q 216 144 172 201 q 323 56 260 88 q 467 25 386 25 q 592 44 533 25 q 686 100 650 64 l 686 403 l 458 403 l 458 442 l 731 442 l 731 86 q 622 12 689 40 q 464 -17 554 -17 q 305 17 376 -17 q 183 114 233 51 q 106 265 133 176 q 78 461 78 353 m 476 1006 q 443 1019 457 1006 q 429 1056 429 1032 q 443 1090 429 1076 q 476 1103 457 1103 q 510 1090 496 1103 q 524 1056 524 1076 q 510 1019 524 1032 q 476 1006 496 1006 z "},"Ģ":{"ha":833,"x_min":78,"x_max":731,"o":"m 78 461 q 106 657 78 569 q 187 806 135 744 q 313 900 239 867 q 478 933 388 933 q 561 924 524 933 q 628 898 599 914 q 681 863 658 882 q 722 825 704 843 l 694 794 q 607 863 658 835 q 478 892 556 892 q 331 862 396 892 q 219 776 265 832 q 149 640 174 719 q 125 461 125 560 q 149 282 125 363 q 216 144 172 201 q 323 56 260 88 q 467 25 386 25 q 592 44 533 25 q 686 100 650 64 l 686 403 l 458 403 l 458 442 l 731 442 l 731 86 q 622 12 689 40 q 464 -17 554 -17 q 305 17 376 -17 q 183 114 233 51 q 106 265 133 176 q 78 461 78 353 m 435 -72 q 515 -108 488 -85 q 543 -172 543 -131 q 529 -218 543 -199 q 492 -251 515 -237 q 440 -274 469 -265 q 379 -286 410 -282 l 371 -250 q 465 -224 429 -242 q 501 -178 501 -207 q 476 -130 501 -144 q 421 -108 450 -115 l 435 -72 l 435 -72 z "},"Ǧ":{"ha":833,"x_min":78,"x_max":731,"o":"m 78 461 q 106 657 78 569 q 187 806 135 744 q 313 900 239 867 q 478 933 388 933 q 561 924 524 933 q 628 898 599 914 q 681 863 658 882 q 722 825 704 843 l 694 794 q 607 863 658 835 q 478 892 556 892 q 331 862 396 892 q 219 776 265 832 q 149 640 174 719 q 125 461 125 560 q 149 282 125 363 q 216 144 172 201 q 323 56 260 88 q 467 25 386 25 q 592 44 533 25 q 686 100 650 64 l 686 403 l 458 403 l 458 442 l 731 442 l 731 86 q 622 12 689 40 q 464 -17 554 -17 q 305 17 376 -17 q 183 114 233 51 q 106 265 133 176 q 78 461 78 353 m 629 1131 l 496 986 l 457 986 l 324 1131 l 365 1131 l 474 1028 l 479 1028 l 588 1131 l 629 1131 z "},"Ḡ":{"ha":833,"x_min":78,"x_max":731,"o":"m 78 461 q 106 657 78 569 q 187 806 135 744 q 313 900 239 867 q 478 933 388 933 q 561 924 524 933 q 628 898 599 914 q 681 863 658 882 q 722 825 704 843 l 694 794 q 607 863 658 835 q 478 892 556 892 q 331 862 396 892 q 219 776 265 832 q 149 640 174 719 q 125 461 125 560 q 149 282 125 363 q 216 144 172 201 q 323 56 260 88 q 467 25 386 25 q 592 44 533 25 q 686 100 650 64 l 686 403 l 458 403 l 458 442 l 731 442 l 731 86 q 622 12 689 40 q 464 -17 554 -17 q 305 17 376 -17 q 183 114 233 51 q 106 265 133 176 q 78 461 78 353 m 324 1061 l 629 1061 l 629 1022 l 324 1022 l 324 1061 z "},"Ĥ":{"ha":881,"x_min":139,"x_max":742,"o":"m 139 917 l 183 917 l 183 508 l 697 508 l 697 917 l 742 917 l 742 0 l 697 0 l 697 469 l 183 469 l 183 0 l 139 0 l 139 917 m 288 986 l 421 1131 l 460 1131 l 593 986 l 551 986 l 443 1089 l 438 1089 l 329 986 l 288 986 z "},"Ḥ":{"ha":881,"x_min":139,"x_max":742,"o":"m 139 917 l 183 917 l 183 508 l 697 508 l 697 917 l 742 917 l 742 0 l 697 0 l 697 469 l 183 469 l 183 0 l 139 0 l 139 917 m 440 -264 q 408 -251 421 -264 q 396 -214 396 -237 q 408 -180 396 -193 q 440 -167 421 -167 q 472 -180 460 -167 q 485 -214 485 -193 q 472 -251 485 -237 q 440 -264 460 -264 z "},"Ḫ":{"ha":881,"x_min":139,"x_max":742,"o":"m 139 917 l 183 917 l 183 508 l 697 508 l 697 917 l 742 917 l 742 0 l 697 0 l 697 469 l 183 469 l 183 0 l 139 0 l 139 917 m 440 -281 q 369 -265 399 -281 q 322 -225 340 -249 q 292 -173 303 -201 q 279 -119 282 -144 l 315 -119 q 327 -165 318 -143 q 351 -205 336 -187 q 389 -233 367 -222 q 440 -244 411 -244 q 492 -233 469 -244 q 529 -205 514 -222 q 553 -165 544 -187 q 565 -119 563 -143 l 601 -119 q 588 -173 599 -144 q 559 -225 578 -201 q 511 -265 540 -249 q 440 -281 482 -281 z "},"Ħ":{"ha":925,"x_min":53,"x_max":872,"o":"m 725 689 l 211 689 l 211 508 l 725 508 l 725 689 m 872 689 l 769 689 l 769 0 l 725 0 l 725 469 l 211 469 l 211 0 l 167 0 l 167 689 l 53 689 l 53 722 l 167 728 l 167 917 l 211 917 l 211 728 l 725 728 l 725 917 l 769 917 l 769 728 l 872 728 l 872 689 z "},"Ì":{"ha":322,"x_min":14,"x_max":206,"o":"m 139 917 l 183 917 l 183 0 l 139 0 l 139 917 m 14 1131 l 75 1131 l 206 986 l 164 986 l 14 1131 z "},"Í":{"ha":322,"x_min":117,"x_max":308,"o":"m 139 917 l 183 917 l 183 0 l 139 0 l 139 917 m 158 986 l 117 986 l 247 1131 l 308 1131 l 158 986 z "},"Î":{"ha":322,"x_min":8,"x_max":314,"o":"m 139 917 l 183 917 l 183 0 l 139 0 l 139 917 m 8 986 l 142 1131 l 181 1131 l 314 986 l 272 986 l 164 1089 l 158 1089 l 50 986 l 8 986 z "},"Ĩ":{"ha":322,"x_min":-11,"x_max":333,"o":"m 139 917 l 183 917 l 183 0 l 139 0 l 139 917 m 242 997 q 194 1010 214 997 q 155 1038 174 1022 q 118 1065 136 1053 q 78 1078 100 1078 q 39 1056 54 1078 q 19 997 24 1033 l -11 997 q -4 1038 -10 1017 q 13 1077 1 1060 q 40 1106 24 1094 q 81 1117 57 1117 q 128 1104 107 1117 q 167 1076 149 1092 q 204 1049 186 1061 q 244 1036 222 1036 q 283 1058 268 1036 q 303 1117 299 1081 l 333 1117 q 326 1076 332 1097 q 310 1037 321 1054 q 281 1008 299 1019 q 242 997 264 997 z "},"Ï":{"ha":322,"x_min":11,"x_max":311,"o":"m 139 917 l 183 917 l 183 0 l 139 0 l 139 917 m 56 1011 q 24 1023 36 1011 q 11 1056 11 1035 q 24 1088 11 1076 q 56 1100 36 1100 q 88 1088 75 1100 q 100 1056 100 1076 q 88 1023 100 1035 q 56 1011 75 1011 m 267 1011 q 235 1023 247 1011 q 222 1056 222 1035 q 235 1088 222 1076 q 267 1100 247 1100 q 299 1088 286 1100 q 311 1056 311 1076 q 299 1023 311 1035 q 267 1011 286 1011 z "},"Ī":{"ha":322,"x_min":8,"x_max":314,"o":"m 139 917 l 183 917 l 183 0 l 139 0 l 139 917 m 8 1061 l 314 1061 l 314 1022 l 8 1022 l 8 1061 z "},"İ":{"ha":322,"x_min":114,"x_max":208,"o":"m 139 917 l 183 917 l 183 0 l 139 0 l 139 917 m 161 1006 q 128 1019 142 1006 q 114 1056 114 1032 q 128 1090 114 1076 q 161 1103 142 1103 q 194 1090 181 1103 q 208 1056 208 1076 q 194 1019 208 1032 q 161 1006 181 1006 z "},"Ǐ":{"ha":322,"x_min":8,"x_max":314,"o":"m 139 917 l 183 917 l 183 0 l 139 0 l 139 917 m 314 1131 l 181 986 l 142 986 l 8 1131 l 50 1131 l 158 1028 l 164 1028 l 272 1131 l 314 1131 z "},"Ỉ":{"ha":322,"x_min":92,"x_max":253,"o":"m 139 917 l 183 917 l 183 0 l 139 0 l 139 917 m 119 1008 q 185 1039 160 1021 q 211 1089 211 1057 q 180 1139 211 1122 q 92 1158 149 1156 l 94 1194 q 153 1188 125 1193 q 204 1169 182 1182 q 240 1139 226 1157 q 253 1094 253 1121 q 242 1049 253 1068 q 215 1017 232 1031 q 175 994 197 1004 q 131 978 153 985 l 119 1008 z "},"Ị":{"ha":322,"x_min":118,"x_max":207,"o":"m 139 917 l 183 917 l 183 0 l 139 0 l 139 917 m 163 -264 q 131 -251 143 -264 q 118 -214 118 -237 q 131 -180 118 -193 q 163 -167 143 -167 q 194 -180 182 -167 q 207 -214 207 -193 q 194 -251 207 -237 q 163 -264 182 -264 z "},"Į":{"ha":322,"x_min":61,"x_max":256,"o":"m 139 917 l 183 917 l 183 0 q 126 -80 150 -42 q 103 -167 103 -118 q 125 -223 103 -204 q 175 -242 147 -242 q 208 -237 194 -242 q 236 -222 221 -233 l 256 -250 q 217 -272 240 -262 q 172 -281 193 -281 q 94 -253 126 -281 q 61 -169 61 -226 q 85 -76 61 -115 q 144 0 108 -37 l 139 0 l 139 917 z "},"Ĵ":{"ha":633,"x_min":61,"x_max":622,"o":"m 97 136 q 176 50 133 75 q 281 25 219 25 q 410 78 368 25 q 453 247 453 132 l 453 917 l 497 917 l 497 242 q 485 140 497 188 q 448 58 474 93 q 380 3 422 24 q 278 -17 338 -17 q 149 17 204 -17 q 61 114 94 51 l 97 136 m 317 986 l 450 1131 l 489 1131 l 622 986 l 581 986 l 472 1089 l 467 1089 l 358 986 l 317 986 z "},"Ķ":{"ha":764,"x_min":139,"x_max":747,"o":"m 139 917 l 183 917 l 183 389 l 186 389 l 653 917 l 708 917 l 414 581 l 747 0 l 694 0 l 381 547 l 183 325 l 183 0 l 139 0 l 139 917 m 413 -72 q 493 -108 465 -85 q 521 -172 521 -131 q 507 -218 521 -199 q 470 -251 493 -237 q 417 -274 447 -265 q 357 -286 388 -282 l 349 -250 q 443 -224 407 -242 q 479 -178 479 -207 q 453 -130 479 -144 q 399 -108 428 -115 l 413 -72 l 413 -72 z "},"Ĺ":{"ha":639,"x_min":119,"x_max":614,"o":"m 139 917 l 183 917 l 183 39 l 614 39 l 614 0 l 139 0 l 139 917 m 161 986 l 119 986 l 250 1131 l 311 1131 l 161 986 z "},"Ľ":{"ha":639,"x_min":139,"x_max":614,"o":"m 139 917 l 183 917 l 183 39 l 614 39 l 614 0 l 139 0 l 139 917 m 442 721 l 439 1004 l 481 1004 l 481 938 l 472 721 l 442 721 z "},"Ļ":{"ha":639,"x_min":139,"x_max":614,"o":"m 139 917 l 183 917 l 183 39 l 614 39 l 614 0 l 139 0 l 139 917 m 364 -72 q 444 -108 417 -85 q 472 -172 472 -131 q 458 -218 472 -199 q 422 -251 444 -237 q 369 -274 399 -265 q 308 -286 339 -282 l 300 -250 q 394 -224 358 -242 q 431 -178 431 -207 q 405 -130 431 -144 q 350 -108 379 -115 l 364 -72 l 364 -72 z "},"Ŀ":{"ha":639,"x_min":139,"x_max":614,"o":"m 139 917 l 183 917 l 183 39 l 614 39 l 614 0 l 139 0 l 139 917 m 436 447 q 451 489 436 475 q 486 503 467 503 q 521 489 506 503 q 536 447 536 475 q 521 408 536 422 q 486 394 506 394 q 451 408 467 394 q 436 447 436 422 z "},"Ḷ":{"ha":639,"x_min":139,"x_max":614,"o":"m 139 917 l 183 917 l 183 39 l 614 39 l 614 0 l 139 0 l 139 917 m 397 -264 q 365 -251 378 -264 q 353 -214 353 -237 q 365 -180 353 -193 q 397 -167 378 -167 q 429 -180 417 -167 q 442 -214 442 -193 q 429 -251 442 -237 q 397 -264 417 -264 z "},"Ḹ":{"ha":639,"x_min":11,"x_max":614,"o":"m 139 917 l 183 917 l 183 39 l 614 39 l 614 0 l 139 0 l 139 917 m 11 1061 l 317 1061 l 317 1022 l 11 1022 l 11 1061 m 397 -264 q 365 -251 378 -264 q 353 -214 353 -237 q 365 -180 353 -193 q 397 -167 378 -167 q 429 -180 417 -167 q 442 -214 442 -193 q 429 -251 442 -237 q 397 -264 417 -264 z "},"Ḻ":{"ha":639,"x_min":139,"x_max":614,"o":"m 139 917 l 183 917 l 183 39 l 614 39 l 614 0 l 139 0 l 139 917 m 550 -217 l 242 -217 l 242 -178 l 550 -178 l 550 -217 z "},"Ł":{"ha":639,"x_min":19,"x_max":619,"o":"m 619 39 l 619 0 l 144 0 l 144 367 l 19 300 l 19 342 l 144 408 l 144 917 l 189 917 l 189 428 l 461 569 l 461 528 l 189 386 l 189 39 l 619 39 z "},"Ṃ":{"ha":969,"x_min":139,"x_max":831,"o":"m 139 917 l 211 917 l 408 361 l 483 153 l 489 153 l 561 361 l 758 917 l 831 917 l 831 0 l 786 0 l 786 639 q 788 757 786 693 q 792 878 789 821 l 786 878 l 715 678 l 511 103 l 458 103 l 253 678 l 181 878 l 175 878 q 179 757 178 821 q 181 639 181 693 l 181 0 l 139 0 l 139 917 m 486 -264 q 454 -251 467 -264 q 442 -214 442 -237 q 454 -180 442 -193 q 486 -167 467 -167 q 518 -180 506 -167 q 531 -214 531 -193 q 518 -251 531 -237 q 486 -264 506 -264 z "},"Ń":{"ha":878,"x_min":139,"x_max":739,"o":"m 139 917 l 186 917 l 592 244 l 697 64 l 703 64 q 699 194 700 131 q 697 322 697 257 l 697 917 l 739 917 l 739 0 l 692 0 l 286 672 l 181 853 l 175 853 q 179 728 178 788 q 181 603 181 668 l 181 0 l 139 0 l 139 917 m 443 986 l 401 986 l 532 1131 l 593 1131 l 443 986 z "},"Ň":{"ha":878,"x_min":139,"x_max":739,"o":"m 139 917 l 186 917 l 592 244 l 697 64 l 703 64 q 699 194 700 131 q 697 322 697 257 l 697 917 l 739 917 l 739 0 l 692 0 l 286 672 l 181 853 l 175 853 q 179 728 178 788 q 181 603 181 668 l 181 0 l 139 0 l 139 917 m 599 1131 l 465 986 l 426 986 l 293 1131 l 335 1131 l 443 1028 l 449 1028 l 557 1131 l 599 1131 z "},"Ñ":{"ha":878,"x_min":139,"x_max":739,"o":"m 139 917 l 186 917 l 592 244 l 697 64 l 703 64 q 699 194 700 131 q 697 322 697 257 l 697 917 l 739 917 l 739 0 l 692 0 l 286 672 l 181 853 l 175 853 q 179 728 178 788 q 181 603 181 668 l 181 0 l 139 0 l 139 917 m 526 997 q 478 1010 499 997 q 440 1038 458 1022 q 403 1065 421 1053 q 363 1078 385 1078 q 324 1056 339 1078 q 304 997 308 1033 l 274 997 q 281 1038 275 1017 q 297 1077 286 1060 q 325 1106 308 1094 q 365 1117 342 1117 q 413 1104 392 1117 q 452 1076 433 1092 q 489 1049 471 1061 q 529 1036 507 1036 q 568 1058 553 1036 q 588 1117 583 1081 l 618 1117 q 611 1076 617 1097 q 594 1037 606 1054 q 566 1008 583 1019 q 526 997 549 997 z "},"Ņ":{"ha":878,"x_min":139,"x_max":739,"o":"m 139 917 l 186 917 l 592 244 l 697 64 l 703 64 q 699 194 700 131 q 697 322 697 257 l 697 917 l 739 917 l 739 0 l 692 0 l 286 672 l 181 853 l 175 853 q 179 728 178 788 q 181 603 181 668 l 181 0 l 139 0 l 139 917 m 404 -72 q 485 -108 457 -85 q 513 -172 513 -131 q 499 -218 513 -199 q 462 -251 485 -237 q 409 -274 439 -265 q 349 -286 379 -282 l 340 -250 q 435 -224 399 -242 q 471 -178 471 -207 q 445 -130 471 -144 q 390 -108 419 -115 l 404 -72 l 404 -72 z "},"Ṅ":{"ha":878,"x_min":139,"x_max":739,"o":"m 139 917 l 186 917 l 592 244 l 697 64 l 703 64 q 699 194 700 131 q 697 322 697 257 l 697 917 l 739 917 l 739 0 l 692 0 l 286 672 l 181 853 l 175 853 q 179 728 178 788 q 181 603 181 668 l 181 0 l 139 0 l 139 917 m 446 1006 q 413 1019 426 1006 q 399 1056 399 1032 q 413 1090 399 1076 q 446 1103 426 1103 q 479 1090 465 1103 q 493 1056 493 1076 q 479 1019 493 1032 q 446 1006 465 1006 z "},"Ṇ":{"ha":878,"x_min":139,"x_max":739,"o":"m 139 917 l 186 917 l 592 244 l 697 64 l 703 64 q 699 194 700 131 q 697 322 697 257 l 697 917 l 739 917 l 739 0 l 692 0 l 286 672 l 181 853 l 175 853 q 179 728 178 788 q 181 603 181 668 l 181 0 l 139 0 l 139 917 m 438 -264 q 406 -251 418 -264 q 393 -214 393 -237 q 406 -180 393 -193 q 438 -167 418 -167 q 469 -180 457 -167 q 482 -214 482 -193 q 469 -251 482 -237 q 438 -264 457 -264 z "},"Ṉ":{"ha":878,"x_min":139,"x_max":739,"o":"m 139 917 l 186 917 l 592 244 l 697 64 l 703 64 q 699 194 700 131 q 697 322 697 257 l 697 917 l 739 917 l 739 0 l 692 0 l 286 672 l 181 853 l 175 853 q 179 728 178 788 q 181 603 181 668 l 181 0 l 139 0 l 139 917 m 590 -217 l 282 -217 l 282 -178 l 590 -178 l 590 -217 z "},"Ò":{"ha":900,"x_min":78,"x_max":822,"o":"m 450 -17 q 300 17 368 -17 q 183 114 232 51 q 106 265 133 176 q 78 461 78 353 q 106 657 78 569 q 183 806 133 744 q 300 900 232 867 q 450 933 368 933 q 599 900 531 933 q 717 806 668 867 q 794 657 767 744 q 822 461 822 569 q 794 265 822 353 q 717 114 767 176 q 599 17 668 51 q 450 -17 531 -17 m 450 25 q 583 56 522 25 q 685 144 643 88 q 751 282 728 201 q 775 461 775 363 q 751 640 775 560 q 685 776 728 719 q 583 862 643 832 q 450 892 522 892 q 317 862 376 892 q 215 776 257 832 q 149 640 172 719 q 125 461 125 560 q 149 282 125 363 q 215 144 172 201 q 317 56 257 88 q 450 25 376 25 m 303 1131 l 364 1131 l 494 986 l 453 986 l 303 1131 z "},"Ó":{"ha":900,"x_min":78,"x_max":822,"o":"m 450 -17 q 300 17 368 -17 q 183 114 232 51 q 106 265 133 176 q 78 461 78 353 q 106 657 78 569 q 183 806 133 744 q 300 900 232 867 q 450 933 368 933 q 599 900 531 933 q 717 806 668 867 q 794 657 767 744 q 822 461 822 569 q 794 265 822 353 q 717 114 767 176 q 599 17 668 51 q 450 -17 531 -17 m 450 25 q 583 56 522 25 q 685 144 643 88 q 751 282 728 201 q 775 461 775 363 q 751 640 775 560 q 685 776 728 719 q 583 862 643 832 q 450 892 522 892 q 317 862 376 892 q 215 776 257 832 q 149 640 172 719 q 125 461 125 560 q 149 282 125 363 q 215 144 172 201 q 317 56 257 88 q 450 25 376 25 m 447 986 l 406 986 l 536 1131 l 597 1131 l 447 986 z "},"Ô":{"ha":900,"x_min":78,"x_max":822,"o":"m 450 -17 q 300 17 368 -17 q 183 114 232 51 q 106 265 133 176 q 78 461 78 353 q 106 657 78 569 q 183 806 133 744 q 300 900 232 867 q 450 933 368 933 q 599 900 531 933 q 717 806 668 867 q 794 657 767 744 q 822 461 822 569 q 794 265 822 353 q 717 114 767 176 q 599 17 668 51 q 450 -17 531 -17 m 450 25 q 583 56 522 25 q 685 144 643 88 q 751 282 728 201 q 775 461 775 363 q 751 640 775 560 q 685 776 728 719 q 583 862 643 832 q 450 892 522 892 q 317 862 376 892 q 215 776 257 832 q 149 640 172 719 q 125 461 125 560 q 149 282 125 363 q 215 144 172 201 q 317 56 257 88 q 450 25 376 25 m 297 986 l 431 1131 l 469 1131 l 603 986 l 561 986 l 453 1089 l 447 1089 l 339 986 l 297 986 z "},"Õ":{"ha":900,"x_min":78,"x_max":822,"o":"m 450 -17 q 300 17 368 -17 q 183 114 232 51 q 106 265 133 176 q 78 461 78 353 q 106 657 78 569 q 183 806 133 744 q 300 900 232 867 q 450 933 368 933 q 599 900 531 933 q 717 806 668 867 q 794 657 767 744 q 822 461 822 569 q 794 265 822 353 q 717 114 767 176 q 599 17 668 51 q 450 -17 531 -17 m 450 25 q 583 56 522 25 q 685 144 643 88 q 751 282 728 201 q 775 461 775 363 q 751 640 775 560 q 685 776 728 719 q 583 862 643 832 q 450 892 522 892 q 317 862 376 892 q 215 776 257 832 q 149 640 172 719 q 125 461 125 560 q 149 282 125 363 q 215 144 172 201 q 317 56 257 88 q 450 25 376 25 m 531 997 q 483 1010 503 997 q 444 1038 463 1022 q 407 1065 425 1053 q 367 1078 389 1078 q 328 1056 343 1078 q 308 997 313 1033 l 278 997 q 285 1038 279 1017 q 301 1077 290 1060 q 329 1106 313 1094 q 369 1117 346 1117 q 417 1104 396 1117 q 456 1076 438 1092 q 493 1049 475 1061 q 533 1036 511 1036 q 572 1058 557 1036 q 592 1117 588 1081 l 622 1117 q 615 1076 621 1097 q 599 1037 610 1054 q 570 1008 588 1019 q 531 997 553 997 z "},"Ö":{"ha":900,"x_min":78,"x_max":822,"o":"m 450 -17 q 300 17 368 -17 q 183 114 232 51 q 106 265 133 176 q 78 461 78 353 q 106 657 78 569 q 183 806 133 744 q 300 900 232 867 q 450 933 368 933 q 599 900 531 933 q 717 806 668 867 q 794 657 767 744 q 822 461 822 569 q 794 265 822 353 q 717 114 767 176 q 599 17 668 51 q 450 -17 531 -17 m 450 25 q 583 56 522 25 q 685 144 643 88 q 751 282 728 201 q 775 461 775 363 q 751 640 775 560 q 685 776 728 719 q 583 862 643 832 q 450 892 522 892 q 317 862 376 892 q 215 776 257 832 q 149 640 172 719 q 125 461 125 560 q 149 282 125 363 q 215 144 172 201 q 317 56 257 88 q 450 25 376 25 m 344 1011 q 313 1023 325 1011 q 300 1056 300 1035 q 313 1088 300 1076 q 344 1100 325 1100 q 376 1088 364 1100 q 389 1056 389 1076 q 376 1023 389 1035 q 344 1011 364 1011 m 556 1011 q 524 1023 536 1011 q 511 1056 511 1035 q 524 1088 511 1076 q 556 1100 536 1100 q 588 1088 575 1100 q 600 1056 600 1076 q 588 1023 600 1035 q 556 1011 575 1011 z "},"Ō":{"ha":900,"x_min":78,"x_max":822,"o":"m 450 -17 q 300 17 368 -17 q 183 114 232 51 q 106 265 133 176 q 78 461 78 353 q 106 657 78 569 q 183 806 133 744 q 300 900 232 867 q 450 933 368 933 q 599 900 531 933 q 717 806 668 867 q 794 657 767 744 q 822 461 822 569 q 794 265 822 353 q 717 114 767 176 q 599 17 668 51 q 450 -17 531 -17 m 450 25 q 583 56 522 25 q 685 144 643 88 q 751 282 728 201 q 775 461 775 363 q 751 640 775 560 q 685 776 728 719 q 583 862 643 832 q 450 892 522 892 q 317 862 376 892 q 215 776 257 832 q 149 640 172 719 q 125 461 125 560 q 149 282 125 363 q 215 144 172 201 q 317 56 257 88 q 450 25 376 25 m 297 1061 l 603 1061 l 603 1022 l 297 1022 l 297 1061 z "},"Ő":{"ha":900,"x_min":78,"x_max":822,"o":"m 450 -17 q 300 17 368 -17 q 183 114 232 51 q 106 265 133 176 q 78 461 78 353 q 106 657 78 569 q 183 806 133 744 q 300 900 232 867 q 450 933 368 933 q 599 900 531 933 q 717 806 668 867 q 794 657 767 744 q 822 461 822 569 q 794 265 822 353 q 717 114 767 176 q 599 17 668 51 q 450 -17 531 -17 m 450 25 q 583 56 522 25 q 685 144 643 88 q 751 282 728 201 q 775 461 775 363 q 751 640 775 560 q 685 776 728 719 q 583 862 643 832 q 450 892 522 892 q 317 862 376 892 q 215 776 257 832 q 149 640 172 719 q 125 461 125 560 q 149 282 125 363 q 215 144 172 201 q 317 56 257 88 q 450 25 376 25 m 331 986 l 425 1131 l 478 1131 l 369 986 l 331 986 m 619 1131 l 672 1131 l 564 986 l 525 986 l 619 1131 z "},"Ǒ":{"ha":900,"x_min":78,"x_max":822,"o":"m 450 -17 q 300 17 368 -17 q 183 114 232 51 q 106 265 133 176 q 78 461 78 353 q 106 657 78 569 q 183 806 133 744 q 300 900 232 867 q 450 933 368 933 q 599 900 531 933 q 717 806 668 867 q 794 657 767 744 q 822 461 822 569 q 794 265 822 353 q 717 114 767 176 q 599 17 668 51 q 450 -17 531 -17 m 450 25 q 583 56 522 25 q 685 144 643 88 q 751 282 728 201 q 775 461 775 363 q 751 640 775 560 q 685 776 728 719 q 583 862 643 832 q 450 892 522 892 q 317 862 376 892 q 215 776 257 832 q 149 640 172 719 q 125 461 125 560 q 149 282 125 363 q 215 144 172 201 q 317 56 257 88 q 450 25 376 25 m 603 1131 l 469 986 l 431 986 l 297 1131 l 339 1131 l 447 1028 l 453 1028 l 561 1131 l 603 1131 z "},"Ọ":{"ha":900,"x_min":78,"x_max":822,"o":"m 450 -17 q 300 17 368 -17 q 183 114 232 51 q 106 265 133 176 q 78 461 78 353 q 106 657 78 569 q 183 806 133 744 q 300 900 232 867 q 450 933 368 933 q 599 900 531 933 q 717 806 668 867 q 794 657 767 744 q 822 461 822 569 q 794 265 822 353 q 717 114 767 176 q 599 17 668 51 q 450 -17 531 -17 m 450 25 q 583 56 522 25 q 685 144 643 88 q 751 282 728 201 q 775 461 775 363 q 751 640 775 560 q 685 776 728 719 q 583 862 643 832 q 450 892 522 892 q 317 862 376 892 q 215 776 257 832 q 149 640 172 719 q 125 461 125 560 q 149 282 125 363 q 215 144 172 201 q 317 56 257 88 q 450 25 376 25 m 450 -264 q 418 -251 431 -264 q 406 -214 406 -237 q 418 -180 406 -193 q 450 -167 431 -167 q 482 -180 469 -167 q 494 -214 494 -193 q 482 -251 494 -237 q 450 -264 469 -264 z "},"Ỏ":{"ha":900,"x_min":78,"x_max":822,"o":"m 450 -17 q 300 17 368 -17 q 183 114 232 51 q 106 265 133 176 q 78 461 78 353 q 106 657 78 569 q 183 806 133 744 q 300 900 232 867 q 450 933 368 933 q 599 900 531 933 q 717 806 668 867 q 794 657 767 744 q 822 461 822 569 q 794 265 822 353 q 717 114 767 176 q 599 17 668 51 q 450 -17 531 -17 m 450 25 q 583 56 522 25 q 685 144 643 88 q 751 282 728 201 q 775 461 775 363 q 751 640 775 560 q 685 776 728 719 q 583 862 643 832 q 450 892 522 892 q 317 862 376 892 q 215 776 257 832 q 149 640 172 719 q 125 461 125 560 q 149 282 125 363 q 215 144 172 201 q 317 56 257 88 q 450 25 376 25 m 408 1008 q 474 1039 449 1021 q 500 1089 500 1057 q 469 1139 500 1122 q 381 1158 438 1156 l 383 1194 q 442 1188 414 1193 q 493 1169 471 1182 q 528 1139 515 1157 q 542 1094 542 1121 q 531 1049 542 1068 q 503 1017 521 1031 q 464 994 486 1004 q 419 978 442 985 l 408 1008 z "},"Ố":{"ha":900,"x_min":78,"x_max":822,"o":"m 450 -17 q 300 17 368 -17 q 183 114 232 51 q 106 265 133 176 q 78 461 78 353 q 106 657 78 569 q 183 806 133 744 q 300 900 232 867 q 450 933 368 933 q 599 900 531 933 q 717 806 668 867 q 794 657 767 744 q 822 461 822 569 q 794 265 822 353 q 717 114 767 176 q 599 17 668 51 q 450 -17 531 -17 m 450 25 q 583 56 522 25 q 685 144 643 88 q 751 282 728 201 q 775 461 775 363 q 751 640 775 560 q 685 776 728 719 q 583 862 643 832 q 450 892 522 892 q 317 862 376 892 q 215 776 257 832 q 149 640 172 719 q 125 461 125 560 q 149 282 125 363 q 215 144 172 201 q 317 56 257 88 q 450 25 376 25 m 653 1214 l 706 1214 l 589 1069 l 553 1069 l 653 1214 m 431 1122 l 469 1122 l 594 986 l 553 986 l 453 1081 l 447 1081 l 347 986 l 306 986 l 431 1122 z "},"Ồ":{"ha":900,"x_min":78,"x_max":822,"o":"m 450 -17 q 300 17 368 -17 q 183 114 232 51 q 106 265 133 176 q 78 461 78 353 q 106 657 78 569 q 183 806 133 744 q 300 900 232 867 q 450 933 368 933 q 599 900 531 933 q 717 806 668 867 q 794 657 767 744 q 822 461 822 569 q 794 265 822 353 q 717 114 767 176 q 599 17 668 51 q 450 -17 531 -17 m 450 25 q 583 56 522 25 q 685 144 643 88 q 751 282 728 201 q 775 461 775 363 q 751 640 775 560 q 685 776 728 719 q 583 862 643 832 q 450 892 522 892 q 317 862 376 892 q 215 776 257 832 q 149 640 172 719 q 125 461 125 560 q 149 282 125 363 q 215 144 172 201 q 317 56 257 88 q 450 25 376 25 m 644 1069 l 608 1069 l 492 1214 l 544 1214 l 644 1069 m 431 1122 l 469 1122 l 594 986 l 553 986 l 453 1081 l 447 1081 l 347 986 l 306 986 l 431 1122 z "},"Ổ":{"ha":900,"x_min":78,"x_max":822,"o":"m 450 -17 q 300 17 368 -17 q 183 114 232 51 q 106 265 133 176 q 78 461 78 353 q 106 657 78 569 q 183 806 133 744 q 300 900 232 867 q 450 933 368 933 q 599 900 531 933 q 717 806 668 867 q 794 657 767 744 q 822 461 822 569 q 794 265 822 353 q 717 114 767 176 q 599 17 668 51 q 450 -17 531 -17 m 450 25 q 583 56 522 25 q 685 144 643 88 q 751 282 728 201 q 775 461 775 363 q 751 640 775 560 q 685 776 728 719 q 583 862 643 832 q 450 892 522 892 q 317 862 376 892 q 215 776 257 832 q 149 640 172 719 q 125 461 125 560 q 149 282 125 363 q 215 144 172 201 q 317 56 257 88 q 450 25 376 25 m 571 1086 q 624 1108 603 1094 q 646 1147 646 1122 q 619 1193 646 1181 q 543 1208 593 1206 l 549 1244 q 601 1238 575 1243 q 645 1223 626 1233 q 676 1195 664 1213 q 688 1153 688 1178 q 678 1113 688 1129 q 653 1085 668 1097 q 621 1066 639 1074 q 585 1053 603 1058 l 571 1086 m 431 1122 l 469 1122 l 594 986 l 553 986 l 453 1081 l 447 1081 l 347 986 l 306 986 l 431 1122 z "},"Ỗ":{"ha":900,"x_min":78,"x_max":822,"o":"m 450 -17 q 300 17 368 -17 q 183 114 232 51 q 106 265 133 176 q 78 461 78 353 q 106 657 78 569 q 183 806 133 744 q 300 900 232 867 q 450 933 368 933 q 599 900 531 933 q 717 806 668 867 q 794 657 767 744 q 822 461 822 569 q 794 265 822 353 q 717 114 767 176 q 599 17 668 51 q 450 -17 531 -17 m 450 25 q 583 56 522 25 q 685 144 643 88 q 751 282 728 201 q 775 461 775 363 q 751 640 775 560 q 685 776 728 719 q 583 862 643 832 q 450 892 522 892 q 317 862 376 892 q 215 776 257 832 q 149 640 172 719 q 125 461 125 560 q 149 282 125 363 q 215 144 172 201 q 317 56 257 88 q 450 25 376 25 m 431 1122 l 469 1122 l 594 986 l 553 986 l 453 1081 l 447 1081 l 347 986 l 306 986 l 431 1122 m 286 1169 q 293 1205 288 1186 q 310 1239 299 1224 q 338 1265 321 1254 q 381 1275 356 1275 q 424 1264 406 1275 q 458 1240 442 1253 q 488 1217 474 1228 q 522 1206 503 1206 q 561 1224 546 1206 q 581 1275 576 1243 l 614 1275 q 607 1240 613 1258 q 590 1206 601 1221 q 562 1180 579 1190 q 519 1169 544 1169 q 476 1181 494 1169 q 442 1204 458 1192 q 411 1228 426 1217 q 378 1239 396 1239 q 339 1220 354 1239 q 319 1169 324 1201 l 286 1169 z "},"Ộ":{"ha":900,"x_min":78,"x_max":822,"o":"m 450 -17 q 300 17 368 -17 q 183 114 232 51 q 106 265 133 176 q 78 461 78 353 q 106 657 78 569 q 183 806 133 744 q 300 900 232 867 q 450 933 368 933 q 599 900 531 933 q 717 806 668 867 q 794 657 767 744 q 822 461 822 569 q 794 265 822 353 q 717 114 767 176 q 599 17 668 51 q 450 -17 531 -17 m 450 25 q 583 56 522 25 q 685 144 643 88 q 751 282 728 201 q 775 461 775 363 q 751 640 775 560 q 685 776 728 719 q 583 862 643 832 q 450 892 522 892 q 317 862 376 892 q 215 776 257 832 q 149 640 172 719 q 125 461 125 560 q 149 282 125 363 q 215 144 172 201 q 317 56 257 88 q 450 25 376 25 m 297 986 l 431 1131 l 469 1131 l 603 986 l 561 986 l 453 1089 l 447 1089 l 339 986 l 297 986 m 450 -264 q 418 -251 431 -264 q 406 -214 406 -237 q 418 -180 406 -193 q 450 -167 431 -167 q 482 -180 469 -167 q 494 -214 494 -193 q 482 -251 494 -237 q 450 -264 469 -264 z "},"Ø":{"ha":900,"x_min":81,"x_max":828,"o":"m 229 132 q 329 53 272 81 q 456 25 386 25 q 588 56 528 25 q 691 144 649 88 q 757 282 733 201 q 781 461 781 363 q 759 633 781 557 q 699 765 738 710 l 229 132 m 674 796 q 456 892 589 892 q 322 862 382 892 q 220 776 263 832 q 154 640 178 719 q 131 461 131 560 q 150 295 131 369 q 206 164 169 221 l 674 796 m 725 803 q 801 655 774 740 q 828 461 828 569 q 800 265 828 353 q 723 114 772 176 q 605 17 674 51 q 456 -17 536 -17 q 316 13 381 -17 q 203 96 251 42 l 111 -28 l 81 -6 l 178 126 q 108 273 133 189 q 83 461 83 357 q 111 657 83 569 q 188 806 139 744 q 306 900 238 867 q 456 933 374 933 q 590 907 528 933 q 700 832 651 881 l 783 944 l 814 922 l 725 803 z "},"Œ":{"ha":1150,"x_min":78,"x_max":1086,"o":"m 78 461 q 104 647 78 563 q 184 791 131 731 q 318 884 238 851 q 508 917 399 917 l 1072 917 l 1072 878 l 653 878 l 653 508 l 1000 508 l 1000 469 l 653 469 l 653 39 l 1086 39 l 1086 0 l 508 0 q 318 34 399 0 q 184 128 238 68 q 104 274 131 189 q 78 461 78 358 m 125 461 q 148 293 125 371 q 219 159 171 215 q 340 71 267 103 q 514 39 413 39 l 608 39 l 608 878 l 514 878 q 340 847 413 878 q 219 760 267 815 q 148 628 171 704 q 125 461 125 551 z "},"Ơ":{"ha":900,"x_min":83,"x_max":828,"o":"m 456 25 q 588 56 528 25 q 691 144 649 88 q 757 282 733 201 q 781 461 781 363 q 757 640 781 560 q 691 776 733 719 q 588 862 649 832 q 456 892 528 892 q 322 862 382 892 q 220 776 263 832 q 154 640 178 719 q 131 461 131 560 q 154 282 131 363 q 220 144 178 201 q 322 56 263 88 q 456 25 382 25 m 781 1061 q 806 989 806 1024 q 769 905 806 936 q 671 858 733 874 q 786 697 744 799 q 828 461 828 596 q 800 265 828 353 q 723 114 772 176 q 605 17 674 51 q 456 -17 536 -17 q 306 17 374 -17 q 188 114 238 51 q 111 265 139 176 q 83 461 83 353 q 111 657 83 569 q 188 806 139 744 q 306 900 238 867 q 456 933 374 933 q 626 889 549 933 q 731 922 697 899 q 764 986 764 946 q 744 1039 764 1011 l 781 1061 z "},"Ớ":{"ha":900,"x_min":83,"x_max":828,"o":"m 456 25 q 588 56 528 25 q 691 144 649 88 q 757 282 733 201 q 781 461 781 363 q 757 640 781 560 q 691 776 733 719 q 588 862 649 832 q 456 892 528 892 q 322 862 382 892 q 220 776 263 832 q 154 640 178 719 q 131 461 131 560 q 154 282 131 363 q 220 144 178 201 q 322 56 263 88 q 456 25 382 25 m 781 1061 q 806 989 806 1024 q 769 905 806 936 q 671 858 733 874 q 786 697 744 799 q 828 461 828 596 q 800 265 828 353 q 723 114 772 176 q 605 17 674 51 q 456 -17 536 -17 q 306 17 374 -17 q 188 114 238 51 q 111 265 139 176 q 83 461 83 353 q 111 657 83 569 q 188 806 139 744 q 306 900 238 867 q 456 933 374 933 q 626 889 549 933 q 731 922 697 899 q 764 986 764 946 q 744 1039 764 1011 l 781 1061 m 447 986 l 406 986 l 536 1131 l 597 1131 l 447 986 z "},"Ờ":{"ha":900,"x_min":83,"x_max":828,"o":"m 456 25 q 588 56 528 25 q 691 144 649 88 q 757 282 733 201 q 781 461 781 363 q 757 640 781 560 q 691 776 733 719 q 588 862 649 832 q 456 892 528 892 q 322 862 382 892 q 220 776 263 832 q 154 640 178 719 q 131 461 131 560 q 154 282 131 363 q 220 144 178 201 q 322 56 263 88 q 456 25 382 25 m 781 1061 q 806 989 806 1024 q 769 905 806 936 q 671 858 733 874 q 786 697 744 799 q 828 461 828 596 q 800 265 828 353 q 723 114 772 176 q 605 17 674 51 q 456 -17 536 -17 q 306 17 374 -17 q 188 114 238 51 q 111 265 139 176 q 83 461 83 353 q 111 657 83 569 q 188 806 139 744 q 306 900 238 867 q 456 933 374 933 q 626 889 549 933 q 731 922 697 899 q 764 986 764 946 q 744 1039 764 1011 l 781 1061 m 303 1131 l 364 1131 l 494 986 l 453 986 l 303 1131 z "},"Ở":{"ha":900,"x_min":83,"x_max":828,"o":"m 456 25 q 588 56 528 25 q 691 144 649 88 q 757 282 733 201 q 781 461 781 363 q 757 640 781 560 q 691 776 733 719 q 588 862 649 832 q 456 892 528 892 q 322 862 382 892 q 220 776 263 832 q 154 640 178 719 q 131 461 131 560 q 154 282 131 363 q 220 144 178 201 q 322 56 263 88 q 456 25 382 25 m 781 1061 q 806 989 806 1024 q 769 905 806 936 q 671 858 733 874 q 786 697 744 799 q 828 461 828 596 q 800 265 828 353 q 723 114 772 176 q 605 17 674 51 q 456 -17 536 -17 q 306 17 374 -17 q 188 114 238 51 q 111 265 139 176 q 83 461 83 353 q 111 657 83 569 q 188 806 139 744 q 306 900 238 867 q 456 933 374 933 q 626 889 549 933 q 731 922 697 899 q 764 986 764 946 q 744 1039 764 1011 l 781 1061 m 408 1008 q 474 1039 449 1021 q 500 1089 500 1057 q 469 1139 500 1122 q 381 1158 438 1156 l 383 1194 q 442 1188 414 1193 q 493 1169 471 1182 q 528 1139 515 1157 q 542 1094 542 1121 q 531 1049 542 1068 q 503 1017 521 1031 q 464 994 486 1004 q 419 978 442 985 l 408 1008 z "},"Ỡ":{"ha":900,"x_min":83,"x_max":828,"o":"m 456 25 q 588 56 528 25 q 691 144 649 88 q 757 282 733 201 q 781 461 781 363 q 757 640 781 560 q 691 776 733 719 q 588 862 649 832 q 456 892 528 892 q 322 862 382 892 q 220 776 263 832 q 154 640 178 719 q 131 461 131 560 q 154 282 131 363 q 220 144 178 201 q 322 56 263 88 q 456 25 382 25 m 781 1061 q 806 989 806 1024 q 769 905 806 936 q 671 858 733 874 q 786 697 744 799 q 828 461 828 596 q 800 265 828 353 q 723 114 772 176 q 605 17 674 51 q 456 -17 536 -17 q 306 17 374 -17 q 188 114 238 51 q 111 265 139 176 q 83 461 83 353 q 111 657 83 569 q 188 806 139 744 q 306 900 238 867 q 456 933 374 933 q 626 889 549 933 q 731 922 697 899 q 764 986 764 946 q 744 1039 764 1011 l 781 1061 m 531 997 q 483 1010 503 997 q 444 1038 463 1022 q 407 1065 425 1053 q 367 1078 389 1078 q 328 1056 343 1078 q 308 997 313 1033 l 278 997 q 285 1038 279 1017 q 301 1077 290 1060 q 329 1106 313 1094 q 369 1117 346 1117 q 417 1104 396 1117 q 456 1076 438 1092 q 493 1049 475 1061 q 533 1036 511 1036 q 572 1058 557 1036 q 592 1117 588 1081 l 622 1117 q 615 1076 621 1097 q 599 1037 610 1054 q 570 1008 588 1019 q 531 997 553 997 z "},"Ợ":{"ha":900,"x_min":83,"x_max":828,"o":"m 456 25 q 588 56 528 25 q 691 144 649 88 q 757 282 733 201 q 781 461 781 363 q 757 640 781 560 q 691 776 733 719 q 588 862 649 832 q 456 892 528 892 q 322 862 382 892 q 220 776 263 832 q 154 640 178 719 q 131 461 131 560 q 154 282 131 363 q 220 144 178 201 q 322 56 263 88 q 456 25 382 25 m 781 1061 q 806 989 806 1024 q 769 905 806 936 q 671 858 733 874 q 786 697 744 799 q 828 461 828 596 q 800 265 828 353 q 723 114 772 176 q 605 17 674 51 q 456 -17 536 -17 q 306 17 374 -17 q 188 114 238 51 q 111 265 139 176 q 83 461 83 353 q 111 657 83 569 q 188 806 139 744 q 306 900 238 867 q 456 933 374 933 q 626 889 549 933 q 731 922 697 899 q 764 986 764 946 q 744 1039 764 1011 l 781 1061 m 450 -264 q 418 -251 431 -264 q 406 -214 406 -237 q 418 -180 406 -193 q 450 -167 431 -167 q 482 -180 469 -167 q 494 -214 494 -193 q 482 -251 494 -237 q 450 -264 469 -264 z "},"Ǫ":{"ha":900,"x_min":78,"x_max":822,"o":"m 383 -169 q 404 -90 383 -129 q 467 -17 425 -50 q 305 16 376 -18 q 183 113 233 50 q 105 264 132 175 q 78 461 78 353 q 106 657 78 569 q 183 806 133 744 q 300 900 232 867 q 450 933 368 933 q 599 900 531 933 q 717 806 668 867 q 794 657 767 744 q 822 461 822 569 q 751 165 822 279 q 542 -11 681 51 q 453 -83 481 -39 q 425 -167 425 -126 q 447 -223 425 -204 q 497 -242 469 -242 q 530 -237 517 -242 q 558 -222 543 -233 l 578 -250 q 539 -272 563 -262 q 494 -281 515 -281 q 416 -253 449 -281 q 383 -169 383 -226 m 450 25 q 583 56 522 25 q 685 144 643 88 q 751 282 728 201 q 775 461 775 363 q 751 640 775 560 q 685 776 728 719 q 583 862 643 832 q 450 892 522 892 q 317 862 376 892 q 215 776 257 832 q 149 640 172 719 q 125 461 125 560 q 149 282 125 363 q 215 144 172 201 q 317 56 257 88 q 450 25 376 25 z "},"Ŕ":{"ha":767,"x_min":139,"x_max":700,"o":"m 375 472 q 571 523 503 472 q 639 681 639 574 q 571 833 639 789 q 375 878 503 878 l 183 878 l 183 472 l 375 472 m 647 0 l 389 433 l 183 433 l 183 0 l 139 0 l 139 917 l 392 917 q 514 903 460 917 q 606 862 568 890 q 665 789 644 833 q 686 681 686 744 q 620 509 686 571 q 439 436 554 447 l 700 0 l 647 0 m 388 986 l 346 986 l 476 1131 l 538 1131 l 388 986 z "},"Ř":{"ha":767,"x_min":139,"x_max":700,"o":"m 375 472 q 571 523 503 472 q 639 681 639 574 q 571 833 639 789 q 375 878 503 878 l 183 878 l 183 472 l 375 472 m 647 0 l 389 433 l 183 433 l 183 0 l 139 0 l 139 917 l 392 917 q 514 903 460 917 q 606 862 568 890 q 665 789 644 833 q 686 681 686 744 q 620 509 686 571 q 439 436 554 447 l 700 0 l 647 0 m 543 1131 l 410 986 l 371 986 l 238 1131 l 279 1131 l 388 1028 l 393 1028 l 501 1131 l 543 1131 z "},"Ŗ":{"ha":767,"x_min":139,"x_max":700,"o":"m 375 472 q 571 523 503 472 q 639 681 639 574 q 571 833 639 789 q 375 878 503 878 l 183 878 l 183 472 l 375 472 m 647 0 l 389 433 l 183 433 l 183 0 l 139 0 l 139 917 l 392 917 q 514 903 460 917 q 606 862 568 890 q 665 789 644 833 q 686 681 686 744 q 620 509 686 571 q 439 436 554 447 l 700 0 l 647 0 m 376 -72 q 457 -108 429 -85 q 485 -172 485 -131 q 471 -218 485 -199 q 434 -251 457 -237 q 381 -274 411 -265 q 321 -286 351 -282 l 313 -250 q 407 -224 371 -242 q 443 -178 443 -207 q 417 -130 443 -144 q 363 -108 392 -115 l 376 -72 l 376 -72 z "},"Ṛ":{"ha":767,"x_min":139,"x_max":700,"o":"m 375 472 q 571 523 503 472 q 639 681 639 574 q 571 833 639 789 q 375 878 503 878 l 183 878 l 183 472 l 375 472 m 647 0 l 389 433 l 183 433 l 183 0 l 139 0 l 139 917 l 392 917 q 514 903 460 917 q 606 862 568 890 q 665 789 644 833 q 686 681 686 744 q 620 509 686 571 q 439 436 554 447 l 700 0 l 647 0 m 410 -264 q 378 -251 390 -264 q 365 -214 365 -237 q 378 -180 365 -193 q 410 -167 390 -167 q 442 -180 429 -167 q 454 -214 454 -193 q 442 -251 454 -237 q 410 -264 429 -264 z "},"Ṝ":{"ha":767,"x_min":139,"x_max":700,"o":"m 375 472 q 571 523 503 472 q 639 681 639 574 q 571 833 639 789 q 375 878 503 878 l 183 878 l 183 472 l 375 472 m 647 0 l 389 433 l 183 433 l 183 0 l 139 0 l 139 917 l 392 917 q 514 903 460 917 q 606 862 568 890 q 665 789 644 833 q 686 681 686 744 q 620 509 686 571 q 439 436 554 447 l 700 0 l 647 0 m 238 1061 l 543 1061 l 543 1022 l 238 1022 l 238 1061 m 410 -264 q 378 -251 390 -264 q 365 -214 365 -237 q 378 -180 365 -193 q 410 -167 390 -167 q 442 -180 429 -167 q 454 -214 454 -193 q 442 -251 454 -237 q 410 -264 429 -264 z "},"Ṟ":{"ha":767,"x_min":139,"x_max":700,"o":"m 375 472 q 571 523 503 472 q 639 681 639 574 q 571 833 639 789 q 375 878 503 878 l 183 878 l 183 472 l 375 472 m 647 0 l 389 433 l 183 433 l 183 0 l 139 0 l 139 917 l 392 917 q 514 903 460 917 q 606 862 568 890 q 665 789 644 833 q 686 681 686 744 q 620 509 686 571 q 439 436 554 447 l 700 0 l 647 0 m 563 -217 l 254 -217 l 254 -178 l 563 -178 l 563 -217 z "},"Ś":{"ha":717,"x_min":67,"x_max":658,"o":"m 97 153 q 218 60 147 94 q 372 25 289 25 q 472 40 428 25 q 548 80 517 54 q 597 142 579 106 q 614 222 614 178 q 600 299 614 268 q 563 353 586 331 q 510 393 540 376 q 444 425 479 410 l 303 489 q 241 519 274 501 q 181 563 208 538 q 135 626 153 589 q 117 714 117 663 q 136 803 117 763 q 190 872 156 843 q 272 917 225 901 q 375 933 319 933 q 522 901 458 933 q 625 825 585 868 l 597 794 q 501 865 557 839 q 375 892 446 892 q 220 844 279 892 q 161 717 161 796 q 177 644 161 674 q 217 592 193 614 q 269 556 242 571 q 322 531 297 542 l 464 467 q 537 430 501 450 q 599 382 572 410 q 642 316 626 354 q 658 225 658 278 q 638 128 658 172 q 579 52 617 85 q 489 1 542 19 q 372 -17 436 -17 q 194 22 269 -17 q 67 122 119 61 l 97 153 m 371 986 l 329 986 l 460 1131 l 521 1131 l 371 986 z "},"Ŝ":{"ha":717,"x_min":67,"x_max":658,"o":"m 97 153 q 218 60 147 94 q 372 25 289 25 q 472 40 428 25 q 548 80 517 54 q 597 142 579 106 q 614 222 614 178 q 600 299 614 268 q 563 353 586 331 q 510 393 540 376 q 444 425 479 410 l 303 489 q 241 519 274 501 q 181 563 208 538 q 135 626 153 589 q 117 714 117 663 q 136 803 117 763 q 190 872 156 843 q 272 917 225 901 q 375 933 319 933 q 522 901 458 933 q 625 825 585 868 l 597 794 q 501 865 557 839 q 375 892 446 892 q 220 844 279 892 q 161 717 161 796 q 177 644 161 674 q 217 592 193 614 q 269 556 242 571 q 322 531 297 542 l 464 467 q 537 430 501 450 q 599 382 572 410 q 642 316 626 354 q 658 225 658 278 q 638 128 658 172 q 579 52 617 85 q 489 1 542 19 q 372 -17 436 -17 q 194 22 269 -17 q 67 122 119 61 l 97 153 m 221 986 l 354 1131 l 393 1131 l 526 986 l 485 986 l 376 1089 l 371 1089 l 263 986 l 221 986 z "},"Š":{"ha":717,"x_min":67,"x_max":658,"o":"m 97 153 q 218 60 147 94 q 372 25 289 25 q 472 40 428 25 q 548 80 517 54 q 597 142 579 106 q 614 222 614 178 q 600 299 614 268 q 563 353 586 331 q 510 393 540 376 q 444 425 479 410 l 303 489 q 241 519 274 501 q 181 563 208 538 q 135 626 153 589 q 117 714 117 663 q 136 803 117 763 q 190 872 156 843 q 272 917 225 901 q 375 933 319 933 q 522 901 458 933 q 625 825 585 868 l 597 794 q 501 865 557 839 q 375 892 446 892 q 220 844 279 892 q 161 717 161 796 q 177 644 161 674 q 217 592 193 614 q 269 556 242 571 q 322 531 297 542 l 464 467 q 537 430 501 450 q 599 382 572 410 q 642 316 626 354 q 658 225 658 278 q 638 128 658 172 q 579 52 617 85 q 489 1 542 19 q 372 -17 436 -17 q 194 22 269 -17 q 67 122 119 61 l 97 153 m 526 1131 l 393 986 l 354 986 l 221 1131 l 263 1131 l 371 1028 l 376 1028 l 485 1131 l 526 1131 z "},"Ş":{"ha":717,"x_min":67,"x_max":658,"o":"m 97 153 q 218 60 147 94 q 372 25 289 25 q 472 40 428 25 q 548 80 517 54 q 597 142 579 106 q 614 222 614 178 q 600 299 614 268 q 563 353 586 331 q 510 393 540 376 q 444 425 479 410 l 303 489 q 241 519 274 501 q 181 563 208 538 q 135 626 153 589 q 117 714 117 663 q 136 803 117 763 q 190 872 156 843 q 272 917 225 901 q 375 933 319 933 q 522 901 458 933 q 625 825 585 868 l 597 794 q 501 865 557 839 q 375 892 446 892 q 220 844 279 892 q 161 717 161 796 q 177 644 161 674 q 217 592 193 614 q 269 556 242 571 q 322 531 297 542 l 464 467 q 537 430 501 450 q 599 382 572 410 q 642 316 626 354 q 658 225 658 278 q 638 128 658 172 q 579 52 617 85 q 489 1 542 19 q 372 -17 436 -17 q 194 22 269 -17 q 67 122 119 61 l 97 153 m 365 3 l 404 3 l 363 -78 q 421 -110 396 -89 q 446 -172 446 -131 q 432 -218 446 -199 q 395 -251 418 -237 q 342 -274 372 -265 q 282 -286 313 -282 l 274 -250 q 368 -224 332 -242 q 404 -178 404 -207 q 377 -129 404 -144 q 310 -103 350 -114 l 365 3 z "},"Ș":{"ha":717,"x_min":67,"x_max":658,"o":"m 97 153 q 218 60 147 94 q 372 25 289 25 q 472 40 428 25 q 548 80 517 54 q 597 142 579 106 q 614 222 614 178 q 600 299 614 268 q 563 353 586 331 q 510 393 540 376 q 444 425 479 410 l 303 489 q 241 519 274 501 q 181 563 208 538 q 135 626 153 589 q 117 714 117 663 q 136 803 117 763 q 190 872 156 843 q 272 917 225 901 q 375 933 319 933 q 522 901 458 933 q 625 825 585 868 l 597 794 q 501 865 557 839 q 375 892 446 892 q 220 844 279 892 q 161 717 161 796 q 177 644 161 674 q 217 592 193 614 q 269 556 242 571 q 322 531 297 542 l 464 467 q 537 430 501 450 q 599 382 572 410 q 642 316 626 354 q 658 225 658 278 q 638 128 658 172 q 579 52 617 85 q 489 1 542 19 q 372 -17 436 -17 q 194 22 269 -17 q 67 122 119 61 l 97 153 m 338 -72 q 418 -108 390 -85 q 446 -172 446 -131 q 432 -218 446 -199 q 395 -251 418 -237 q 342 -274 372 -265 q 282 -286 313 -282 l 274 -250 q 368 -224 332 -242 q 404 -178 404 -207 q 378 -130 404 -144 q 324 -108 353 -115 l 338 -72 l 338 -72 z "},"Ṡ":{"ha":717,"x_min":67,"x_max":658,"o":"m 97 153 q 218 60 147 94 q 372 25 289 25 q 472 40 428 25 q 548 80 517 54 q 597 142 579 106 q 614 222 614 178 q 600 299 614 268 q 563 353 586 331 q 510 393 540 376 q 444 425 479 410 l 303 489 q 241 519 274 501 q 181 563 208 538 q 135 626 153 589 q 117 714 117 663 q 136 803 117 763 q 190 872 156 843 q 272 917 225 901 q 375 933 319 933 q 522 901 458 933 q 625 825 585 868 l 597 794 q 501 865 557 839 q 375 892 446 892 q 220 844 279 892 q 161 717 161 796 q 177 644 161 674 q 217 592 193 614 q 269 556 242 571 q 322 531 297 542 l 464 467 q 537 430 501 450 q 599 382 572 410 q 642 316 626 354 q 658 225 658 278 q 638 128 658 172 q 579 52 617 85 q 489 1 542 19 q 372 -17 436 -17 q 194 22 269 -17 q 67 122 119 61 l 97 153 m 374 1006 q 340 1019 354 1006 q 326 1056 326 1032 q 340 1090 326 1076 q 374 1103 354 1103 q 407 1090 393 1103 q 421 1056 421 1076 q 407 1019 421 1032 q 374 1006 393 1006 z "},"Ṣ":{"ha":717,"x_min":67,"x_max":658,"o":"m 97 153 q 218 60 147 94 q 372 25 289 25 q 472 40 428 25 q 548 80 517 54 q 597 142 579 106 q 614 222 614 178 q 600 299 614 268 q 563 353 586 331 q 510 393 540 376 q 444 425 479 410 l 303 489 q 241 519 274 501 q 181 563 208 538 q 135 626 153 589 q 117 714 117 663 q 136 803 117 763 q 190 872 156 843 q 272 917 225 901 q 375 933 319 933 q 522 901 458 933 q 625 825 585 868 l 597 794 q 501 865 557 839 q 375 892 446 892 q 220 844 279 892 q 161 717 161 796 q 177 644 161 674 q 217 592 193 614 q 269 556 242 571 q 322 531 297 542 l 464 467 q 537 430 501 450 q 599 382 572 410 q 642 316 626 354 q 658 225 658 278 q 638 128 658 172 q 579 52 617 85 q 489 1 542 19 q 372 -17 436 -17 q 194 22 269 -17 q 67 122 119 61 l 97 153 m 371 -264 q 339 -251 351 -264 q 326 -214 326 -237 q 339 -180 326 -193 q 371 -167 351 -167 q 403 -180 390 -167 q 415 -214 415 -193 q 403 -251 415 -237 q 371 -264 390 -264 z "},"ẞ":{"ha":883,"x_min":139,"x_max":819,"o":"m 139 589 q 163 738 139 674 q 231 846 188 803 q 335 911 275 889 q 467 933 396 933 q 629 883 567 933 q 733 750 692 833 l 508 506 q 658 465 597 492 q 753 403 718 439 q 804 322 789 367 q 819 231 819 278 q 800 133 819 178 q 747 54 781 88 q 668 2 714 21 q 569 -17 622 -17 q 434 12 499 -17 q 325 94 369 40 l 358 128 q 454 50 403 75 q 572 25 506 25 q 720 83 668 25 q 772 228 772 140 q 760 306 772 269 q 713 374 747 343 q 617 430 679 406 q 458 469 556 454 l 456 508 l 678 753 q 598 851 650 811 q 464 892 546 892 q 349 873 400 892 q 260 815 297 854 q 203 716 224 776 q 183 572 183 656 l 183 0 l 139 0 l 139 589 z "},"Ť":{"ha":722,"x_min":42,"x_max":681,"o":"m 339 878 l 42 878 l 42 917 l 681 917 l 681 878 l 383 878 l 383 0 l 339 0 l 339 878 m 513 1131 l 379 986 l 340 986 l 207 1131 l 249 1131 l 357 1028 l 363 1028 l 471 1131 l 513 1131 z "},"Ţ":{"ha":722,"x_min":42,"x_max":681,"o":"m 339 878 l 42 878 l 42 917 l 681 917 l 681 878 l 383 878 l 383 0 l 339 0 l 339 878 m 344 3 l 383 3 l 342 -78 q 400 -110 375 -89 q 425 -172 425 -131 q 411 -218 425 -199 q 374 -251 397 -237 q 322 -274 351 -265 q 261 -286 292 -282 l 253 -250 q 347 -224 311 -242 q 383 -178 383 -207 q 356 -129 383 -144 q 289 -103 329 -114 l 344 3 z "},"Ț":{"ha":722,"x_min":42,"x_max":681,"o":"m 339 878 l 42 878 l 42 917 l 681 917 l 681 878 l 383 878 l 383 0 l 339 0 l 339 878 m 329 -72 q 410 -108 382 -85 q 438 -172 438 -131 q 424 -218 438 -199 q 387 -251 410 -237 q 334 -274 364 -265 q 274 -286 304 -282 l 265 -250 q 360 -224 324 -242 q 396 -178 396 -207 q 370 -130 396 -144 q 315 -108 344 -115 l 329 -72 l 329 -72 z "},"Ṭ":{"ha":722,"x_min":42,"x_max":681,"o":"m 339 878 l 42 878 l 42 917 l 681 917 l 681 878 l 383 878 l 383 0 l 339 0 l 339 878 m 363 -264 q 331 -251 343 -264 q 318 -214 318 -237 q 331 -180 318 -193 q 363 -167 343 -167 q 394 -180 382 -167 q 407 -214 407 -193 q 394 -251 407 -237 q 363 -264 382 -264 z "},"Ṯ":{"ha":722,"x_min":42,"x_max":681,"o":"m 339 878 l 42 878 l 42 917 l 681 917 l 681 878 l 383 878 l 383 0 l 339 0 l 339 878 m 515 -217 l 207 -217 l 207 -178 l 515 -178 l 515 -217 z "},"Ù":{"ha":875,"x_min":136,"x_max":739,"o":"m 136 917 l 181 917 l 181 353 q 201 195 181 258 q 258 94 222 132 q 340 41 293 57 q 436 25 386 25 q 535 41 488 25 q 618 94 582 57 q 676 195 654 132 q 697 353 697 258 l 697 917 l 739 917 l 739 342 q 713 166 739 235 q 643 56 686 97 q 546 -1 600 15 q 436 -17 492 -17 q 327 -1 381 -17 q 231 56 274 15 q 163 166 189 97 q 136 342 136 235 l 136 917 m 290 1131 l 351 1131 l 482 986 l 440 986 l 290 1131 z "},"Ú":{"ha":875,"x_min":136,"x_max":739,"o":"m 136 917 l 181 917 l 181 353 q 201 195 181 258 q 258 94 222 132 q 340 41 293 57 q 436 25 386 25 q 535 41 488 25 q 618 94 582 57 q 676 195 654 132 q 697 353 697 258 l 697 917 l 739 917 l 739 342 q 713 166 739 235 q 643 56 686 97 q 546 -1 600 15 q 436 -17 492 -17 q 327 -1 381 -17 q 231 56 274 15 q 163 166 189 97 q 136 342 136 235 l 136 917 m 435 986 l 393 986 l 524 1131 l 585 1131 l 435 986 z "},"Û":{"ha":875,"x_min":136,"x_max":739,"o":"m 136 917 l 181 917 l 181 353 q 201 195 181 258 q 258 94 222 132 q 340 41 293 57 q 436 25 386 25 q 535 41 488 25 q 618 94 582 57 q 676 195 654 132 q 697 353 697 258 l 697 917 l 739 917 l 739 342 q 713 166 739 235 q 643 56 686 97 q 546 -1 600 15 q 436 -17 492 -17 q 327 -1 381 -17 q 231 56 274 15 q 163 166 189 97 q 136 342 136 235 l 136 917 m 285 986 l 418 1131 l 457 1131 l 590 986 l 549 986 l 440 1089 l 435 1089 l 326 986 l 285 986 z "},"Ũ":{"ha":875,"x_min":136,"x_max":739,"o":"m 136 917 l 181 917 l 181 353 q 201 195 181 258 q 258 94 222 132 q 340 41 293 57 q 436 25 386 25 q 535 41 488 25 q 618 94 582 57 q 676 195 654 132 q 697 353 697 258 l 697 917 l 739 917 l 739 342 q 713 166 739 235 q 643 56 686 97 q 546 -1 600 15 q 436 -17 492 -17 q 327 -1 381 -17 q 231 56 274 15 q 163 166 189 97 q 136 342 136 235 l 136 917 m 518 997 q 470 1010 490 997 q 431 1038 450 1022 q 394 1065 413 1053 q 354 1078 376 1078 q 315 1056 331 1078 q 296 997 300 1033 l 265 997 q 272 1038 267 1017 q 289 1077 278 1060 q 317 1106 300 1094 q 357 1117 333 1117 q 404 1104 383 1117 q 444 1076 425 1092 q 481 1049 463 1061 q 521 1036 499 1036 q 560 1058 544 1036 q 579 1117 575 1081 l 610 1117 q 603 1076 608 1097 q 586 1037 597 1054 q 558 1008 575 1019 q 518 997 540 997 z "},"Ü":{"ha":875,"x_min":136,"x_max":739,"o":"m 136 917 l 181 917 l 181 353 q 201 195 181 258 q 258 94 222 132 q 340 41 293 57 q 436 25 386 25 q 535 41 488 25 q 618 94 582 57 q 676 195 654 132 q 697 353 697 258 l 697 917 l 739 917 l 739 342 q 713 166 739 235 q 643 56 686 97 q 546 -1 600 15 q 436 -17 492 -17 q 327 -1 381 -17 q 231 56 274 15 q 163 166 189 97 q 136 342 136 235 l 136 917 m 332 1011 q 300 1023 313 1011 q 288 1056 288 1035 q 300 1088 288 1076 q 332 1100 313 1100 q 364 1088 351 1100 q 376 1056 376 1076 q 364 1023 376 1035 q 332 1011 351 1011 m 543 1011 q 511 1023 524 1011 q 499 1056 499 1035 q 511 1088 499 1076 q 543 1100 524 1100 q 575 1088 563 1100 q 588 1056 588 1076 q 575 1023 588 1035 q 543 1011 563 1011 z "},"Ū":{"ha":875,"x_min":136,"x_max":739,"o":"m 136 917 l 181 917 l 181 353 q 201 195 181 258 q 258 94 222 132 q 340 41 293 57 q 436 25 386 25 q 535 41 488 25 q 618 94 582 57 q 676 195 654 132 q 697 353 697 258 l 697 917 l 739 917 l 739 342 q 713 166 739 235 q 643 56 686 97 q 546 -1 600 15 q 436 -17 492 -17 q 327 -1 381 -17 q 231 56 274 15 q 163 166 189 97 q 136 342 136 235 l 136 917 m 285 1061 l 590 1061 l 590 1022 l 285 1022 l 285 1061 z "},"Ŭ":{"ha":875,"x_min":136,"x_max":739,"o":"m 136 917 l 181 917 l 181 353 q 201 195 181 258 q 258 94 222 132 q 340 41 293 57 q 436 25 386 25 q 535 41 488 25 q 618 94 582 57 q 676 195 654 132 q 697 353 697 258 l 697 917 l 739 917 l 739 342 q 713 166 739 235 q 643 56 686 97 q 546 -1 600 15 q 436 -17 492 -17 q 327 -1 381 -17 q 231 56 274 15 q 163 166 189 97 q 136 342 136 235 l 136 917 m 438 989 q 371 1003 399 989 q 324 1038 343 1017 q 295 1083 306 1058 q 282 1131 285 1108 l 318 1131 q 329 1092 321 1111 q 352 1059 338 1074 q 388 1035 367 1044 q 438 1025 410 1025 q 486 1035 465 1025 q 522 1059 507 1044 q 545 1092 536 1074 q 557 1131 554 1111 l 593 1131 q 580 1083 590 1108 q 551 1038 569 1058 q 504 1003 532 1017 q 438 989 476 989 z "},"Ů":{"ha":875,"x_min":136,"x_max":739,"o":"m 136 917 l 181 917 l 181 353 q 201 195 181 258 q 258 94 222 132 q 340 41 293 57 q 436 25 386 25 q 535 41 488 25 q 618 94 582 57 q 676 195 654 132 q 697 353 697 258 l 697 917 l 739 917 l 739 342 q 713 166 739 235 q 643 56 686 97 q 546 -1 600 15 q 436 -17 492 -17 q 327 -1 381 -17 q 231 56 274 15 q 163 166 189 97 q 136 342 136 235 l 136 917 m 438 972 q 360 1003 392 972 q 329 1083 329 1033 q 360 1164 329 1133 q 438 1194 392 1194 q 514 1164 482 1194 q 546 1083 546 1133 q 514 1003 546 1033 q 438 972 482 972 m 438 1003 q 488 1023 467 1003 q 510 1083 510 1043 q 488 1142 510 1121 q 438 1164 467 1164 q 384 1142 406 1164 q 363 1083 363 1121 q 384 1023 363 1043 q 438 1003 406 1003 z "},"Ű":{"ha":875,"x_min":136,"x_max":739,"o":"m 136 917 l 181 917 l 181 353 q 201 195 181 258 q 258 94 222 132 q 340 41 293 57 q 436 25 386 25 q 535 41 488 25 q 618 94 582 57 q 676 195 654 132 q 697 353 697 258 l 697 917 l 739 917 l 739 342 q 713 166 739 235 q 643 56 686 97 q 546 -1 600 15 q 436 -17 492 -17 q 327 -1 381 -17 q 231 56 274 15 q 163 166 189 97 q 136 342 136 235 l 136 917 m 318 986 l 413 1131 l 465 1131 l 357 986 l 318 986 m 607 1131 l 660 1131 l 551 986 l 513 986 l 607 1131 z "},"Ǔ":{"ha":875,"x_min":136,"x_max":739,"o":"m 136 917 l 181 917 l 181 353 q 201 195 181 258 q 258 94 222 132 q 340 41 293 57 q 436 25 386 25 q 535 41 488 25 q 618 94 582 57 q 676 195 654 132 q 697 353 697 258 l 697 917 l 739 917 l 739 342 q 713 166 739 235 q 643 56 686 97 q 546 -1 600 15 q 436 -17 492 -17 q 327 -1 381 -17 q 231 56 274 15 q 163 166 189 97 q 136 342 136 235 l 136 917 m 590 1131 l 457 986 l 418 986 l 285 1131 l 326 1131 l 435 1028 l 440 1028 l 549 1131 l 590 1131 z "},"Ǖ":{"ha":875,"x_min":136,"x_max":739,"o":"m 136 917 l 181 917 l 181 353 q 201 195 181 258 q 258 94 222 132 q 340 41 293 57 q 436 25 386 25 q 535 41 488 25 q 618 94 582 57 q 676 195 654 132 q 697 353 697 258 l 697 917 l 739 917 l 739 342 q 713 166 739 235 q 643 56 686 97 q 546 -1 600 15 q 436 -17 492 -17 q 327 -1 381 -17 q 231 56 274 15 q 163 166 189 97 q 136 342 136 235 l 136 917 m 285 1222 l 590 1222 l 590 1183 l 285 1183 l 285 1222 m 332 1011 q 300 1023 313 1011 q 288 1056 288 1035 q 300 1088 288 1076 q 332 1100 313 1100 q 364 1088 351 1100 q 376 1056 376 1076 q 364 1023 376 1035 q 332 1011 351 1011 m 543 1011 q 511 1023 524 1011 q 499 1056 499 1035 q 511 1088 499 1076 q 543 1100 524 1100 q 575 1088 563 1100 q 588 1056 588 1076 q 575 1023 588 1035 q 543 1011 563 1011 z "},"Ǘ":{"ha":875,"x_min":136,"x_max":739,"o":"m 136 917 l 181 917 l 181 353 q 201 195 181 258 q 258 94 222 132 q 340 41 293 57 q 436 25 386 25 q 535 41 488 25 q 618 94 582 57 q 676 195 654 132 q 697 353 697 258 l 697 917 l 739 917 l 739 342 q 713 166 739 235 q 643 56 686 97 q 546 -1 600 15 q 436 -17 492 -17 q 327 -1 381 -17 q 231 56 274 15 q 163 166 189 97 q 136 342 136 235 l 136 917 m 526 1292 l 582 1292 l 432 1147 l 393 1147 l 526 1292 m 332 1011 q 300 1023 313 1011 q 288 1056 288 1035 q 300 1088 288 1076 q 332 1100 313 1100 q 364 1088 351 1100 q 376 1056 376 1076 q 364 1023 376 1035 q 332 1011 351 1011 m 543 1011 q 511 1023 524 1011 q 499 1056 499 1035 q 511 1088 499 1076 q 543 1100 524 1100 q 575 1088 563 1100 q 588 1056 588 1076 q 575 1023 588 1035 q 543 1011 563 1011 z "},"Ǚ":{"ha":875,"x_min":136,"x_max":739,"o":"m 136 917 l 181 917 l 181 353 q 201 195 181 258 q 258 94 222 132 q 340 41 293 57 q 436 25 386 25 q 535 41 488 25 q 618 94 582 57 q 676 195 654 132 q 697 353 697 258 l 697 917 l 739 917 l 739 342 q 713 166 739 235 q 643 56 686 97 q 546 -1 600 15 q 436 -17 492 -17 q 327 -1 381 -17 q 231 56 274 15 q 163 166 189 97 q 136 342 136 235 l 136 917 m 332 1011 q 300 1023 313 1011 q 288 1056 288 1035 q 300 1088 288 1076 q 332 1100 313 1100 q 364 1088 351 1100 q 376 1056 376 1076 q 364 1023 376 1035 q 332 1011 351 1011 m 543 1011 q 511 1023 524 1011 q 499 1056 499 1035 q 511 1088 499 1076 q 543 1100 524 1100 q 575 1088 563 1100 q 588 1056 588 1076 q 575 1023 588 1035 q 543 1011 563 1011 m 590 1292 l 457 1147 l 418 1147 l 285 1292 l 326 1292 l 435 1189 l 440 1189 l 549 1292 l 590 1292 z "},"Ǜ":{"ha":875,"x_min":136,"x_max":739,"o":"m 136 917 l 181 917 l 181 353 q 201 195 181 258 q 258 94 222 132 q 340 41 293 57 q 436 25 386 25 q 535 41 488 25 q 618 94 582 57 q 676 195 654 132 q 697 353 697 258 l 697 917 l 739 917 l 739 342 q 713 166 739 235 q 643 56 686 97 q 546 -1 600 15 q 436 -17 492 -17 q 327 -1 381 -17 q 231 56 274 15 q 163 166 189 97 q 136 342 136 235 l 136 917 m 482 1147 l 443 1147 l 293 1292 l 349 1292 l 482 1147 m 543 1011 q 511 1023 524 1011 q 499 1056 499 1035 q 511 1088 499 1076 q 543 1100 524 1100 q 575 1088 563 1100 q 588 1056 588 1076 q 575 1023 588 1035 q 543 1011 563 1011 m 332 1011 q 300 1023 313 1011 q 288 1056 288 1035 q 300 1088 288 1076 q 332 1100 313 1100 q 364 1088 351 1100 q 376 1056 376 1076 q 364 1023 376 1035 q 332 1011 351 1011 z "},"Ụ":{"ha":875,"x_min":136,"x_max":739,"o":"m 136 917 l 181 917 l 181 353 q 201 195 181 258 q 258 94 222 132 q 340 41 293 57 q 436 25 386 25 q 535 41 488 25 q 618 94 582 57 q 676 195 654 132 q 697 353 697 258 l 697 917 l 739 917 l 739 342 q 713 166 739 235 q 643 56 686 97 q 546 -1 600 15 q 436 -17 492 -17 q 327 -1 381 -17 q 231 56 274 15 q 163 166 189 97 q 136 342 136 235 l 136 917 m 438 -264 q 406 -251 418 -264 q 393 -214 393 -237 q 406 -180 393 -193 q 438 -167 418 -167 q 469 -180 457 -167 q 482 -214 482 -193 q 469 -251 482 -237 q 438 -264 457 -264 z "},"Ủ":{"ha":875,"x_min":136,"x_max":739,"o":"m 136 917 l 181 917 l 181 353 q 201 195 181 258 q 258 94 222 132 q 340 41 293 57 q 436 25 386 25 q 535 41 488 25 q 618 94 582 57 q 676 195 654 132 q 697 353 697 258 l 697 917 l 739 917 l 739 342 q 713 166 739 235 q 643 56 686 97 q 546 -1 600 15 q 436 -17 492 -17 q 327 -1 381 -17 q 231 56 274 15 q 163 166 189 97 q 136 342 136 235 l 136 917 m 396 1008 q 462 1039 436 1021 q 488 1089 488 1057 q 456 1139 488 1122 q 368 1158 425 1156 l 371 1194 q 430 1188 401 1193 q 481 1169 458 1182 q 516 1139 503 1157 q 529 1094 529 1121 q 519 1049 529 1068 q 491 1017 508 1031 q 451 994 474 1004 q 407 978 429 985 l 396 1008 z "},"Ų":{"ha":875,"x_min":136,"x_max":739,"o":"m 136 917 l 181 917 l 181 353 q 201 195 181 258 q 258 94 222 132 q 340 41 293 57 q 436 25 386 25 q 535 41 488 25 q 618 94 582 57 q 676 195 654 132 q 697 353 697 258 l 697 917 l 739 917 l 739 342 q 721 194 739 253 q 673 97 703 136 q 605 33 643 57 q 528 -11 567 8 q 440 -85 471 -40 q 408 -167 408 -129 q 431 -223 408 -204 q 481 -242 453 -242 q 513 -237 500 -242 q 542 -222 526 -233 l 561 -250 q 522 -272 546 -262 q 478 -281 499 -281 q 399 -253 432 -281 q 367 -169 367 -226 q 394 -84 367 -118 q 456 -17 422 -50 q 332 -1 390 -18 q 230 57 274 15 q 161 168 186 99 q 136 342 136 238 l 136 917 z "},"Ư":{"ha":889,"x_min":136,"x_max":875,"o":"m 850 1089 q 875 1017 875 1051 q 863 963 875 985 q 833 926 851 942 q 790 901 814 911 q 739 886 765 892 l 739 342 q 713 166 739 235 q 643 56 686 97 q 546 -1 600 15 q 436 -17 492 -17 q 327 -1 381 -17 q 231 56 274 15 q 163 166 189 97 q 136 342 136 235 l 136 917 l 181 917 l 181 353 q 201 195 181 258 q 258 94 222 132 q 340 41 293 57 q 436 25 386 25 q 535 41 488 25 q 618 94 582 57 q 676 195 654 132 q 697 353 697 258 l 697 917 l 700 917 q 802 949 771 925 q 833 1014 833 972 q 814 1067 833 1039 l 850 1089 z "},"Ứ":{"ha":889,"x_min":136,"x_max":875,"o":"m 850 1089 q 875 1017 875 1051 q 863 963 875 985 q 833 926 851 942 q 790 901 814 911 q 739 886 765 892 l 739 342 q 713 166 739 235 q 643 56 686 97 q 546 -1 600 15 q 436 -17 492 -17 q 327 -1 381 -17 q 231 56 274 15 q 163 166 189 97 q 136 342 136 235 l 136 917 l 181 917 l 181 353 q 201 195 181 258 q 258 94 222 132 q 340 41 293 57 q 436 25 386 25 q 535 41 488 25 q 618 94 582 57 q 676 195 654 132 q 697 353 697 258 l 697 917 l 700 917 q 802 949 771 925 q 833 1014 833 972 q 814 1067 833 1039 l 850 1089 m 433 986 l 392 986 l 522 1131 l 583 1131 l 433 986 z "},"Ừ":{"ha":889,"x_min":136,"x_max":875,"o":"m 850 1089 q 875 1017 875 1051 q 863 963 875 985 q 833 926 851 942 q 790 901 814 911 q 739 886 765 892 l 739 342 q 713 166 739 235 q 643 56 686 97 q 546 -1 600 15 q 436 -17 492 -17 q 327 -1 381 -17 q 231 56 274 15 q 163 166 189 97 q 136 342 136 235 l 136 917 l 181 917 l 181 353 q 201 195 181 258 q 258 94 222 132 q 340 41 293 57 q 436 25 386 25 q 535 41 488 25 q 618 94 582 57 q 676 195 654 132 q 697 353 697 258 l 697 917 l 700 917 q 802 949 771 925 q 833 1014 833 972 q 814 1067 833 1039 l 850 1089 m 289 1131 l 350 1131 l 481 986 l 439 986 l 289 1131 z "},"Ử":{"ha":889,"x_min":136,"x_max":875,"o":"m 850 1089 q 875 1017 875 1051 q 863 963 875 985 q 833 926 851 942 q 790 901 814 911 q 739 886 765 892 l 739 342 q 713 166 739 235 q 643 56 686 97 q 546 -1 600 15 q 436 -17 492 -17 q 327 -1 381 -17 q 231 56 274 15 q 163 166 189 97 q 136 342 136 235 l 136 917 l 181 917 l 181 353 q 201 195 181 258 q 258 94 222 132 q 340 41 293 57 q 436 25 386 25 q 535 41 488 25 q 618 94 582 57 q 676 195 654 132 q 697 353 697 258 l 697 917 l 700 917 q 802 949 771 925 q 833 1014 833 972 q 814 1067 833 1039 l 850 1089 m 394 1008 q 460 1039 435 1021 q 486 1089 486 1057 q 455 1139 486 1122 q 367 1158 424 1156 l 369 1194 q 428 1188 400 1193 q 479 1169 457 1182 q 515 1139 501 1157 q 528 1094 528 1121 q 517 1049 528 1068 q 490 1017 507 1031 q 450 994 472 1004 q 406 978 428 985 l 394 1008 z "},"Ữ":{"ha":889,"x_min":136,"x_max":875,"o":"m 850 1089 q 875 1017 875 1051 q 863 963 875 985 q 833 926 851 942 q 790 901 814 911 q 739 886 765 892 l 739 342 q 713 166 739 235 q 643 56 686 97 q 546 -1 600 15 q 436 -17 492 -17 q 327 -1 381 -17 q 231 56 274 15 q 163 166 189 97 q 136 342 136 235 l 136 917 l 181 917 l 181 353 q 201 195 181 258 q 258 94 222 132 q 340 41 293 57 q 436 25 386 25 q 535 41 488 25 q 618 94 582 57 q 676 195 654 132 q 697 353 697 258 l 697 917 l 700 917 q 802 949 771 925 q 833 1014 833 972 q 814 1067 833 1039 l 850 1089 m 517 997 q 469 1010 489 997 q 430 1038 449 1022 q 393 1065 411 1053 q 353 1078 375 1078 q 314 1056 329 1078 q 294 997 299 1033 l 264 997 q 271 1038 265 1017 q 288 1077 276 1060 q 315 1106 299 1094 q 356 1117 332 1117 q 403 1104 382 1117 q 442 1076 424 1092 q 479 1049 461 1061 q 519 1036 497 1036 q 558 1058 543 1036 q 578 1117 574 1081 l 608 1117 q 601 1076 607 1097 q 585 1037 596 1054 q 556 1008 574 1019 q 517 997 539 997 z "},"Ự":{"ha":889,"x_min":136,"x_max":875,"o":"m 850 1089 q 875 1017 875 1051 q 863 963 875 985 q 833 926 851 942 q 790 901 814 911 q 739 886 765 892 l 739 342 q 713 166 739 235 q 643 56 686 97 q 546 -1 600 15 q 436 -17 492 -17 q 327 -1 381 -17 q 231 56 274 15 q 163 166 189 97 q 136 342 136 235 l 136 917 l 181 917 l 181 353 q 201 195 181 258 q 258 94 222 132 q 340 41 293 57 q 436 25 386 25 q 535 41 488 25 q 618 94 582 57 q 676 195 654 132 q 697 353 697 258 l 697 917 l 700 917 q 802 949 771 925 q 833 1014 833 972 q 814 1067 833 1039 l 850 1089 m 436 -264 q 404 -251 417 -264 q 392 -214 392 -237 q 404 -180 392 -193 q 436 -167 417 -167 q 468 -180 456 -167 q 481 -214 481 -193 q 468 -251 481 -237 q 436 -264 456 -264 z "},"Ẁ":{"ha":1061,"x_min":42,"x_max":1017,"o":"m 42 917 l 89 917 l 211 361 l 278 61 l 283 61 q 318 211 300 136 q 356 361 336 286 l 506 917 l 556 917 l 706 361 l 781 61 l 786 61 q 818 211 803 136 q 850 361 833 286 l 972 917 l 1017 917 l 806 0 l 761 0 l 583 658 q 558 761 571 713 q 533 864 546 810 l 528 864 q 501 761 515 810 q 475 658 488 713 l 300 0 l 256 0 l 42 917 m 383 1131 l 444 1131 l 575 986 l 533 986 l 383 1131 z "},"Ẃ":{"ha":1061,"x_min":42,"x_max":1017,"o":"m 42 917 l 89 917 l 211 361 l 278 61 l 283 61 q 318 211 300 136 q 356 361 336 286 l 506 917 l 556 917 l 706 361 l 781 61 l 786 61 q 818 211 803 136 q 850 361 833 286 l 972 917 l 1017 917 l 806 0 l 761 0 l 583 658 q 558 761 571 713 q 533 864 546 810 l 528 864 q 501 761 515 810 q 475 658 488 713 l 300 0 l 256 0 l 42 917 m 528 986 l 486 986 l 617 1131 l 678 1131 l 528 986 z "},"Ŵ":{"ha":1061,"x_min":42,"x_max":1017,"o":"m 42 917 l 89 917 l 211 361 l 278 61 l 283 61 q 318 211 300 136 q 356 361 336 286 l 506 917 l 556 917 l 706 361 l 781 61 l 786 61 q 818 211 803 136 q 850 361 833 286 l 972 917 l 1017 917 l 806 0 l 761 0 l 583 658 q 558 761 571 713 q 533 864 546 810 l 528 864 q 501 761 515 810 q 475 658 488 713 l 300 0 l 256 0 l 42 917 m 378 986 l 511 1131 l 550 1131 l 683 986 l 642 986 l 533 1089 l 528 1089 l 419 986 l 378 986 z "},"Ẅ":{"ha":1061,"x_min":42,"x_max":1017,"o":"m 42 917 l 89 917 l 211 361 l 278 61 l 283 61 q 318 211 300 136 q 356 361 336 286 l 506 917 l 556 917 l 706 361 l 781 61 l 786 61 q 818 211 803 136 q 850 361 833 286 l 972 917 l 1017 917 l 806 0 l 761 0 l 583 658 q 558 761 571 713 q 533 864 546 810 l 528 864 q 501 761 515 810 q 475 658 488 713 l 300 0 l 256 0 l 42 917 m 425 1011 q 393 1023 406 1011 q 381 1056 381 1035 q 393 1088 381 1076 q 425 1100 406 1100 q 457 1088 444 1100 q 469 1056 469 1076 q 457 1023 469 1035 q 425 1011 444 1011 m 636 1011 q 604 1023 617 1011 q 592 1056 592 1035 q 604 1088 592 1076 q 636 1100 617 1100 q 668 1088 656 1100 q 681 1056 681 1076 q 668 1023 681 1035 q 636 1011 656 1011 z "},"Ỳ":{"ha":606,"x_min":6,"x_max":600,"o":"m 281 378 l 6 917 l 53 917 l 200 619 q 249 521 225 569 q 300 422 272 472 l 306 422 q 359 521 333 472 q 408 619 385 569 l 556 917 l 600 917 l 325 378 l 325 0 l 281 0 l 281 378 m 156 1131 l 217 1131 l 347 986 l 306 986 l 156 1131 z "},"Ý":{"ha":606,"x_min":6,"x_max":600,"o":"m 281 378 l 6 917 l 53 917 l 200 619 q 249 521 225 569 q 300 422 272 472 l 306 422 q 359 521 333 472 q 408 619 385 569 l 556 917 l 600 917 l 325 378 l 325 0 l 281 0 l 281 378 m 300 986 l 258 986 l 389 1131 l 450 1131 l 300 986 z "},"Ŷ":{"ha":606,"x_min":6,"x_max":600,"o":"m 281 378 l 6 917 l 53 917 l 200 619 q 249 521 225 569 q 300 422 272 472 l 306 422 q 359 521 333 472 q 408 619 385 569 l 556 917 l 600 917 l 325 378 l 325 0 l 281 0 l 281 378 m 150 986 l 283 1131 l 322 1131 l 456 986 l 414 986 l 306 1089 l 300 1089 l 192 986 l 150 986 z "},"Ÿ":{"ha":606,"x_min":6,"x_max":600,"o":"m 281 378 l 6 917 l 53 917 l 200 619 q 249 521 225 569 q 300 422 272 472 l 306 422 q 359 521 333 472 q 408 619 385 569 l 556 917 l 600 917 l 325 378 l 325 0 l 281 0 l 281 378 m 197 1011 q 165 1023 178 1011 q 153 1056 153 1035 q 165 1088 153 1076 q 197 1100 178 1100 q 229 1088 217 1100 q 242 1056 242 1076 q 229 1023 242 1035 q 197 1011 217 1011 m 408 1011 q 376 1023 389 1011 q 364 1056 364 1035 q 376 1088 364 1076 q 408 1100 389 1100 q 440 1088 428 1100 q 453 1056 453 1076 q 440 1023 453 1035 q 408 1011 428 1011 z "},"Ẏ":{"ha":606,"x_min":6,"x_max":600,"o":"m 281 378 l 6 917 l 53 917 l 200 619 q 249 521 225 569 q 300 422 272 472 l 306 422 q 359 521 333 472 q 408 619 385 569 l 556 917 l 600 917 l 325 378 l 325 0 l 281 0 l 281 378 m 303 1006 q 269 1019 283 1006 q 256 1056 256 1032 q 269 1090 256 1076 q 303 1103 283 1103 q 336 1090 322 1103 q 350 1056 350 1076 q 336 1019 350 1032 q 303 1006 322 1006 z "},"Ỵ":{"ha":606,"x_min":6,"x_max":600,"o":"m 281 378 l 6 917 l 53 917 l 200 619 q 249 521 225 569 q 300 422 272 472 l 306 422 q 359 521 333 472 q 408 619 385 569 l 556 917 l 600 917 l 325 378 l 325 0 l 281 0 l 281 378 m 306 -264 q 274 -251 286 -264 q 261 -214 261 -237 q 274 -180 261 -193 q 306 -167 286 -167 q 338 -180 325 -167 q 350 -214 350 -193 q 338 -251 350 -237 q 306 -264 325 -264 z "},"Ỷ":{"ha":606,"x_min":6,"x_max":600,"o":"m 281 378 l 6 917 l 53 917 l 200 619 q 249 521 225 569 q 300 422 272 472 l 306 422 q 359 521 333 472 q 408 619 385 569 l 556 917 l 600 917 l 325 378 l 325 0 l 281 0 l 281 378 m 261 1008 q 327 1039 301 1021 q 353 1089 353 1057 q 322 1139 353 1122 q 233 1158 290 1156 l 236 1194 q 295 1188 267 1193 q 346 1169 324 1182 q 381 1139 368 1157 q 394 1094 394 1121 q 384 1049 394 1068 q 356 1017 374 1031 q 317 994 339 1004 q 272 978 294 985 l 261 1008 z "},"Ỹ":{"ha":606,"x_min":6,"x_max":600,"o":"m 281 378 l 6 917 l 53 917 l 200 619 q 249 521 225 569 q 300 422 272 472 l 306 422 q 359 521 333 472 q 408 619 385 569 l 556 917 l 600 917 l 325 378 l 325 0 l 281 0 l 281 378 m 383 997 q 335 1010 356 997 q 297 1038 315 1022 q 260 1065 278 1053 q 219 1078 242 1078 q 181 1056 196 1078 q 161 997 165 1033 l 131 997 q 138 1038 132 1017 q 154 1077 143 1060 q 182 1106 165 1094 q 222 1117 199 1117 q 269 1104 249 1117 q 309 1076 290 1092 q 346 1049 328 1061 q 386 1036 364 1036 q 425 1058 410 1036 q 444 1117 440 1081 l 475 1117 q 468 1076 474 1097 q 451 1037 463 1054 q 423 1008 440 1019 q 383 997 406 997 z "},"Ź":{"ha":747,"x_min":72,"x_max":678,"o":"m 72 25 l 617 878 l 119 878 l 119 917 l 672 917 l 672 892 l 128 39 l 678 39 l 678 0 l 72 0 l 72 25 m 385 986 l 343 986 l 474 1131 l 535 1131 l 385 986 z "},"Ž":{"ha":747,"x_min":72,"x_max":678,"o":"m 72 25 l 617 878 l 119 878 l 119 917 l 672 917 l 672 892 l 128 39 l 678 39 l 678 0 l 72 0 l 72 25 m 540 1131 l 407 986 l 368 986 l 235 1131 l 276 1131 l 385 1028 l 390 1028 l 499 1131 l 540 1131 z "},"Ż":{"ha":747,"x_min":72,"x_max":678,"o":"m 72 25 l 617 878 l 119 878 l 119 917 l 672 917 l 672 892 l 128 39 l 678 39 l 678 0 l 72 0 l 72 25 m 388 1006 q 354 1019 368 1006 q 340 1056 340 1032 q 354 1090 340 1076 q 388 1103 368 1103 q 421 1090 407 1103 q 435 1056 435 1076 q 421 1019 435 1032 q 388 1006 407 1006 z "},"Ẓ":{"ha":747,"x_min":72,"x_max":678,"o":"m 72 25 l 617 878 l 119 878 l 119 917 l 672 917 l 672 892 l 128 39 l 678 39 l 678 0 l 72 0 l 72 25 m 390 -264 q 358 -251 371 -264 q 346 -214 346 -237 q 358 -180 346 -193 q 390 -167 371 -167 q 422 -180 410 -167 q 435 -214 435 -193 q 422 -251 435 -237 q 390 -264 410 -264 z "},"Ð":{"ha":861,"x_min":53,"x_max":783,"o":"m 367 39 q 534 71 464 39 q 649 159 604 103 q 715 293 694 215 q 736 461 736 371 q 715 628 736 551 q 649 760 694 704 q 534 847 604 815 q 367 878 464 878 l 211 878 l 211 506 l 444 506 l 444 467 l 211 467 l 211 39 l 367 39 m 372 917 q 556 884 478 917 q 684 791 633 851 q 759 647 735 731 q 783 461 783 563 q 759 274 783 358 q 684 128 735 189 q 556 34 633 68 q 372 0 478 0 l 167 0 l 167 467 l 53 467 l 53 503 l 167 506 l 167 917 l 372 917 z "},"Þ":{"ha":772,"x_min":139,"x_max":700,"o":"m 139 917 l 183 917 l 183 750 l 378 750 q 616 694 532 750 q 700 500 700 638 q 617 303 700 368 q 378 239 533 239 l 183 239 l 183 0 l 139 0 l 139 917 m 361 278 q 581 329 510 278 q 653 500 653 381 q 581 666 653 621 q 361 711 508 711 l 183 711 l 183 278 l 361 278 z "},"Ə":{"ha":894,"x_min":89,"x_max":817,"o":"m 133 422 q 162 258 138 332 q 226 131 186 183 q 322 51 267 79 q 444 22 378 22 q 573 51 515 22 q 673 132 631 79 q 741 258 715 185 q 771 422 767 332 l 133 422 m 186 831 q 299 904 231 875 q 450 933 367 933 q 604 900 536 933 q 719 806 672 867 q 792 657 767 744 q 817 461 817 569 q 790 265 817 353 q 713 114 763 176 q 595 17 664 51 q 444 -17 526 -17 q 297 19 363 -17 q 185 117 231 54 q 114 265 139 179 q 89 453 89 351 l 89 461 l 772 461 q 751 639 772 558 q 688 776 729 719 q 588 863 647 832 q 453 894 529 894 q 319 869 382 894 q 211 800 256 844 l 186 831 z "},"à":{"ha":686,"x_min":94,"x_max":572,"o":"m 94 163 q 200 331 94 274 q 531 414 306 389 q 526 495 532 454 q 501 569 519 536 q 451 622 483 601 q 367 642 418 642 q 299 634 331 642 q 239 614 267 626 q 188 588 211 601 q 150 561 165 574 l 128 594 q 167 621 143 606 q 223 649 192 636 q 292 672 254 663 q 369 681 329 681 q 467 660 428 681 q 529 606 506 640 q 563 526 553 571 q 572 431 572 481 l 572 0 l 536 0 l 531 89 l 528 89 q 414 15 475 47 q 286 -17 353 -17 q 213 -6 247 -17 q 151 26 178 4 q 110 81 125 47 q 94 163 94 115 m 139 164 q 151 98 139 125 q 183 54 163 71 q 231 30 204 38 q 289 22 258 22 q 407 51 350 22 q 531 136 464 79 l 531 378 q 346 347 421 365 q 225 301 271 328 q 159 241 179 275 q 139 164 139 207 m 250 981 l 306 981 l 433 794 l 394 794 l 250 981 z "},"á":{"ha":686,"x_min":94,"x_max":572,"o":"m 94 163 q 200 331 94 274 q 531 414 306 389 q 526 495 532 454 q 501 569 519 536 q 451 622 483 601 q 367 642 418 642 q 299 634 331 642 q 239 614 267 626 q 188 588 211 601 q 150 561 165 574 l 128 594 q 167 621 143 606 q 223 649 192 636 q 292 672 254 663 q 369 681 329 681 q 467 660 428 681 q 529 606 506 640 q 563 526 553 571 q 572 431 572 481 l 572 0 l 536 0 l 531 89 l 528 89 q 414 15 475 47 q 286 -17 353 -17 q 213 -6 247 -17 q 151 26 178 4 q 110 81 125 47 q 94 163 94 115 m 139 164 q 151 98 139 125 q 183 54 163 71 q 231 30 204 38 q 289 22 258 22 q 407 51 350 22 q 531 136 464 79 l 531 378 q 346 347 421 365 q 225 301 271 328 q 159 241 179 275 q 139 164 139 207 m 328 794 l 289 794 l 417 981 l 472 981 l 328 794 z "},"â":{"ha":686,"x_min":94,"x_max":572,"o":"m 94 163 q 200 331 94 274 q 531 414 306 389 q 526 495 532 454 q 501 569 519 536 q 451 622 483 601 q 367 642 418 642 q 299 634 331 642 q 239 614 267 626 q 188 588 211 601 q 150 561 165 574 l 128 594 q 167 621 143 606 q 223 649 192 636 q 292 672 254 663 q 369 681 329 681 q 467 660 428 681 q 529 606 506 640 q 563 526 553 571 q 572 431 572 481 l 572 0 l 536 0 l 531 89 l 528 89 q 414 15 475 47 q 286 -17 353 -17 q 213 -6 247 -17 q 151 26 178 4 q 110 81 125 47 q 94 163 94 115 m 139 164 q 151 98 139 125 q 183 54 163 71 q 231 30 204 38 q 289 22 258 22 q 407 51 350 22 q 531 136 464 79 l 531 378 q 346 347 421 365 q 225 301 271 328 q 159 241 179 275 q 139 164 139 207 m 342 981 l 381 981 l 511 794 l 472 794 l 364 936 l 358 936 l 250 794 l 211 794 l 342 981 z "},"ã":{"ha":686,"x_min":94,"x_max":572,"o":"m 94 163 q 200 331 94 274 q 531 414 306 389 q 526 495 532 454 q 501 569 519 536 q 451 622 483 601 q 367 642 418 642 q 299 634 331 642 q 239 614 267 626 q 188 588 211 601 q 150 561 165 574 l 128 594 q 167 621 143 606 q 223 649 192 636 q 292 672 254 663 q 369 681 329 681 q 467 660 428 681 q 529 606 506 640 q 563 526 553 571 q 572 431 572 481 l 572 0 l 536 0 l 531 89 l 528 89 q 414 15 475 47 q 286 -17 353 -17 q 213 -6 247 -17 q 151 26 178 4 q 110 81 125 47 q 94 163 94 115 m 139 164 q 151 98 139 125 q 183 54 163 71 q 231 30 204 38 q 289 22 258 22 q 407 51 350 22 q 531 136 464 79 l 531 378 q 346 347 421 365 q 225 301 271 328 q 159 241 179 275 q 139 164 139 207 m 197 808 q 203 847 199 826 q 219 883 208 867 q 245 911 229 900 q 286 922 261 922 q 331 910 311 922 q 369 883 351 897 q 404 856 388 868 q 439 844 421 844 q 475 865 463 844 q 492 922 488 886 l 525 922 q 519 884 524 904 q 503 847 514 864 q 477 819 493 831 q 436 808 461 808 q 392 820 411 808 q 354 847 372 832 q 319 874 336 861 q 283 886 303 886 q 247 865 260 886 q 231 808 235 844 l 197 808 l 197 808 z "},"ä":{"ha":686,"x_min":94,"x_max":572,"o":"m 94 163 q 200 331 94 274 q 531 414 306 389 q 526 495 532 454 q 501 569 519 536 q 451 622 483 601 q 367 642 418 642 q 299 634 331 642 q 239 614 267 626 q 188 588 211 601 q 150 561 165 574 l 128 594 q 167 621 143 606 q 223 649 192 636 q 292 672 254 663 q 369 681 329 681 q 467 660 428 681 q 529 606 506 640 q 563 526 553 571 q 572 431 572 481 l 572 0 l 536 0 l 531 89 l 528 89 q 414 15 475 47 q 286 -17 353 -17 q 213 -6 247 -17 q 151 26 178 4 q 110 81 125 47 q 94 163 94 115 m 139 164 q 151 98 139 125 q 183 54 163 71 q 231 30 204 38 q 289 22 258 22 q 407 51 350 22 q 531 136 464 79 l 531 378 q 346 347 421 365 q 225 301 271 328 q 159 241 179 275 q 139 164 139 207 m 256 836 q 224 849 236 836 q 211 881 211 861 q 224 913 211 900 q 256 925 236 925 q 288 913 275 925 q 300 881 300 900 q 288 849 300 861 q 256 836 275 836 m 467 836 q 435 849 447 836 q 422 881 422 861 q 435 913 422 900 q 467 925 447 925 q 499 913 486 925 q 511 881 511 900 q 499 849 511 861 q 467 836 486 836 z "},"ā":{"ha":686,"x_min":94,"x_max":572,"o":"m 94 163 q 200 331 94 274 q 531 414 306 389 q 526 495 532 454 q 501 569 519 536 q 451 622 483 601 q 367 642 418 642 q 299 634 331 642 q 239 614 267 626 q 188 588 211 601 q 150 561 165 574 l 128 594 q 167 621 143 606 q 223 649 192 636 q 292 672 254 663 q 369 681 329 681 q 467 660 428 681 q 529 606 506 640 q 563 526 553 571 q 572 431 572 481 l 572 0 l 536 0 l 531 89 l 528 89 q 414 15 475 47 q 286 -17 353 -17 q 213 -6 247 -17 q 151 26 178 4 q 110 81 125 47 q 94 163 94 115 m 139 164 q 151 98 139 125 q 183 54 163 71 q 231 30 204 38 q 289 22 258 22 q 407 51 350 22 q 531 136 464 79 l 531 378 q 346 347 421 365 q 225 301 271 328 q 159 241 179 275 q 139 164 139 207 m 208 883 l 514 883 l 514 844 l 208 844 l 208 883 z "},"ă":{"ha":686,"x_min":94,"x_max":572,"o":"m 94 163 q 200 331 94 274 q 531 414 306 389 q 526 495 532 454 q 501 569 519 536 q 451 622 483 601 q 367 642 418 642 q 299 634 331 642 q 239 614 267 626 q 188 588 211 601 q 150 561 165 574 l 128 594 q 167 621 143 606 q 223 649 192 636 q 292 672 254 663 q 369 681 329 681 q 467 660 428 681 q 529 606 506 640 q 563 526 553 571 q 572 431 572 481 l 572 0 l 536 0 l 531 89 l 528 89 q 414 15 475 47 q 286 -17 353 -17 q 213 -6 247 -17 q 151 26 178 4 q 110 81 125 47 q 94 163 94 115 m 139 164 q 151 98 139 125 q 183 54 163 71 q 231 30 204 38 q 289 22 258 22 q 407 51 350 22 q 531 136 464 79 l 531 378 q 346 347 421 365 q 225 301 271 328 q 159 241 179 275 q 139 164 139 207 m 361 800 q 290 816 319 800 q 242 856 261 832 q 213 908 224 879 q 200 961 203 936 l 236 961 q 248 915 239 938 q 272 876 257 893 q 310 847 288 858 q 361 836 332 836 q 413 847 390 836 q 450 876 435 858 q 474 915 465 893 q 486 961 483 938 l 522 961 q 509 908 519 936 q 480 856 499 879 q 432 816 461 832 q 361 800 403 800 z "},"å":{"ha":686,"x_min":94,"x_max":572,"o":"m 94 163 q 200 331 94 274 q 531 414 306 389 q 526 495 532 454 q 501 569 519 536 q 451 622 483 601 q 367 642 418 642 q 299 634 331 642 q 239 614 267 626 q 188 588 211 601 q 150 561 165 574 l 128 594 q 167 621 143 606 q 223 649 192 636 q 292 672 254 663 q 369 681 329 681 q 467 660 428 681 q 529 606 506 640 q 563 526 553 571 q 572 431 572 481 l 572 0 l 536 0 l 531 89 l 528 89 q 414 15 475 47 q 286 -17 353 -17 q 213 -6 247 -17 q 151 26 178 4 q 110 81 125 47 q 94 163 94 115 m 139 164 q 151 98 139 125 q 183 54 163 71 q 231 30 204 38 q 289 22 258 22 q 407 51 350 22 q 531 136 464 79 l 531 378 q 346 347 421 365 q 225 301 271 328 q 159 241 179 275 q 139 164 139 207 m 361 747 q 284 779 315 747 q 253 864 253 811 q 284 949 253 917 q 361 981 315 981 q 438 949 407 981 q 469 864 469 917 q 438 779 469 811 q 361 747 407 747 m 361 778 q 415 801 393 778 q 436 864 436 824 q 415 927 436 904 q 361 950 393 950 q 308 927 329 950 q 286 864 286 904 q 308 801 286 824 q 361 778 329 778 z "},"ǎ":{"ha":686,"x_min":94,"x_max":572,"o":"m 94 163 q 200 331 94 274 q 531 414 306 389 q 526 495 532 454 q 501 569 519 536 q 451 622 483 601 q 367 642 418 642 q 299 634 331 642 q 239 614 267 626 q 188 588 211 601 q 150 561 165 574 l 128 594 q 167 621 143 606 q 223 649 192 636 q 292 672 254 663 q 369 681 329 681 q 467 660 428 681 q 529 606 506 640 q 563 526 553 571 q 572 431 572 481 l 572 0 l 536 0 l 531 89 l 528 89 q 414 15 475 47 q 286 -17 353 -17 q 213 -6 247 -17 q 151 26 178 4 q 110 81 125 47 q 94 163 94 115 m 139 164 q 151 98 139 125 q 183 54 163 71 q 231 30 204 38 q 289 22 258 22 q 407 51 350 22 q 531 136 464 79 l 531 378 q 346 347 421 365 q 225 301 271 328 q 159 241 179 275 q 139 164 139 207 m 211 981 l 250 981 l 358 839 l 364 839 l 472 981 l 511 981 l 381 794 l 342 794 l 211 981 z "},"ạ":{"ha":686,"x_min":94,"x_max":572,"o":"m 94 163 q 200 331 94 274 q 531 414 306 389 q 526 495 532 454 q 501 569 519 536 q 451 622 483 601 q 367 642 418 642 q 299 634 331 642 q 239 614 267 626 q 188 588 211 601 q 150 561 165 574 l 128 594 q 167 621 143 606 q 223 649 192 636 q 292 672 254 663 q 369 681 329 681 q 467 660 428 681 q 529 606 506 640 q 563 526 553 571 q 572 431 572 481 l 572 0 l 536 0 l 531 89 l 528 89 q 414 15 475 47 q 286 -17 353 -17 q 213 -6 247 -17 q 151 26 178 4 q 110 81 125 47 q 94 163 94 115 m 139 164 q 151 98 139 125 q 183 54 163 71 q 231 30 204 38 q 289 22 258 22 q 407 51 350 22 q 531 136 464 79 l 531 378 q 346 347 421 365 q 225 301 271 328 q 159 241 179 275 q 139 164 139 207 m 339 -264 q 307 -251 319 -264 q 294 -214 294 -237 q 307 -180 294 -193 q 339 -167 319 -167 q 371 -180 358 -167 q 383 -214 383 -193 q 371 -251 383 -237 q 339 -264 358 -264 z "},"ả":{"ha":686,"x_min":94,"x_max":572,"o":"m 94 163 q 200 331 94 274 q 531 414 306 389 q 526 495 532 454 q 501 569 519 536 q 451 622 483 601 q 367 642 418 642 q 299 634 331 642 q 239 614 267 626 q 188 588 211 601 q 150 561 165 574 l 128 594 q 167 621 143 606 q 223 649 192 636 q 292 672 254 663 q 369 681 329 681 q 467 660 428 681 q 529 606 506 640 q 563 526 553 571 q 572 431 572 481 l 572 0 l 536 0 l 531 89 l 528 89 q 414 15 475 47 q 286 -17 353 -17 q 213 -6 247 -17 q 151 26 178 4 q 110 81 125 47 q 94 163 94 115 m 139 164 q 151 98 139 125 q 183 54 163 71 q 231 30 204 38 q 289 22 258 22 q 407 51 350 22 q 531 136 464 79 l 531 378 q 346 347 421 365 q 225 301 271 328 q 159 241 179 275 q 139 164 139 207 m 319 794 q 385 825 360 807 q 411 875 411 843 q 380 925 411 908 q 292 944 349 942 l 294 981 q 353 974 325 979 q 404 956 382 968 q 440 925 426 943 q 453 881 453 907 q 442 835 453 854 q 415 803 432 817 q 375 781 397 790 q 331 764 353 771 l 319 794 z "},"ấ":{"ha":686,"x_min":94,"x_max":625,"o":"m 94 163 q 200 331 94 274 q 531 414 306 389 q 526 495 532 454 q 501 569 519 536 q 451 622 483 601 q 367 642 418 642 q 299 634 331 642 q 239 614 267 626 q 188 588 211 601 q 150 561 165 574 l 128 594 q 167 621 143 606 q 223 649 192 636 q 292 672 254 663 q 369 681 329 681 q 467 660 428 681 q 529 606 506 640 q 563 526 553 571 q 572 431 572 481 l 572 0 l 536 0 l 531 89 l 528 89 q 414 15 475 47 q 286 -17 353 -17 q 213 -6 247 -17 q 151 26 178 4 q 110 81 125 47 q 94 163 94 115 m 139 164 q 151 98 139 125 q 183 54 163 71 q 231 30 204 38 q 289 22 258 22 q 407 51 350 22 q 531 136 464 79 l 531 378 q 346 347 421 365 q 225 301 271 328 q 159 241 179 275 q 139 164 139 207 m 342 950 l 381 950 l 497 794 l 458 794 l 364 906 l 358 906 l 264 794 l 225 794 l 342 950 m 572 1036 l 625 1036 l 500 883 l 464 883 l 572 1036 z "},"ầ":{"ha":686,"x_min":94,"x_max":586,"o":"m 94 163 q 200 331 94 274 q 531 414 306 389 q 526 495 532 454 q 501 569 519 536 q 451 622 483 601 q 367 642 418 642 q 299 634 331 642 q 239 614 267 626 q 188 588 211 601 q 150 561 165 574 l 128 594 q 167 621 143 606 q 223 649 192 636 q 292 672 254 663 q 369 681 329 681 q 467 660 428 681 q 529 606 506 640 q 563 526 553 571 q 572 431 572 481 l 572 0 l 536 0 l 531 89 l 528 89 q 414 15 475 47 q 286 -17 353 -17 q 213 -6 247 -17 q 151 26 178 4 q 110 81 125 47 q 94 163 94 115 m 139 164 q 151 98 139 125 q 183 54 163 71 q 231 30 204 38 q 289 22 258 22 q 407 51 350 22 q 531 136 464 79 l 531 378 q 346 347 421 365 q 225 301 271 328 q 159 241 179 275 q 139 164 139 207 m 342 950 l 381 950 l 497 794 l 458 794 l 364 906 l 358 906 l 264 794 l 225 794 l 342 950 m 586 883 l 550 883 l 425 1036 l 478 1036 l 586 883 z "},"ẩ":{"ha":686,"x_min":94,"x_max":600,"o":"m 94 163 q 200 331 94 274 q 531 414 306 389 q 526 495 532 454 q 501 569 519 536 q 451 622 483 601 q 367 642 418 642 q 299 634 331 642 q 239 614 267 626 q 188 588 211 601 q 150 561 165 574 l 128 594 q 167 621 143 606 q 223 649 192 636 q 292 672 254 663 q 369 681 329 681 q 467 660 428 681 q 529 606 506 640 q 563 526 553 571 q 572 431 572 481 l 572 0 l 536 0 l 531 89 l 528 89 q 414 15 475 47 q 286 -17 353 -17 q 213 -6 247 -17 q 151 26 178 4 q 110 81 125 47 q 94 163 94 115 m 139 164 q 151 98 139 125 q 183 54 163 71 q 231 30 204 38 q 289 22 258 22 q 407 51 350 22 q 531 136 464 79 l 531 378 q 346 347 421 365 q 225 301 271 328 q 159 241 179 275 q 139 164 139 207 m 342 950 l 381 950 l 497 794 l 458 794 l 364 906 l 358 906 l 264 794 l 225 794 l 342 950 m 486 903 q 538 929 518 914 q 558 969 558 944 q 533 1018 558 1003 q 458 1036 508 1033 l 461 1069 q 513 1063 488 1068 q 558 1046 539 1057 q 588 1017 576 1035 q 600 975 600 1000 q 590 935 600 951 q 566 907 581 919 q 533 886 551 894 q 497 872 515 878 l 486 903 z "},"ẫ":{"ha":686,"x_min":94,"x_max":572,"o":"m 94 163 q 200 331 94 274 q 531 414 306 389 q 526 495 532 454 q 501 569 519 536 q 451 622 483 601 q 367 642 418 642 q 299 634 331 642 q 239 614 267 626 q 188 588 211 601 q 150 561 165 574 l 128 594 q 167 621 143 606 q 223 649 192 636 q 292 672 254 663 q 369 681 329 681 q 467 660 428 681 q 529 606 506 640 q 563 526 553 571 q 572 431 572 481 l 572 0 l 536 0 l 531 89 l 528 89 q 414 15 475 47 q 286 -17 353 -17 q 213 -6 247 -17 q 151 26 178 4 q 110 81 125 47 q 94 163 94 115 m 139 164 q 151 98 139 125 q 183 54 163 71 q 231 30 204 38 q 289 22 258 22 q 407 51 350 22 q 531 136 464 79 l 531 378 q 346 347 421 365 q 225 301 271 328 q 159 241 179 275 q 139 164 139 207 m 342 928 l 381 928 l 508 792 l 469 792 l 364 889 l 358 889 l 253 792 l 214 792 l 342 928 m 197 978 q 204 1012 199 994 q 221 1044 210 1029 q 249 1068 232 1058 q 292 1078 267 1078 q 335 1068 317 1078 q 369 1046 353 1058 q 399 1024 385 1033 q 433 1014 414 1014 q 472 1030 457 1014 q 492 1078 488 1046 l 525 1078 q 518 1043 524 1061 q 501 1010 513 1025 q 473 987 490 996 q 431 978 456 978 q 388 988 406 978 q 353 1010 369 997 q 322 1032 338 1022 q 289 1042 307 1042 q 250 1026 265 1042 q 231 978 235 1010 l 197 978 z "},"ậ":{"ha":686,"x_min":94,"x_max":572,"o":"m 94 163 q 200 331 94 274 q 531 414 306 389 q 526 495 532 454 q 501 569 519 536 q 451 622 483 601 q 367 642 418 642 q 299 634 331 642 q 239 614 267 626 q 188 588 211 601 q 150 561 165 574 l 128 594 q 167 621 143 606 q 223 649 192 636 q 292 672 254 663 q 369 681 329 681 q 467 660 428 681 q 529 606 506 640 q 563 526 553 571 q 572 431 572 481 l 572 0 l 536 0 l 531 89 l 528 89 q 414 15 475 47 q 286 -17 353 -17 q 213 -6 247 -17 q 151 26 178 4 q 110 81 125 47 q 94 163 94 115 m 139 164 q 151 98 139 125 q 183 54 163 71 q 231 30 204 38 q 289 22 258 22 q 407 51 350 22 q 531 136 464 79 l 531 378 q 346 347 421 365 q 225 301 271 328 q 159 241 179 275 q 139 164 139 207 m 342 981 l 381 981 l 511 794 l 472 794 l 364 936 l 358 936 l 250 794 l 211 794 l 342 981 m 339 -264 q 307 -251 319 -264 q 294 -214 294 -237 q 307 -180 294 -193 q 339 -167 319 -167 q 371 -180 358 -167 q 383 -214 383 -193 q 371 -251 383 -237 q 339 -264 358 -264 z "},"ắ":{"ha":686,"x_min":94,"x_max":572,"o":"m 94 163 q 200 331 94 274 q 531 414 306 389 q 526 495 532 454 q 501 569 519 536 q 451 622 483 601 q 367 642 418 642 q 299 634 331 642 q 239 614 267 626 q 188 588 211 601 q 150 561 165 574 l 128 594 q 167 621 143 606 q 223 649 192 636 q 292 672 254 663 q 369 681 329 681 q 467 660 428 681 q 529 606 506 640 q 563 526 553 571 q 572 431 572 481 l 572 0 l 536 0 l 531 89 l 528 89 q 414 15 475 47 q 286 -17 353 -17 q 213 -6 247 -17 q 151 26 178 4 q 110 81 125 47 q 94 163 94 115 m 139 164 q 151 98 139 125 q 183 54 163 71 q 231 30 204 38 q 289 22 258 22 q 407 51 350 22 q 531 136 464 79 l 531 378 q 346 347 421 365 q 225 301 271 328 q 159 241 179 275 q 139 164 139 207 m 425 1072 l 478 1072 l 358 922 l 319 922 l 425 1072 m 361 800 q 290 816 319 800 q 242 856 261 832 q 213 908 224 879 q 200 961 203 936 l 236 961 q 248 915 239 938 q 272 876 257 893 q 310 847 288 858 q 361 836 332 836 q 413 847 390 836 q 450 876 435 858 q 474 915 465 893 q 486 961 483 938 l 522 961 q 509 908 519 936 q 480 856 499 879 q 432 816 461 832 q 361 800 403 800 z "},"ằ":{"ha":686,"x_min":94,"x_max":572,"o":"m 94 163 q 200 331 94 274 q 531 414 306 389 q 526 495 532 454 q 501 569 519 536 q 451 622 483 601 q 367 642 418 642 q 299 634 331 642 q 239 614 267 626 q 188 588 211 601 q 150 561 165 574 l 128 594 q 167 621 143 606 q 223 649 192 636 q 292 672 254 663 q 369 681 329 681 q 467 660 428 681 q 529 606 506 640 q 563 526 553 571 q 572 431 572 481 l 572 0 l 536 0 l 531 89 l 528 89 q 414 15 475 47 q 286 -17 353 -17 q 213 -6 247 -17 q 151 26 178 4 q 110 81 125 47 q 94 163 94 115 m 139 164 q 151 98 139 125 q 183 54 163 71 q 231 30 204 38 q 289 22 258 22 q 407 51 350 22 q 531 136 464 79 l 531 378 q 346 347 421 365 q 225 301 271 328 q 159 241 179 275 q 139 164 139 207 m 403 922 l 364 922 l 244 1072 l 297 1072 l 403 922 m 361 800 q 290 816 319 800 q 242 856 261 832 q 213 908 224 879 q 200 961 203 936 l 236 961 q 248 915 239 938 q 272 876 257 893 q 310 847 288 858 q 361 836 332 836 q 413 847 390 836 q 450 876 435 858 q 474 915 465 893 q 486 961 483 938 l 522 961 q 509 908 519 936 q 480 856 499 879 q 432 816 461 832 q 361 800 403 800 z "},"ẳ":{"ha":686,"x_min":94,"x_max":572,"o":"m 94 163 q 200 331 94 274 q 531 414 306 389 q 526 495 532 454 q 501 569 519 536 q 451 622 483 601 q 367 642 418 642 q 299 634 331 642 q 239 614 267 626 q 188 588 211 601 q 150 561 165 574 l 128 594 q 167 621 143 606 q 223 649 192 636 q 292 672 254 663 q 369 681 329 681 q 467 660 428 681 q 529 606 506 640 q 563 526 553 571 q 572 431 572 481 l 572 0 l 536 0 l 531 89 l 528 89 q 414 15 475 47 q 286 -17 353 -17 q 213 -6 247 -17 q 151 26 178 4 q 110 81 125 47 q 94 163 94 115 m 139 164 q 151 98 139 125 q 183 54 163 71 q 231 30 204 38 q 289 22 258 22 q 407 51 350 22 q 531 136 464 79 l 531 378 q 346 347 421 365 q 225 301 271 328 q 159 241 179 275 q 139 164 139 207 m 361 800 q 290 816 319 800 q 242 856 261 832 q 213 908 224 879 q 200 961 203 936 l 236 961 q 248 915 239 938 q 272 876 257 893 q 310 847 288 858 q 361 836 332 836 q 413 847 390 836 q 450 876 435 858 q 474 915 465 893 q 486 961 483 938 l 522 961 q 509 908 519 936 q 480 856 499 879 q 432 816 461 832 q 361 800 403 800 m 322 964 q 374 990 354 975 q 394 1031 394 1006 q 369 1079 394 1064 q 294 1097 344 1094 l 297 1131 q 349 1124 324 1129 q 394 1107 375 1118 q 424 1078 413 1096 q 436 1036 436 1061 q 426 997 436 1013 q 402 968 417 981 q 369 947 388 956 q 333 933 351 939 l 322 964 z "},"ẵ":{"ha":686,"x_min":94,"x_max":572,"o":"m 94 163 q 200 331 94 274 q 531 414 306 389 q 526 495 532 454 q 501 569 519 536 q 451 622 483 601 q 367 642 418 642 q 299 634 331 642 q 239 614 267 626 q 188 588 211 601 q 150 561 165 574 l 128 594 q 167 621 143 606 q 223 649 192 636 q 292 672 254 663 q 369 681 329 681 q 467 660 428 681 q 529 606 506 640 q 563 526 553 571 q 572 431 572 481 l 572 0 l 536 0 l 531 89 l 528 89 q 414 15 475 47 q 286 -17 353 -17 q 213 -6 247 -17 q 151 26 178 4 q 110 81 125 47 q 94 163 94 115 m 139 164 q 151 98 139 125 q 183 54 163 71 q 231 30 204 38 q 289 22 258 22 q 407 51 350 22 q 531 136 464 79 l 531 378 q 346 347 421 365 q 225 301 271 328 q 159 241 179 275 q 139 164 139 207 m 361 800 q 291 813 319 800 q 244 844 263 825 q 215 886 225 863 q 203 933 206 910 l 239 933 q 275 866 246 896 q 361 836 304 836 q 447 866 418 836 q 483 933 476 896 l 519 933 q 507 886 517 910 q 478 844 497 863 q 431 813 460 825 q 361 800 403 800 m 197 978 q 204 1012 199 994 q 221 1044 210 1029 q 249 1068 232 1058 q 292 1078 267 1078 q 335 1068 317 1078 q 369 1046 353 1058 q 399 1024 385 1033 q 433 1014 414 1014 q 472 1030 457 1014 q 492 1078 488 1046 l 525 1078 q 518 1043 524 1061 q 501 1010 513 1025 q 473 987 490 996 q 431 978 456 978 q 388 988 406 978 q 353 1010 369 997 q 322 1032 338 1022 q 289 1042 307 1042 q 250 1026 265 1042 q 231 978 235 1010 l 197 978 z "},"ặ":{"ha":686,"x_min":94,"x_max":572,"o":"m 94 163 q 200 331 94 274 q 531 414 306 389 q 526 495 532 454 q 501 569 519 536 q 451 622 483 601 q 367 642 418 642 q 299 634 331 642 q 239 614 267 626 q 188 588 211 601 q 150 561 165 574 l 128 594 q 167 621 143 606 q 223 649 192 636 q 292 672 254 663 q 369 681 329 681 q 467 660 428 681 q 529 606 506 640 q 563 526 553 571 q 572 431 572 481 l 572 0 l 536 0 l 531 89 l 528 89 q 414 15 475 47 q 286 -17 353 -17 q 213 -6 247 -17 q 151 26 178 4 q 110 81 125 47 q 94 163 94 115 m 139 164 q 151 98 139 125 q 183 54 163 71 q 231 30 204 38 q 289 22 258 22 q 407 51 350 22 q 531 136 464 79 l 531 378 q 346 347 421 365 q 225 301 271 328 q 159 241 179 275 q 139 164 139 207 m 361 800 q 290 816 319 800 q 242 856 261 832 q 213 908 224 879 q 200 961 203 936 l 236 961 q 248 915 239 938 q 272 876 257 893 q 310 847 288 858 q 361 836 332 836 q 413 847 390 836 q 450 876 435 858 q 474 915 465 893 q 486 961 483 938 l 522 961 q 509 908 519 936 q 480 856 499 879 q 432 816 461 832 q 361 800 403 800 m 339 -264 q 307 -251 319 -264 q 294 -214 294 -237 q 307 -180 294 -193 q 339 -167 319 -167 q 371 -180 358 -167 q 383 -214 383 -193 q 371 -251 383 -237 q 339 -264 358 -264 z "},"ą":{"ha":686,"x_min":94,"x_max":603,"o":"m 139 164 q 151 98 139 125 q 183 54 163 71 q 231 30 204 38 q 289 22 258 22 q 407 51 350 22 q 531 136 464 79 l 531 378 q 346 347 421 365 q 225 301 271 328 q 159 241 179 275 q 139 164 139 207 m 94 161 q 200 331 94 274 q 531 414 306 389 q 526 495 532 454 q 501 569 519 536 q 451 622 483 601 q 367 642 418 642 q 299 634 331 642 q 239 614 267 626 q 188 588 211 601 q 150 561 165 574 l 128 594 q 167 621 143 606 q 223 649 192 636 q 292 672 254 663 q 369 681 329 681 q 467 660 428 681 q 529 606 506 640 q 563 526 553 571 q 572 431 572 481 l 572 0 q 488 -74 522 -28 q 453 -167 453 -121 q 474 -223 453 -204 q 522 -242 494 -242 q 555 -237 542 -242 q 583 -222 568 -233 l 603 -250 q 564 -272 588 -262 q 519 -281 540 -281 q 442 -253 474 -281 q 411 -169 411 -226 q 447 -69 411 -117 q 536 11 483 -21 l 531 89 l 528 89 q 414 15 475 47 q 286 -17 353 -17 q 213 -6 247 -17 q 151 26 178 4 q 110 81 125 47 q 94 161 94 114 z "},"æ":{"ha":1089,"x_min":94,"x_max":1036,"o":"m 139 164 q 151 98 139 125 q 183 54 163 71 q 231 30 204 38 q 289 22 258 22 q 419 58 346 22 q 553 161 492 94 q 530 241 538 193 q 522 339 522 289 l 522 378 q 345 347 418 365 q 226 301 272 328 q 160 241 181 275 q 139 164 139 207 m 128 594 q 167 621 143 606 q 222 649 192 636 q 288 672 253 663 q 361 681 324 681 q 492 633 444 681 q 556 506 540 585 q 654 633 592 585 q 792 681 717 681 q 972 602 907 681 q 1036 375 1036 524 q 1036 353 1036 364 q 1033 331 1036 343 l 564 331 q 581 208 563 264 q 633 110 600 151 q 713 45 667 68 q 811 22 758 22 q 910 39 868 22 q 989 83 951 56 l 1008 47 q 969 24 989 36 q 927 3 950 13 q 875 -11 904 -6 q 808 -17 846 -17 q 726 -4 763 -17 q 661 28 690 8 q 610 74 632 49 q 569 125 588 99 q 501 67 538 93 q 426 22 464 40 q 353 -7 389 3 q 286 -17 317 -17 q 213 -6 247 -17 q 151 26 178 4 q 110 81 125 47 q 94 161 94 114 q 200 331 94 274 q 522 414 306 389 q 517 495 524 454 q 493 569 511 536 q 442 622 475 601 q 358 642 410 642 q 295 634 326 642 q 237 614 264 626 q 188 588 210 601 q 150 561 165 574 l 128 594 m 994 367 q 940 574 994 506 q 792 642 886 642 q 708 622 747 642 q 639 565 669 601 q 589 477 608 528 q 564 367 569 426 l 994 367 z "},"ç":{"ha":619,"x_min":75,"x_max":583,"o":"m 75 331 q 99 479 75 414 q 165 589 124 544 q 259 657 206 633 q 372 681 313 681 q 488 655 442 681 q 567 597 533 629 l 539 567 q 465 620 506 599 q 372 642 425 642 q 273 619 319 642 q 192 555 226 596 q 139 456 158 514 q 119 331 119 399 q 138 205 119 261 q 189 108 156 149 q 269 44 222 67 q 372 22 315 22 q 476 46 429 22 q 558 103 522 69 l 583 72 q 490 9 542 35 q 372 -17 438 -17 q 254 7 308 -17 q 160 75 200 31 q 98 184 121 119 q 75 331 75 249 m 360 3 l 399 3 l 357 -78 q 415 -110 390 -89 q 440 -172 440 -131 q 426 -218 440 -199 q 390 -251 413 -237 q 337 -274 367 -265 q 276 -286 307 -282 l 268 -250 q 363 -224 326 -242 q 399 -178 399 -207 q 372 -129 399 -144 q 304 -103 344 -114 l 360 3 z "},"ć":{"ha":619,"x_min":75,"x_max":583,"o":"m 75 331 q 99 479 75 414 q 165 589 124 544 q 259 657 206 633 q 372 681 313 681 q 488 655 442 681 q 567 597 533 629 l 539 567 q 465 620 506 599 q 372 642 425 642 q 273 619 319 642 q 192 555 226 596 q 139 456 158 514 q 119 331 119 399 q 138 205 119 261 q 189 108 156 149 q 269 44 222 67 q 372 22 315 22 q 476 46 429 22 q 558 103 522 69 l 583 72 q 490 9 542 35 q 372 -17 438 -17 q 254 7 308 -17 q 160 75 200 31 q 98 184 121 119 q 75 331 75 249 m 340 794 l 301 794 l 429 981 l 485 981 l 340 794 z "},"ĉ":{"ha":619,"x_min":75,"x_max":583,"o":"m 75 331 q 99 479 75 414 q 165 589 124 544 q 259 657 206 633 q 372 681 313 681 q 488 655 442 681 q 567 597 533 629 l 539 567 q 465 620 506 599 q 372 642 425 642 q 273 619 319 642 q 192 555 226 596 q 139 456 158 514 q 119 331 119 399 q 138 205 119 261 q 189 108 156 149 q 269 44 222 67 q 372 22 315 22 q 476 46 429 22 q 558 103 522 69 l 583 72 q 490 9 542 35 q 372 -17 438 -17 q 254 7 308 -17 q 160 75 200 31 q 98 184 121 119 q 75 331 75 249 m 354 981 l 393 981 l 524 794 l 485 794 l 376 936 l 371 936 l 263 794 l 224 794 l 354 981 z "},"č":{"ha":619,"x_min":75,"x_max":583,"o":"m 75 331 q 99 479 75 414 q 165 589 124 544 q 259 657 206 633 q 372 681 313 681 q 488 655 442 681 q 567 597 533 629 l 539 567 q 465 620 506 599 q 372 642 425 642 q 273 619 319 642 q 192 555 226 596 q 139 456 158 514 q 119 331 119 399 q 138 205 119 261 q 189 108 156 149 q 269 44 222 67 q 372 22 315 22 q 476 46 429 22 q 558 103 522 69 l 583 72 q 490 9 542 35 q 372 -17 438 -17 q 254 7 308 -17 q 160 75 200 31 q 98 184 121 119 q 75 331 75 249 m 224 981 l 263 981 l 371 839 l 376 839 l 485 981 l 524 981 l 393 794 l 354 794 l 224 981 z "},"ċ":{"ha":619,"x_min":75,"x_max":583,"o":"m 75 331 q 99 479 75 414 q 165 589 124 544 q 259 657 206 633 q 372 681 313 681 q 488 655 442 681 q 567 597 533 629 l 539 567 q 465 620 506 599 q 372 642 425 642 q 273 619 319 642 q 192 555 226 596 q 139 456 158 514 q 119 331 119 399 q 138 205 119 261 q 189 108 156 149 q 269 44 222 67 q 372 22 315 22 q 476 46 429 22 q 558 103 522 69 l 583 72 q 490 9 542 35 q 372 -17 438 -17 q 254 7 308 -17 q 160 75 200 31 q 98 184 121 119 q 75 331 75 249 m 374 833 q 342 847 354 833 q 329 883 329 860 q 342 917 329 904 q 374 931 354 931 q 406 917 393 931 q 418 883 418 904 q 406 847 418 860 q 374 833 393 833 z "},"ď":{"ha":750,"x_min":75,"x_max":750,"o":"m 75 331 q 99 476 75 411 q 163 586 122 540 q 258 656 204 632 q 372 681 311 681 q 479 659 433 681 q 578 597 525 638 l 575 722 l 575 1003 l 617 1003 l 617 0 l 581 0 l 575 89 l 572 89 q 475 15 531 47 q 350 -17 419 -17 q 149 72 224 -17 q 75 331 75 161 m 119 331 q 135 205 119 261 q 180 108 150 149 q 253 44 210 67 q 353 22 296 22 q 465 52 411 22 q 575 139 518 82 l 575 550 q 470 621 518 600 q 369 642 422 642 q 271 617 317 642 q 192 551 225 593 q 139 451 158 508 q 119 331 119 394 m 711 761 l 708 1044 l 750 1044 l 750 978 l 742 761 l 711 761 z "},"ḍ":{"ha":750,"x_min":75,"x_max":617,"o":"m 75 331 q 99 476 75 411 q 163 586 122 540 q 258 656 204 632 q 372 681 311 681 q 479 659 433 681 q 578 597 525 638 l 575 722 l 575 1003 l 617 1003 l 617 0 l 581 0 l 575 89 l 572 89 q 475 15 531 47 q 350 -17 419 -17 q 149 72 224 -17 q 75 331 75 161 m 119 331 q 135 205 119 261 q 180 108 150 149 q 253 44 210 67 q 353 22 296 22 q 465 52 411 22 q 575 139 518 82 l 575 550 q 470 621 518 600 q 369 642 422 642 q 271 617 317 642 q 192 551 225 593 q 139 451 158 508 q 119 331 119 394 m 408 -264 q 376 -251 389 -264 q 364 -214 364 -237 q 376 -180 364 -193 q 408 -167 389 -167 q 440 -180 428 -167 q 453 -214 453 -193 q 440 -251 453 -237 q 408 -264 428 -264 z "},"ḏ":{"ha":750,"x_min":75,"x_max":617,"o":"m 75 331 q 99 476 75 411 q 163 586 122 540 q 258 656 204 632 q 372 681 311 681 q 479 659 433 681 q 578 597 525 638 l 575 722 l 575 1003 l 617 1003 l 617 0 l 581 0 l 575 89 l 572 89 q 475 15 531 47 q 350 -17 419 -17 q 149 72 224 -17 q 75 331 75 161 m 119 331 q 135 205 119 261 q 180 108 150 149 q 253 44 210 67 q 353 22 296 22 q 465 52 411 22 q 575 139 518 82 l 575 550 q 470 621 518 600 q 369 642 422 642 q 271 617 317 642 q 192 551 225 593 q 139 451 158 508 q 119 331 119 394 m 560 -217 l 251 -217 l 251 -178 l 560 -178 l 560 -217 z "},"đ":{"ha":750,"x_min":75,"x_max":722,"o":"m 575 522 q 470 593 518 572 q 369 614 422 614 q 271 590 317 614 q 192 526 225 567 q 139 432 158 486 q 119 317 119 378 q 135 197 119 251 q 180 104 150 143 q 253 44 210 65 q 353 22 296 22 q 465 52 411 22 q 575 139 518 82 l 575 522 m 722 850 l 722 817 l 617 811 l 617 0 l 581 0 l 575 89 l 572 89 q 475 15 531 47 q 350 -17 419 -17 q 150 69 225 -17 q 75 317 75 154 q 99 456 75 393 q 163 562 122 518 q 258 629 204 606 q 372 653 311 653 q 479 631 433 653 q 578 569 525 610 l 575 694 l 575 811 l 336 811 l 336 850 l 575 850 l 575 1003 l 617 1003 l 617 850 l 722 850 z "},"è":{"ha":664,"x_min":75,"x_max":611,"o":"m 75 331 q 99 476 75 411 q 163 587 124 542 q 254 656 203 632 q 361 681 306 681 q 544 602 476 681 q 611 375 611 524 q 611 353 611 364 q 608 331 611 343 l 119 331 q 138 208 119 264 q 191 110 157 151 q 273 45 225 68 q 381 22 321 22 q 482 39 438 22 q 564 83 526 56 l 583 47 q 499 3 546 24 q 378 -17 453 -17 q 260 7 315 -17 q 164 76 206 31 q 99 185 122 121 q 75 331 75 249 m 569 367 q 513 574 569 506 q 361 642 456 642 q 275 622 317 642 q 201 567 233 603 q 147 481 168 532 q 119 367 125 431 l 569 367 m 250 981 l 306 981 l 433 794 l 394 794 l 250 981 z "},"é":{"ha":664,"x_min":75,"x_max":611,"o":"m 75 331 q 99 476 75 411 q 163 587 124 542 q 254 656 203 632 q 361 681 306 681 q 544 602 476 681 q 611 375 611 524 q 611 353 611 364 q 608 331 611 343 l 119 331 q 138 208 119 264 q 191 110 157 151 q 273 45 225 68 q 381 22 321 22 q 482 39 438 22 q 564 83 526 56 l 583 47 q 499 3 546 24 q 378 -17 453 -17 q 260 7 315 -17 q 164 76 206 31 q 99 185 122 121 q 75 331 75 249 m 569 367 q 513 574 569 506 q 361 642 456 642 q 275 622 317 642 q 201 567 233 603 q 147 481 168 532 q 119 367 125 431 l 569 367 m 328 794 l 289 794 l 417 981 l 472 981 l 328 794 z "},"ê":{"ha":664,"x_min":75,"x_max":611,"o":"m 75 331 q 99 476 75 411 q 163 587 124 542 q 254 656 203 632 q 361 681 306 681 q 544 602 476 681 q 611 375 611 524 q 611 353 611 364 q 608 331 611 343 l 119 331 q 138 208 119 264 q 191 110 157 151 q 273 45 225 68 q 381 22 321 22 q 482 39 438 22 q 564 83 526 56 l 583 47 q 499 3 546 24 q 378 -17 453 -17 q 260 7 315 -17 q 164 76 206 31 q 99 185 122 121 q 75 331 75 249 m 569 367 q 513 574 569 506 q 361 642 456 642 q 275 622 317 642 q 201 567 233 603 q 147 481 168 532 q 119 367 125 431 l 569 367 m 342 981 l 381 981 l 511 794 l 472 794 l 364 936 l 358 936 l 250 794 l 211 794 l 342 981 z "},"ě":{"ha":664,"x_min":75,"x_max":611,"o":"m 75 331 q 99 476 75 411 q 163 587 124 542 q 254 656 203 632 q 361 681 306 681 q 544 602 476 681 q 611 375 611 524 q 611 353 611 364 q 608 331 611 343 l 119 331 q 138 208 119 264 q 191 110 157 151 q 273 45 225 68 q 381 22 321 22 q 482 39 438 22 q 564 83 526 56 l 583 47 q 499 3 546 24 q 378 -17 453 -17 q 260 7 315 -17 q 164 76 206 31 q 99 185 122 121 q 75 331 75 249 m 569 367 q 513 574 569 506 q 361 642 456 642 q 275 622 317 642 q 201 567 233 603 q 147 481 168 532 q 119 367 125 431 l 569 367 m 211 981 l 250 981 l 358 839 l 364 839 l 472 981 l 511 981 l 381 794 l 342 794 l 211 981 z "},"ë":{"ha":664,"x_min":75,"x_max":611,"o":"m 75 331 q 99 476 75 411 q 163 587 124 542 q 254 656 203 632 q 361 681 306 681 q 544 602 476 681 q 611 375 611 524 q 611 353 611 364 q 608 331 611 343 l 119 331 q 138 208 119 264 q 191 110 157 151 q 273 45 225 68 q 381 22 321 22 q 482 39 438 22 q 564 83 526 56 l 583 47 q 499 3 546 24 q 378 -17 453 -17 q 260 7 315 -17 q 164 76 206 31 q 99 185 122 121 q 75 331 75 249 m 569 367 q 513 574 569 506 q 361 642 456 642 q 275 622 317 642 q 201 567 233 603 q 147 481 168 532 q 119 367 125 431 l 569 367 m 256 836 q 224 849 236 836 q 211 881 211 861 q 224 913 211 900 q 256 925 236 925 q 288 913 275 925 q 300 881 300 900 q 288 849 300 861 q 256 836 275 836 m 467 836 q 435 849 447 836 q 422 881 422 861 q 435 913 422 900 q 467 925 447 925 q 499 913 486 925 q 511 881 511 900 q 499 849 511 861 q 467 836 486 836 z "},"ē":{"ha":664,"x_min":75,"x_max":611,"o":"m 75 331 q 99 476 75 411 q 163 587 124 542 q 254 656 203 632 q 361 681 306 681 q 544 602 476 681 q 611 375 611 524 q 611 353 611 364 q 608 331 611 343 l 119 331 q 138 208 119 264 q 191 110 157 151 q 273 45 225 68 q 381 22 321 22 q 482 39 438 22 q 564 83 526 56 l 583 47 q 499 3 546 24 q 378 -17 453 -17 q 260 7 315 -17 q 164 76 206 31 q 99 185 122 121 q 75 331 75 249 m 569 367 q 513 574 569 506 q 361 642 456 642 q 275 622 317 642 q 201 567 233 603 q 147 481 168 532 q 119 367 125 431 l 569 367 m 208 883 l 514 883 l 514 844 l 208 844 l 208 883 z "},"ĕ":{"ha":664,"x_min":75,"x_max":611,"o":"m 75 331 q 99 476 75 411 q 163 587 124 542 q 254 656 203 632 q 361 681 306 681 q 544 602 476 681 q 611 375 611 524 q 611 353 611 364 q 608 331 611 343 l 119 331 q 138 208 119 264 q 191 110 157 151 q 273 45 225 68 q 381 22 321 22 q 482 39 438 22 q 564 83 526 56 l 583 47 q 499 3 546 24 q 378 -17 453 -17 q 260 7 315 -17 q 164 76 206 31 q 99 185 122 121 q 75 331 75 249 m 569 367 q 513 574 569 506 q 361 642 456 642 q 275 622 317 642 q 201 567 233 603 q 147 481 168 532 q 119 367 125 431 l 569 367 m 361 800 q 290 816 319 800 q 242 856 261 832 q 213 908 224 879 q 200 961 203 936 l 236 961 q 248 915 239 938 q 272 876 257 893 q 310 847 288 858 q 361 836 332 836 q 413 847 390 836 q 450 876 435 858 q 474 915 465 893 q 486 961 483 938 l 522 961 q 509 908 519 936 q 480 856 499 879 q 432 816 461 832 q 361 800 403 800 z "},"ė":{"ha":664,"x_min":75,"x_max":611,"o":"m 75 331 q 99 476 75 411 q 163 587 124 542 q 254 656 203 632 q 361 681 306 681 q 544 602 476 681 q 611 375 611 524 q 611 353 611 364 q 608 331 611 343 l 119 331 q 138 208 119 264 q 191 110 157 151 q 273 45 225 68 q 381 22 321 22 q 482 39 438 22 q 564 83 526 56 l 583 47 q 499 3 546 24 q 378 -17 453 -17 q 260 7 315 -17 q 164 76 206 31 q 99 185 122 121 q 75 331 75 249 m 569 367 q 513 574 569 506 q 361 642 456 642 q 275 622 317 642 q 201 567 233 603 q 147 481 168 532 q 119 367 125 431 l 569 367 m 361 833 q 329 847 342 833 q 317 883 317 860 q 329 917 317 904 q 361 931 342 931 q 393 917 381 931 q 406 883 406 904 q 393 847 406 860 q 361 833 381 833 z "},"ẹ":{"ha":664,"x_min":75,"x_max":611,"o":"m 75 331 q 99 476 75 411 q 163 587 124 542 q 254 656 203 632 q 361 681 306 681 q 544 602 476 681 q 611 375 611 524 q 611 353 611 364 q 608 331 611 343 l 119 331 q 138 208 119 264 q 191 110 157 151 q 273 45 225 68 q 381 22 321 22 q 482 39 438 22 q 564 83 526 56 l 583 47 q 499 3 546 24 q 378 -17 453 -17 q 260 7 315 -17 q 164 76 206 31 q 99 185 122 121 q 75 331 75 249 m 569 367 q 513 574 569 506 q 361 642 456 642 q 275 622 317 642 q 201 567 233 603 q 147 481 168 532 q 119 367 125 431 l 569 367 m 357 -264 q 325 -251 338 -264 q 313 -214 313 -237 q 325 -180 313 -193 q 357 -167 338 -167 q 389 -180 376 -167 q 401 -214 401 -193 q 389 -251 401 -237 q 357 -264 376 -264 z "},"ẻ":{"ha":664,"x_min":75,"x_max":611,"o":"m 75 331 q 99 476 75 411 q 163 587 124 542 q 254 656 203 632 q 361 681 306 681 q 544 602 476 681 q 611 375 611 524 q 611 353 611 364 q 608 331 611 343 l 119 331 q 138 208 119 264 q 191 110 157 151 q 273 45 225 68 q 381 22 321 22 q 482 39 438 22 q 564 83 526 56 l 583 47 q 499 3 546 24 q 378 -17 453 -17 q 260 7 315 -17 q 164 76 206 31 q 99 185 122 121 q 75 331 75 249 m 569 367 q 513 574 569 506 q 361 642 456 642 q 275 622 317 642 q 201 567 233 603 q 147 481 168 532 q 119 367 125 431 l 569 367 m 319 794 q 385 825 360 807 q 411 875 411 843 q 380 925 411 908 q 292 944 349 942 l 294 981 q 353 974 325 979 q 404 956 382 968 q 440 925 426 943 q 453 881 453 907 q 442 835 453 854 q 415 803 432 817 q 375 781 397 790 q 331 764 353 771 l 319 794 z "},"ẽ":{"ha":664,"x_min":75,"x_max":611,"o":"m 75 331 q 99 476 75 411 q 163 587 124 542 q 254 656 203 632 q 361 681 306 681 q 544 602 476 681 q 611 375 611 524 q 611 353 611 364 q 608 331 611 343 l 119 331 q 138 208 119 264 q 191 110 157 151 q 273 45 225 68 q 381 22 321 22 q 482 39 438 22 q 564 83 526 56 l 583 47 q 499 3 546 24 q 378 -17 453 -17 q 260 7 315 -17 q 164 76 206 31 q 99 185 122 121 q 75 331 75 249 m 569 367 q 513 574 569 506 q 361 642 456 642 q 275 622 317 642 q 201 567 233 603 q 147 481 168 532 q 119 367 125 431 l 569 367 m 197 808 q 203 847 199 826 q 219 883 208 867 q 245 911 229 900 q 286 922 261 922 q 331 910 311 922 q 369 883 351 897 q 404 856 388 868 q 439 844 421 844 q 475 865 463 844 q 492 922 488 886 l 525 922 q 519 884 524 904 q 503 847 514 864 q 477 819 493 831 q 436 808 461 808 q 392 820 411 808 q 354 847 372 832 q 319 874 336 861 q 283 886 303 886 q 247 865 260 886 q 231 808 235 844 l 197 808 l 197 808 z "},"ế":{"ha":664,"x_min":75,"x_max":625,"o":"m 75 331 q 99 476 75 411 q 163 587 124 542 q 254 656 203 632 q 361 681 306 681 q 544 602 476 681 q 611 375 611 524 q 611 353 611 364 q 608 331 611 343 l 119 331 q 138 208 119 264 q 191 110 157 151 q 273 45 225 68 q 381 22 321 22 q 482 39 438 22 q 564 83 526 56 l 583 47 q 499 3 546 24 q 378 -17 453 -17 q 260 7 315 -17 q 164 76 206 31 q 99 185 122 121 q 75 331 75 249 m 569 367 q 513 574 569 506 q 361 642 456 642 q 275 622 317 642 q 201 567 233 603 q 147 481 168 532 q 119 367 125 431 l 569 367 m 342 950 l 381 950 l 497 794 l 458 794 l 364 906 l 358 906 l 264 794 l 225 794 l 342 950 m 572 1036 l 625 1036 l 500 883 l 464 883 l 572 1036 z "},"ề":{"ha":664,"x_min":75,"x_max":611,"o":"m 75 331 q 99 476 75 411 q 163 587 124 542 q 254 656 203 632 q 361 681 306 681 q 544 602 476 681 q 611 375 611 524 q 611 353 611 364 q 608 331 611 343 l 119 331 q 138 208 119 264 q 191 110 157 151 q 273 45 225 68 q 381 22 321 22 q 482 39 438 22 q 564 83 526 56 l 583 47 q 499 3 546 24 q 378 -17 453 -17 q 260 7 315 -17 q 164 76 206 31 q 99 185 122 121 q 75 331 75 249 m 569 367 q 513 574 569 506 q 361 642 456 642 q 275 622 317 642 q 201 567 233 603 q 147 481 168 532 q 119 367 125 431 l 569 367 m 342 950 l 381 950 l 497 794 l 458 794 l 364 906 l 358 906 l 264 794 l 225 794 l 342 950 m 586 883 l 550 883 l 425 1036 l 478 1036 l 586 883 z "},"ể":{"ha":664,"x_min":75,"x_max":611,"o":"m 75 331 q 99 476 75 411 q 163 587 124 542 q 254 656 203 632 q 361 681 306 681 q 544 602 476 681 q 611 375 611 524 q 611 353 611 364 q 608 331 611 343 l 119 331 q 138 208 119 264 q 191 110 157 151 q 273 45 225 68 q 381 22 321 22 q 482 39 438 22 q 564 83 526 56 l 583 47 q 499 3 546 24 q 378 -17 453 -17 q 260 7 315 -17 q 164 76 206 31 q 99 185 122 121 q 75 331 75 249 m 569 367 q 513 574 569 506 q 361 642 456 642 q 275 622 317 642 q 201 567 233 603 q 147 481 168 532 q 119 367 125 431 l 569 367 m 342 950 l 381 950 l 497 794 l 458 794 l 364 906 l 358 906 l 264 794 l 225 794 l 342 950 m 486 903 q 538 929 518 914 q 558 969 558 944 q 533 1018 558 1003 q 458 1036 508 1033 l 461 1069 q 513 1063 488 1068 q 558 1046 539 1057 q 588 1017 576 1035 q 600 975 600 1000 q 590 935 600 951 q 566 907 581 919 q 533 886 551 894 q 497 872 515 878 l 486 903 z "},"ễ":{"ha":664,"x_min":75,"x_max":611,"o":"m 75 331 q 99 476 75 411 q 163 587 124 542 q 254 656 203 632 q 361 681 306 681 q 544 602 476 681 q 611 375 611 524 q 611 353 611 364 q 608 331 611 343 l 119 331 q 138 208 119 264 q 191 110 157 151 q 273 45 225 68 q 381 22 321 22 q 482 39 438 22 q 564 83 526 56 l 583 47 q 499 3 546 24 q 378 -17 453 -17 q 260 7 315 -17 q 164 76 206 31 q 99 185 122 121 q 75 331 75 249 m 569 367 q 513 574 569 506 q 361 642 456 642 q 275 622 317 642 q 201 567 233 603 q 147 481 168 532 q 119 367 125 431 l 569 367 m 342 928 l 381 928 l 508 792 l 469 792 l 364 889 l 358 889 l 253 792 l 214 792 l 342 928 m 197 978 q 204 1012 199 994 q 221 1044 210 1029 q 249 1068 232 1058 q 292 1078 267 1078 q 335 1068 317 1078 q 369 1046 353 1058 q 399 1024 385 1033 q 433 1014 414 1014 q 472 1030 457 1014 q 492 1078 488 1046 l 525 1078 q 518 1043 524 1061 q 501 1010 513 1025 q 473 987 490 996 q 431 978 456 978 q 388 988 406 978 q 353 1010 369 997 q 322 1032 338 1022 q 289 1042 307 1042 q 250 1026 265 1042 q 231 978 235 1010 l 197 978 z "},"ệ":{"ha":664,"x_min":75,"x_max":611,"o":"m 75 331 q 99 476 75 411 q 163 587 124 542 q 254 656 203 632 q 361 681 306 681 q 544 602 476 681 q 611 375 611 524 q 611 353 611 364 q 608 331 611 343 l 119 331 q 138 208 119 264 q 191 110 157 151 q 273 45 225 68 q 381 22 321 22 q 482 39 438 22 q 564 83 526 56 l 583 47 q 499 3 546 24 q 378 -17 453 -17 q 260 7 315 -17 q 164 76 206 31 q 99 185 122 121 q 75 331 75 249 m 569 367 q 513 574 569 506 q 361 642 456 642 q 275 622 317 642 q 201 567 233 603 q 147 481 168 532 q 119 367 125 431 l 569 367 m 342 981 l 381 981 l 511 794 l 472 794 l 364 936 l 358 936 l 250 794 l 211 794 l 342 981 m 356 -264 q 324 -251 336 -264 q 311 -214 311 -237 q 324 -180 311 -193 q 356 -167 336 -167 q 388 -180 375 -167 q 400 -214 400 -193 q 388 -251 400 -237 q 356 -264 375 -264 z "},"ę":{"ha":664,"x_min":75,"x_max":611,"o":"m 75 331 q 99 476 75 411 q 163 587 124 542 q 254 656 203 632 q 361 681 306 681 q 544 602 476 681 q 611 375 611 524 q 611 353 611 363 q 608 331 611 343 l 119 331 q 138 208 119 264 q 191 110 157 151 q 273 45 225 68 q 381 22 321 22 q 482 39 438 22 q 564 83 526 56 l 583 47 q 459 -70 493 -19 q 425 -167 425 -121 q 446 -223 425 -204 q 494 -242 467 -242 q 527 -237 514 -242 q 556 -222 540 -233 l 575 -250 q 536 -272 560 -262 q 492 -281 513 -281 q 415 -253 446 -281 q 383 -169 383 -226 q 392 -119 383 -143 q 413 -73 400 -94 q 442 -33 426 -51 q 472 -3 457 -15 q 426 -14 449 -11 q 378 -17 403 -17 q 260 7 315 -17 q 164 76 206 31 q 99 185 122 121 q 75 331 75 249 m 569 367 q 513 574 569 506 q 361 642 457 642 q 275 622 317 642 q 201 567 233 603 q 147 481 168 532 q 119 367 125 431 l 569 367 z "},"ĝ":{"ha":667,"x_min":75,"x_max":653,"o":"m 119 -136 q 179 -244 119 -203 q 350 -286 239 -286 q 458 -270 410 -286 q 539 -229 506 -254 q 590 -172 572 -204 q 608 -106 608 -139 q 567 -22 608 -47 q 447 3 526 3 l 294 3 q 265 5 288 3 q 214 14 242 7 q 142 -59 164 -19 q 119 -136 119 -99 m 75 -139 q 102 -51 75 -94 q 175 25 129 -8 l 175 31 q 133 72 150 46 q 117 136 117 99 q 142 213 117 182 q 189 258 168 243 l 189 264 q 131 339 157 292 q 106 447 106 386 q 123 540 106 497 q 172 613 140 582 q 244 663 203 644 q 333 681 285 681 q 383 676 361 681 q 419 664 404 671 l 642 664 l 642 625 l 481 625 q 539 550 517 596 q 561 447 561 504 q 544 354 561 397 q 495 279 526 311 q 422 229 464 247 q 333 211 381 211 q 274 219 304 211 q 219 242 243 226 q 178 199 196 222 q 161 139 161 175 q 167 103 161 119 q 188 74 174 86 q 228 54 203 61 q 292 47 253 47 l 439 47 q 601 11 550 47 q 653 -103 653 -25 q 631 -185 653 -144 q 570 -256 610 -225 q 474 -306 531 -287 q 347 -325 417 -325 q 147 -274 219 -325 q 75 -139 75 -222 m 333 250 q 403 265 369 250 q 461 305 436 279 q 501 367 486 331 q 517 447 517 403 q 502 528 517 492 q 463 589 488 564 q 404 628 438 614 q 333 642 371 642 q 263 628 296 642 q 204 589 229 614 q 165 528 179 564 q 150 447 150 492 q 165 367 150 403 q 206 305 181 331 q 264 265 231 279 q 333 250 297 250 m 300 981 l 339 981 l 469 794 l 431 794 l 322 936 l 317 936 l 208 794 l 169 794 l 300 981 z "},"ğ":{"ha":667,"x_min":75,"x_max":653,"o":"m 119 -136 q 179 -244 119 -203 q 350 -286 239 -286 q 458 -270 410 -286 q 539 -229 506 -254 q 590 -172 572 -204 q 608 -106 608 -139 q 567 -22 608 -47 q 447 3 526 3 l 294 3 q 265 5 288 3 q 214 14 242 7 q 142 -59 164 -19 q 119 -136 119 -99 m 75 -139 q 102 -51 75 -94 q 175 25 129 -8 l 175 31 q 133 72 150 46 q 117 136 117 99 q 142 213 117 182 q 189 258 168 243 l 189 264 q 131 339 157 292 q 106 447 106 386 q 123 540 106 497 q 172 613 140 582 q 244 663 203 644 q 333 681 285 681 q 383 676 361 681 q 419 664 404 671 l 642 664 l 642 625 l 481 625 q 539 550 517 596 q 561 447 561 504 q 544 354 561 397 q 495 279 526 311 q 422 229 464 247 q 333 211 381 211 q 274 219 304 211 q 219 242 243 226 q 178 199 196 222 q 161 139 161 175 q 167 103 161 119 q 188 74 174 86 q 228 54 203 61 q 292 47 253 47 l 439 47 q 601 11 550 47 q 653 -103 653 -25 q 631 -185 653 -144 q 570 -256 610 -225 q 474 -306 531 -287 q 347 -325 417 -325 q 147 -274 219 -325 q 75 -139 75 -222 m 333 250 q 403 265 369 250 q 461 305 436 279 q 501 367 486 331 q 517 447 517 403 q 502 528 517 492 q 463 589 488 564 q 404 628 438 614 q 333 642 371 642 q 263 628 296 642 q 204 589 229 614 q 165 528 179 564 q 150 447 150 492 q 165 367 150 403 q 206 305 181 331 q 264 265 231 279 q 333 250 297 250 m 319 800 q 249 816 278 800 q 201 856 219 832 q 172 908 182 879 q 158 961 161 936 l 194 961 q 206 915 197 938 q 231 876 215 893 q 268 847 246 858 q 319 836 290 836 q 371 847 349 836 q 408 876 393 858 q 433 915 424 893 q 444 961 442 938 l 481 961 q 467 908 478 936 q 438 856 457 879 q 390 816 419 832 q 319 800 361 800 z "},"ġ":{"ha":667,"x_min":75,"x_max":653,"o":"m 119 -136 q 179 -244 119 -203 q 350 -286 239 -286 q 458 -270 410 -286 q 539 -229 506 -254 q 590 -172 572 -204 q 608 -106 608 -139 q 567 -22 608 -47 q 447 3 526 3 l 294 3 q 265 5 288 3 q 214 14 242 7 q 142 -59 164 -19 q 119 -136 119 -99 m 75 -139 q 102 -51 75 -94 q 175 25 129 -8 l 175 31 q 133 72 150 46 q 117 136 117 99 q 142 213 117 182 q 189 258 168 243 l 189 264 q 131 339 157 292 q 106 447 106 386 q 123 540 106 497 q 172 613 140 582 q 244 663 203 644 q 333 681 285 681 q 383 676 361 681 q 419 664 404 671 l 642 664 l 642 625 l 481 625 q 539 550 517 596 q 561 447 561 504 q 544 354 561 397 q 495 279 526 311 q 422 229 464 247 q 333 211 381 211 q 274 219 304 211 q 219 242 243 226 q 178 199 196 222 q 161 139 161 175 q 167 103 161 119 q 188 74 174 86 q 228 54 203 61 q 292 47 253 47 l 439 47 q 601 11 550 47 q 653 -103 653 -25 q 631 -185 653 -144 q 570 -256 610 -225 q 474 -306 531 -287 q 347 -325 417 -325 q 147 -274 219 -325 q 75 -139 75 -222 m 333 250 q 403 265 369 250 q 461 305 436 279 q 501 367 486 331 q 517 447 517 403 q 502 528 517 492 q 463 589 488 564 q 404 628 438 614 q 333 642 371 642 q 263 628 296 642 q 204 589 229 614 q 165 528 179 564 q 150 447 150 492 q 165 367 150 403 q 206 305 181 331 q 264 265 231 279 q 333 250 297 250 m 319 833 q 288 847 300 833 q 275 883 275 860 q 288 917 275 904 q 319 931 300 931 q 351 917 339 931 q 364 883 364 904 q 351 847 364 860 q 319 833 339 833 z "},"ģ":{"ha":667,"x_min":75,"x_max":653,"o":"m 119 -136 q 179 -244 119 -203 q 350 -286 239 -286 q 458 -270 410 -286 q 539 -229 506 -254 q 590 -172 572 -204 q 608 -106 608 -139 q 567 -22 608 -47 q 447 3 526 3 l 294 3 q 265 5 288 3 q 214 14 242 7 q 142 -59 164 -19 q 119 -136 119 -99 m 75 -139 q 102 -51 75 -94 q 175 25 129 -8 l 175 31 q 133 72 150 46 q 117 136 117 99 q 142 213 117 182 q 189 258 168 243 l 189 264 q 131 339 157 292 q 106 447 106 386 q 123 540 106 497 q 172 613 140 582 q 244 663 203 644 q 333 681 285 681 q 383 676 361 681 q 419 664 404 671 l 642 664 l 642 625 l 481 625 q 539 550 517 596 q 561 447 561 504 q 544 354 561 397 q 495 279 526 311 q 422 229 464 247 q 333 211 381 211 q 274 219 304 211 q 219 242 243 226 q 178 199 196 222 q 161 139 161 175 q 167 103 161 119 q 188 74 174 86 q 228 54 203 61 q 292 47 253 47 l 439 47 q 601 11 550 47 q 653 -103 653 -25 q 631 -185 653 -144 q 570 -256 610 -225 q 474 -306 531 -287 q 347 -325 417 -325 q 147 -274 219 -325 q 75 -139 75 -222 m 333 250 q 403 265 369 250 q 461 305 436 279 q 501 367 486 331 q 517 447 517 403 q 502 528 517 492 q 463 589 488 564 q 404 628 438 614 q 333 642 371 642 q 263 628 296 642 q 204 589 229 614 q 165 528 179 564 q 150 447 150 492 q 165 367 150 403 q 206 305 181 331 q 264 265 231 279 q 333 250 297 250 m 350 747 q 269 783 297 760 q 242 847 242 806 q 256 893 242 874 q 292 926 269 913 q 344 949 315 940 q 406 961 374 957 l 414 925 q 319 899 356 917 q 283 853 283 882 q 309 805 283 819 q 364 783 335 790 l 350 747 l 350 747 z "},"ǧ":{"ha":667,"x_min":75,"x_max":653,"o":"m 119 -136 q 179 -244 119 -203 q 350 -286 239 -286 q 458 -270 410 -286 q 539 -229 506 -254 q 590 -172 572 -204 q 608 -106 608 -139 q 567 -22 608 -47 q 447 3 526 3 l 294 3 q 265 5 288 3 q 214 14 242 7 q 142 -59 164 -19 q 119 -136 119 -99 m 75 -139 q 102 -51 75 -94 q 175 25 129 -8 l 175 31 q 133 72 150 46 q 117 136 117 99 q 142 213 117 182 q 189 258 168 243 l 189 264 q 131 339 157 292 q 106 447 106 386 q 123 540 106 497 q 172 613 140 582 q 244 663 203 644 q 333 681 285 681 q 383 676 361 681 q 419 664 404 671 l 642 664 l 642 625 l 481 625 q 539 550 517 596 q 561 447 561 504 q 544 354 561 397 q 495 279 526 311 q 422 229 464 247 q 333 211 381 211 q 274 219 304 211 q 219 242 243 226 q 178 199 196 222 q 161 139 161 175 q 167 103 161 119 q 188 74 174 86 q 228 54 203 61 q 292 47 253 47 l 439 47 q 601 11 550 47 q 653 -103 653 -25 q 631 -185 653 -144 q 570 -256 610 -225 q 474 -306 531 -287 q 347 -325 417 -325 q 147 -274 219 -325 q 75 -139 75 -222 m 333 250 q 403 265 369 250 q 461 305 436 279 q 501 367 486 331 q 517 447 517 403 q 502 528 517 492 q 463 589 488 564 q 404 628 438 614 q 333 642 371 642 q 263 628 296 642 q 204 589 229 614 q 165 528 179 564 q 150 447 150 492 q 165 367 150 403 q 206 305 181 331 q 264 265 231 279 q 333 250 297 250 m 169 981 l 208 981 l 317 839 l 322 839 l 431 981 l 469 981 l 339 794 l 300 794 l 169 981 z "},"ḡ":{"ha":667,"x_min":75,"x_max":653,"o":"m 119 -136 q 179 -244 119 -203 q 350 -286 239 -286 q 458 -270 410 -286 q 539 -229 506 -254 q 590 -172 572 -204 q 608 -106 608 -139 q 567 -22 608 -47 q 447 3 526 3 l 294 3 q 265 5 288 3 q 214 14 242 7 q 142 -59 164 -19 q 119 -136 119 -99 m 75 -139 q 102 -51 75 -94 q 175 25 129 -8 l 175 31 q 133 72 150 46 q 117 136 117 99 q 142 213 117 182 q 189 258 168 243 l 189 264 q 131 339 157 292 q 106 447 106 386 q 123 540 106 497 q 172 613 140 582 q 244 663 203 644 q 333 681 285 681 q 383 676 361 681 q 419 664 404 671 l 642 664 l 642 625 l 481 625 q 539 550 517 596 q 561 447 561 504 q 544 354 561 397 q 495 279 526 311 q 422 229 464 247 q 333 211 381 211 q 274 219 304 211 q 219 242 243 226 q 178 199 196 222 q 161 139 161 175 q 167 103 161 119 q 188 74 174 86 q 228 54 203 61 q 292 47 253 47 l 439 47 q 601 11 550 47 q 653 -103 653 -25 q 631 -185 653 -144 q 570 -256 610 -225 q 474 -306 531 -287 q 347 -325 417 -325 q 147 -274 219 -325 q 75 -139 75 -222 m 333 250 q 403 265 369 250 q 461 305 436 279 q 501 367 486 331 q 517 447 517 403 q 502 528 517 492 q 463 589 488 564 q 404 628 438 614 q 333 642 371 642 q 263 628 296 642 q 204 589 229 614 q 165 528 179 564 q 150 447 150 492 q 165 367 150 403 q 206 305 181 331 q 264 265 231 279 q 333 250 297 250 m 167 883 l 472 883 l 472 844 l 167 844 l 167 883 z "},"ĥ":{"ha":725,"x_min":4,"x_max":608,"o":"m 133 1003 l 175 1003 l 175 706 l 175 556 q 284 645 229 610 q 408 681 339 681 q 560 619 511 681 q 608 428 608 558 l 608 0 l 567 0 l 567 422 q 529 588 567 533 q 406 642 492 642 q 291 608 343 642 q 175 508 239 575 l 175 0 l 133 0 l 133 1003 m 4 1039 l 138 1183 l 176 1183 l 310 1039 l 268 1039 l 160 1142 l 154 1142 l 46 1039 l 4 1039 z "},"ḥ":{"ha":725,"x_min":133,"x_max":608,"o":"m 133 1003 l 175 1003 l 175 706 l 175 556 q 284 645 229 610 q 408 681 339 681 q 560 619 511 681 q 608 428 608 558 l 608 0 l 567 0 l 567 422 q 529 588 567 533 q 406 642 492 642 q 291 608 343 642 q 175 508 239 575 l 175 0 l 133 0 l 133 1003 m 389 -264 q 357 -251 369 -264 q 344 -214 344 -237 q 357 -180 344 -193 q 389 -167 369 -167 q 421 -180 408 -167 q 433 -214 433 -193 q 421 -251 433 -237 q 389 -264 408 -264 z "},"ḫ":{"ha":725,"x_min":133,"x_max":608,"o":"m 133 1003 l 175 1003 l 175 706 l 175 556 q 284 645 229 610 q 408 681 339 681 q 560 619 511 681 q 608 428 608 558 l 608 0 l 567 0 l 567 422 q 529 588 567 533 q 406 642 492 642 q 291 608 343 642 q 175 508 239 575 l 175 0 l 133 0 l 133 1003 m 388 -281 q 317 -265 346 -281 q 269 -225 288 -249 q 240 -173 250 -201 q 226 -119 229 -144 l 263 -119 q 274 -165 265 -143 q 299 -205 283 -187 q 336 -233 314 -222 q 388 -244 358 -244 q 439 -233 417 -244 q 476 -205 461 -222 q 501 -165 492 -187 q 513 -119 510 -143 l 549 -119 q 535 -173 546 -144 q 506 -225 525 -201 q 458 -265 488 -249 q 388 -281 429 -281 z "},"ħ":{"ha":725,"x_min":25,"x_max":608,"o":"m 175 528 q 284 617 229 582 q 408 653 339 653 q 560 592 511 653 q 608 400 608 531 l 608 0 l 567 0 l 567 394 q 529 560 567 506 q 406 614 492 614 q 291 581 343 614 q 175 481 239 547 l 175 0 l 133 0 l 133 811 l 25 811 l 25 844 l 133 850 l 133 1003 l 175 1003 l 175 850 l 442 850 l 442 811 l 175 811 l 175 678 l 175 528 z "},"ì":{"ha":308,"x_min":43,"x_max":226,"o":"m 133 664 l 175 664 l 175 0 l 133 0 l 133 664 m 43 981 l 99 981 l 226 794 l 188 794 l 43 981 z "},"í":{"ha":308,"x_min":82,"x_max":265,"o":"m 133 664 l 175 664 l 175 0 l 133 0 l 133 664 m 121 794 l 82 794 l 210 981 l 265 981 l 121 794 z "},"î":{"ha":308,"x_min":4,"x_max":304,"o":"m 133 664 l 175 664 l 175 0 l 133 0 l 133 664 m 135 981 l 174 981 l 304 794 l 265 794 l 157 936 l 151 936 l 43 794 l 4 794 l 135 981 z "},"ĩ":{"ha":308,"x_min":-10,"x_max":318,"o":"m 133 664 l 175 664 l 175 0 l 133 0 l 133 664 m -10 808 q -3 847 -8 826 q 12 883 1 867 q 38 911 22 900 q 79 922 54 922 q 124 910 104 922 q 163 883 144 897 q 197 856 181 868 q 232 844 214 844 q 268 865 256 844 q 285 922 281 886 l 318 922 q 312 884 317 904 q 297 847 307 864 q 270 819 286 831 q 229 808 254 808 q 185 820 204 808 q 147 847 165 832 q 113 874 129 861 q 76 886 96 886 q 40 865 53 886 q 24 808 28 844 l -10 808 l -10 808 z "},"ï":{"ha":308,"x_min":4,"x_max":304,"o":"m 133 664 l 175 664 l 175 0 l 133 0 l 133 664 m 49 836 q 17 849 29 836 q 4 881 4 861 q 17 913 4 900 q 49 925 29 925 q 81 913 68 925 q 93 881 93 900 q 81 849 93 861 q 49 836 68 836 m 260 836 q 228 849 240 836 q 215 881 215 861 q 228 913 215 900 q 260 925 240 925 q 292 913 279 925 q 304 881 304 900 q 292 849 304 861 q 260 836 279 836 z "},"ī":{"ha":308,"x_min":1,"x_max":307,"o":"m 133 664 l 175 664 l 175 0 l 133 0 l 133 664 m 1 883 l 307 883 l 307 844 l 1 844 l 1 883 z "},"ǐ":{"ha":308,"x_min":4,"x_max":304,"o":"m 133 664 l 175 664 l 175 0 l 133 0 l 133 664 m 4 981 l 43 981 l 151 839 l 157 839 l 265 981 l 304 981 l 174 794 l 135 794 l 4 981 z "},"ỉ":{"ha":308,"x_min":85,"x_max":246,"o":"m 133 664 l 175 664 l 175 0 l 133 0 l 133 664 m 113 794 q 178 825 153 807 q 204 875 204 843 q 173 925 204 908 q 85 944 142 942 l 88 981 q 147 974 118 979 q 197 956 175 968 q 233 925 219 943 q 246 881 246 907 q 235 835 246 854 q 208 803 225 817 q 168 781 190 790 q 124 764 146 771 l 113 794 z "},"ị":{"ha":308,"x_min":108,"x_max":203,"o":"m 156 833 q 122 847 136 833 q 108 881 108 860 q 122 916 108 904 q 156 928 136 928 q 189 916 175 928 q 203 881 203 904 q 189 847 203 860 q 156 833 175 833 m 133 664 l 175 664 l 175 0 l 133 0 l 133 664 m 156 -264 q 124 -251 136 -264 q 111 -214 111 -237 q 124 -180 111 -193 q 156 -167 136 -167 q 188 -180 175 -167 q 200 -214 200 -193 q 188 -251 200 -237 q 156 -264 175 -264 z "},"į":{"ha":308,"x_min":50,"x_max":242,"o":"m 133 664 l 175 664 l 175 0 q 117 -79 143 -37 q 92 -167 92 -121 q 113 -223 92 -204 q 161 -242 133 -242 q 194 -237 181 -242 q 222 -222 207 -233 l 242 -250 q 203 -272 226 -262 q 158 -281 179 -281 q 81 -253 113 -281 q 50 -169 50 -226 q 77 -76 50 -117 q 136 0 104 -36 l 133 0 l 133 664 m 153 833 q 119 847 133 833 q 106 881 106 860 q 119 916 106 904 q 153 928 133 928 q 186 916 172 928 q 200 881 200 904 q 186 847 200 860 q 153 833 172 833 z "},"ı":{"ha":308,"x_min":133,"x_max":175,"o":"m 133 664 l 175 664 l 175 0 l 133 0 l 133 664 z "},"ĵ":{"ha":308,"x_min":-42,"x_max":304,"o":"m 133 664 l 175 664 l 175 -142 q 142 -281 175 -237 q 39 -325 108 -325 q -4 -320 18 -325 q -42 -308 -26 -315 l -31 -272 q 1 -281 -18 -276 q 42 -286 21 -286 q 89 -275 71 -286 q 117 -244 107 -264 q 130 -196 126 -224 q 133 -136 133 -168 l 133 664 m 135 981 l 174 981 l 304 794 l 265 794 l 157 936 l 151 936 l 43 794 l 4 794 l 135 981 z "},"ķ":{"ha":628,"x_min":133,"x_max":611,"o":"m 133 1003 l 175 1003 l 175 242 l 178 242 l 522 664 l 572 664 l 358 403 l 611 0 l 564 0 l 333 369 l 175 183 l 175 0 l 133 0 l 133 1003 m 317 -72 q 397 -108 369 -85 q 425 -172 425 -131 q 411 -218 425 -199 q 374 -251 397 -237 q 322 -274 351 -265 q 261 -286 292 -282 l 253 -250 q 347 -224 311 -242 q 383 -178 383 -207 q 358 -130 383 -144 q 303 -108 332 -115 l 317 -72 l 317 -72 z "},"ĸ":{"ha":628,"x_min":133,"x_max":611,"o":"m 133 664 l 175 664 l 175 242 l 178 242 l 522 664 l 572 664 l 358 403 l 611 0 l 564 0 l 333 369 l 175 183 l 175 0 l 133 0 l 133 664 z "},"ĺ":{"ha":319,"x_min":97,"x_max":289,"o":"m 133 1003 l 175 1003 l 175 64 q 203 22 175 22 q 212 22 207 22 q 228 25 217 22 l 236 -11 q 220 -15 228 -14 q 200 -17 213 -17 q 151 3 168 -17 q 133 72 133 24 l 133 1003 m 139 1056 l 97 1056 l 228 1200 l 289 1200 l 139 1056 z "},"ľ":{"ha":308,"x_min":133,"x_max":308,"o":"m 133 1003 l 175 1003 l 175 64 q 203 22 175 22 q 212 22 207 22 q 228 25 217 22 l 236 -11 q 220 -15 228 -14 q 200 -17 213 -17 q 151 3 168 -17 q 133 72 133 24 l 133 1003 m 269 761 l 267 1044 l 308 1044 l 308 978 l 300 761 l 269 761 z "},"ŀ":{"ha":400,"x_min":133,"x_max":403,"o":"m 133 1003 l 175 1003 l 175 64 q 203 22 175 22 q 212 22 207 22 q 228 25 217 22 l 236 -11 q 220 -15 228 -14 q 200 -17 213 -17 q 151 3 168 -17 q 133 72 133 24 l 133 1003 m 303 447 q 318 489 303 475 q 353 503 333 503 q 388 489 372 503 q 403 447 403 475 q 388 408 403 422 q 353 394 372 394 q 318 408 333 394 q 303 447 303 422 z "},"ļ":{"ha":319,"x_min":117,"x_max":289,"o":"m 133 1003 l 175 1003 l 175 64 q 203 22 175 22 q 212 22 207 22 q 228 25 217 22 l 236 -11 q 220 -15 228 -14 q 200 -17 213 -17 q 151 3 168 -17 q 133 72 133 24 l 133 1003 m 181 -72 q 261 -108 233 -85 q 289 -172 289 -131 q 275 -218 289 -199 q 238 -251 261 -237 q 185 -274 215 -265 q 125 -286 156 -282 l 117 -250 q 211 -224 175 -242 q 247 -178 247 -207 q 222 -130 247 -144 q 167 -108 196 -115 l 181 -72 l 181 -72 z "},"ḷ":{"ha":319,"x_min":133,"x_max":258,"o":"m 133 1003 l 175 1003 l 175 64 q 203 22 175 22 q 212 22 207 22 q 228 25 217 22 l 236 -11 q 220 -15 228 -14 q 200 -17 213 -17 q 151 3 168 -17 q 133 72 133 24 l 133 1003 m 214 -264 q 182 -251 194 -264 q 169 -214 169 -237 q 182 -180 169 -193 q 214 -167 194 -167 q 246 -180 233 -167 q 258 -214 258 -193 q 246 -251 258 -237 q 214 -264 233 -264 z "},"ḹ":{"ha":319,"x_min":0,"x_max":306,"o":"m 133 1003 l 175 1003 l 175 64 q 203 22 175 22 q 212 22 207 22 q 228 25 217 22 l 236 -11 q 220 -15 228 -14 q 200 -17 213 -17 q 151 3 168 -17 q 133 72 133 24 l 133 1003 m 0 1200 l 306 1200 l 306 1161 l 0 1161 l 0 1200 m 214 -264 q 182 -251 194 -264 q 169 -214 169 -237 q 182 -180 169 -193 q 214 -167 194 -167 q 246 -180 233 -167 q 258 -214 258 -193 q 246 -251 258 -237 q 214 -264 233 -264 z "},"ḻ":{"ha":319,"x_min":58,"x_max":367,"o":"m 133 1003 l 175 1003 l 175 64 q 203 22 175 22 q 212 22 207 22 q 228 25 217 22 l 236 -11 q 220 -15 228 -14 q 200 -17 213 -17 q 151 3 168 -17 q 133 72 133 24 l 133 1003 m 367 -217 l 58 -217 l 58 -178 l 367 -178 l 367 -217 z "},"ł":{"ha":319,"x_min":42,"x_max":278,"o":"m 175 547 l 175 64 q 203 22 175 22 q 212 22 207 22 q 228 25 217 22 l 236 -11 q 220 -15 228 -14 q 200 -17 213 -17 q 151 3 168 -17 q 133 72 133 24 l 133 522 l 42 461 l 42 506 l 133 567 l 133 1003 l 175 1003 l 175 592 l 278 661 l 278 617 l 175 547 z "},"ṃ":{"ha":1119,"x_min":133,"x_max":997,"o":"m 133 664 l 169 664 l 175 558 l 178 558 q 279 646 224 611 q 389 681 335 681 q 513 642 471 681 q 572 542 556 604 q 687 644 631 607 q 800 681 743 681 q 948 619 899 681 q 997 428 997 558 l 997 0 l 956 0 l 956 422 q 917 588 956 533 q 797 642 879 642 q 696 608 747 642 q 586 508 644 575 l 586 0 l 544 0 l 544 422 q 506 588 544 533 q 386 642 468 642 q 175 508 292 642 l 175 0 l 133 0 l 133 664 m 578 -264 q 546 -251 558 -264 q 533 -214 533 -237 q 546 -180 533 -193 q 578 -167 558 -167 q 610 -180 597 -167 q 622 -214 622 -193 q 610 -251 622 -237 q 578 -264 597 -264 z "},"ń":{"ha":731,"x_min":133,"x_max":608,"o":"m 133 664 l 169 664 l 175 558 l 178 558 q 285 646 231 611 q 408 681 339 681 q 560 619 511 681 q 608 428 608 558 l 608 0 l 567 0 l 567 422 q 529 588 567 533 q 406 642 492 642 q 291 608 343 642 q 175 508 239 575 l 175 0 l 133 0 l 133 664 m 354 794 l 315 794 l 443 981 l 499 981 l 354 794 z "},"ň":{"ha":731,"x_min":133,"x_max":608,"o":"m 133 664 l 169 664 l 175 558 l 178 558 q 285 646 231 611 q 408 681 339 681 q 560 619 511 681 q 608 428 608 558 l 608 0 l 567 0 l 567 422 q 529 588 567 533 q 406 642 492 642 q 291 608 343 642 q 175 508 239 575 l 175 0 l 133 0 l 133 664 m 238 981 l 276 981 l 385 839 l 390 839 l 499 981 l 538 981 l 407 794 l 368 794 l 238 981 z "},"ñ":{"ha":731,"x_min":133,"x_max":608,"o":"m 133 664 l 169 664 l 175 558 l 178 558 q 285 646 231 611 q 408 681 339 681 q 560 619 511 681 q 608 428 608 558 l 608 0 l 567 0 l 567 422 q 529 588 567 533 q 406 642 492 642 q 291 608 343 642 q 175 508 239 575 l 175 0 l 133 0 l 133 664 m 224 808 q 230 847 225 826 q 245 883 235 867 q 272 911 256 900 q 313 922 288 922 q 358 910 338 922 q 396 883 378 897 q 431 856 414 868 q 465 844 447 844 q 501 865 489 844 q 518 922 514 886 l 551 922 q 545 884 550 904 q 530 847 540 864 q 503 819 519 831 q 463 808 488 808 q 418 820 438 808 q 381 847 399 832 q 346 874 363 861 q 310 886 329 886 q 274 865 286 886 q 257 808 261 844 l 224 808 l 224 808 z "},"ņ":{"ha":731,"x_min":133,"x_max":608,"o":"m 133 664 l 169 664 l 175 558 l 178 558 q 285 646 231 611 q 408 681 339 681 q 560 619 511 681 q 608 428 608 558 l 608 0 l 567 0 l 567 422 q 529 588 567 533 q 406 642 492 642 q 291 608 343 642 q 175 508 239 575 l 175 0 l 133 0 l 133 664 m 340 -72 q 421 -108 393 -85 q 449 -172 449 -131 q 435 -218 449 -199 q 398 -251 421 -237 q 345 -274 375 -265 q 285 -286 315 -282 l 276 -250 q 371 -224 335 -242 q 407 -178 407 -207 q 381 -130 407 -144 q 326 -108 356 -115 l 340 -72 l 340 -72 z "},"ṅ":{"ha":731,"x_min":133,"x_max":608,"o":"m 133 664 l 169 664 l 175 558 l 178 558 q 285 646 231 611 q 408 681 339 681 q 560 619 511 681 q 608 428 608 558 l 608 0 l 567 0 l 567 422 q 529 588 567 533 q 406 642 492 642 q 291 608 343 642 q 175 508 239 575 l 175 0 l 133 0 l 133 664 m 388 833 q 356 847 368 833 q 343 883 343 860 q 356 917 343 904 q 388 931 368 931 q 419 917 407 931 q 432 883 432 904 q 419 847 432 860 q 388 833 407 833 z "},"ṇ":{"ha":731,"x_min":133,"x_max":608,"o":"m 133 664 l 169 664 l 175 558 l 178 558 q 285 646 231 611 q 408 681 339 681 q 560 619 511 681 q 608 428 608 558 l 608 0 l 567 0 l 567 422 q 529 588 567 533 q 406 642 492 642 q 291 608 343 642 q 175 508 239 575 l 175 0 l 133 0 l 133 664 m 375 -264 q 343 -251 356 -264 q 331 -214 331 -237 q 343 -180 331 -193 q 375 -167 356 -167 q 407 -180 394 -167 q 419 -214 419 -193 q 407 -251 419 -237 q 375 -264 394 -264 z "},"ṉ":{"ha":731,"x_min":133,"x_max":608,"o":"m 133 664 l 169 664 l 175 558 l 178 558 q 285 646 231 611 q 408 681 339 681 q 560 619 511 681 q 608 428 608 558 l 608 0 l 567 0 l 567 422 q 529 588 567 533 q 406 642 492 642 q 291 608 343 642 q 175 508 239 575 l 175 0 l 133 0 l 133 664 m 526 -217 l 218 -217 l 218 -178 l 526 -178 l 526 -217 z "},"ŉ":{"ha":989,"x_min":78,"x_max":854,"o":"m 78 711 q 144 786 122 749 q 167 882 167 824 q 156 881 164 881 q 124 891 139 881 q 108 925 108 901 q 122 960 108 949 q 156 972 135 972 q 194 952 179 972 q 208 892 208 932 q 179 772 208 821 q 100 686 150 722 l 78 711 m 379 664 l 415 664 l 421 558 l 424 558 q 531 646 476 611 q 654 681 585 681 q 806 619 757 681 q 854 428 854 558 l 854 0 l 813 0 l 813 422 q 775 588 813 533 q 651 642 738 642 q 537 608 589 642 q 421 508 485 575 l 421 0 l 379 0 l 379 664 z "},"ò":{"ha":739,"x_min":75,"x_max":664,"o":"m 75 331 q 99 479 75 414 q 163 589 122 544 q 256 657 203 633 q 369 681 310 681 q 483 657 429 681 q 576 589 536 633 q 640 479 617 544 q 664 331 664 414 q 640 184 664 249 q 576 75 617 119 q 483 7 536 31 q 369 -17 429 -17 q 256 7 310 -17 q 163 75 203 31 q 99 184 122 119 q 75 331 75 249 m 119 331 q 139 205 119 261 q 192 108 158 149 q 271 44 225 67 q 369 22 317 22 q 468 44 422 22 q 547 108 514 67 q 600 205 581 149 q 619 331 619 261 q 600 456 619 399 q 547 555 581 514 q 468 619 514 596 q 369 642 422 642 q 271 619 317 642 q 192 555 225 596 q 139 456 158 514 q 119 331 119 399 m 258 981 l 314 981 l 442 794 l 403 794 l 258 981 z "},"ó":{"ha":739,"x_min":75,"x_max":664,"o":"m 75 331 q 99 479 75 414 q 163 589 122 544 q 256 657 203 633 q 369 681 310 681 q 483 657 429 681 q 576 589 536 633 q 640 479 617 544 q 664 331 664 414 q 640 184 664 249 q 576 75 617 119 q 483 7 536 31 q 369 -17 429 -17 q 256 7 310 -17 q 163 75 203 31 q 99 184 122 119 q 75 331 75 249 m 119 331 q 139 205 119 261 q 192 108 158 149 q 271 44 225 67 q 369 22 317 22 q 468 44 422 22 q 547 108 514 67 q 600 205 581 149 q 619 331 619 261 q 600 456 619 399 q 547 555 581 514 q 468 619 514 596 q 369 642 422 642 q 271 619 317 642 q 192 555 225 596 q 139 456 158 514 q 119 331 119 399 m 336 794 l 297 794 l 425 981 l 481 981 l 336 794 z "},"ô":{"ha":739,"x_min":75,"x_max":664,"o":"m 75 331 q 99 479 75 414 q 163 589 122 544 q 256 657 203 633 q 369 681 310 681 q 483 657 429 681 q 576 589 536 633 q 640 479 617 544 q 664 331 664 414 q 640 184 664 249 q 576 75 617 119 q 483 7 536 31 q 369 -17 429 -17 q 256 7 310 -17 q 163 75 203 31 q 99 184 122 119 q 75 331 75 249 m 119 331 q 139 205 119 261 q 192 108 158 149 q 271 44 225 67 q 369 22 317 22 q 468 44 422 22 q 547 108 514 67 q 600 205 581 149 q 619 331 619 261 q 600 456 619 399 q 547 555 581 514 q 468 619 514 596 q 369 642 422 642 q 271 619 317 642 q 192 555 225 596 q 139 456 158 514 q 119 331 119 399 m 350 981 l 389 981 l 519 794 l 481 794 l 372 936 l 367 936 l 258 794 l 219 794 l 350 981 z "},"õ":{"ha":739,"x_min":75,"x_max":664,"o":"m 75 331 q 99 479 75 414 q 163 589 122 544 q 256 657 203 633 q 369 681 310 681 q 483 657 429 681 q 576 589 536 633 q 640 479 617 544 q 664 331 664 414 q 640 184 664 249 q 576 75 617 119 q 483 7 536 31 q 369 -17 429 -17 q 256 7 310 -17 q 163 75 203 31 q 99 184 122 119 q 75 331 75 249 m 119 331 q 139 205 119 261 q 192 108 158 149 q 271 44 225 67 q 369 22 317 22 q 468 44 422 22 q 547 108 514 67 q 600 205 581 149 q 619 331 619 261 q 600 456 619 399 q 547 555 581 514 q 468 619 514 596 q 369 642 422 642 q 271 619 317 642 q 192 555 225 596 q 139 456 158 514 q 119 331 119 399 m 206 808 q 212 847 207 826 q 227 883 217 867 q 253 911 238 900 q 294 922 269 922 q 340 910 319 922 q 378 883 360 897 q 413 856 396 868 q 447 844 429 844 q 483 865 471 844 q 500 922 496 886 l 533 922 q 527 884 532 904 q 512 847 522 864 q 485 819 501 831 q 444 808 469 808 q 400 820 419 808 q 363 847 381 832 q 328 874 344 861 q 292 886 311 886 q 256 865 268 886 q 239 808 243 844 l 206 808 l 206 808 z "},"ö":{"ha":739,"x_min":75,"x_max":664,"o":"m 75 331 q 99 479 75 414 q 163 589 122 544 q 256 657 203 633 q 369 681 310 681 q 483 657 429 681 q 576 589 536 633 q 640 479 617 544 q 664 331 664 414 q 640 184 664 249 q 576 75 617 119 q 483 7 536 31 q 369 -17 429 -17 q 256 7 310 -17 q 163 75 203 31 q 99 184 122 119 q 75 331 75 249 m 119 331 q 139 205 119 261 q 192 108 158 149 q 271 44 225 67 q 369 22 317 22 q 468 44 422 22 q 547 108 514 67 q 600 205 581 149 q 619 331 619 261 q 600 456 619 399 q 547 555 581 514 q 468 619 514 596 q 369 642 422 642 q 271 619 317 642 q 192 555 225 596 q 139 456 158 514 q 119 331 119 399 m 264 836 q 232 849 244 836 q 219 881 219 861 q 232 913 219 900 q 264 925 244 925 q 296 913 283 925 q 308 881 308 900 q 296 849 308 861 q 264 836 283 836 m 475 836 q 443 849 456 836 q 431 881 431 861 q 443 913 431 900 q 475 925 456 925 q 507 913 494 925 q 519 881 519 900 q 507 849 519 861 q 475 836 494 836 z "},"ō":{"ha":739,"x_min":75,"x_max":664,"o":"m 75 331 q 99 479 75 414 q 163 589 122 544 q 256 657 203 633 q 369 681 310 681 q 483 657 429 681 q 576 589 536 633 q 640 479 617 544 q 664 331 664 414 q 640 184 664 249 q 576 75 617 119 q 483 7 536 31 q 369 -17 429 -17 q 256 7 310 -17 q 163 75 203 31 q 99 184 122 119 q 75 331 75 249 m 119 331 q 139 205 119 261 q 192 108 158 149 q 271 44 225 67 q 369 22 317 22 q 468 44 422 22 q 547 108 514 67 q 600 205 581 149 q 619 331 619 261 q 600 456 619 399 q 547 555 581 514 q 468 619 514 596 q 369 642 422 642 q 271 619 317 642 q 192 555 225 596 q 139 456 158 514 q 119 331 119 399 m 217 883 l 522 883 l 522 844 l 217 844 l 217 883 z "},"ő":{"ha":739,"x_min":75,"x_max":664,"o":"m 75 331 q 99 479 75 414 q 163 589 122 544 q 256 657 203 633 q 369 681 310 681 q 483 657 429 681 q 576 589 536 633 q 640 479 617 544 q 664 331 664 414 q 640 184 664 249 q 576 75 617 119 q 483 7 536 31 q 369 -17 429 -17 q 256 7 310 -17 q 163 75 203 31 q 99 184 122 119 q 75 331 75 249 m 119 331 q 139 205 119 261 q 192 108 158 149 q 271 44 225 67 q 369 22 317 22 q 468 44 422 22 q 547 108 514 67 q 600 205 581 149 q 619 331 619 261 q 600 456 619 399 q 547 555 581 514 q 468 619 514 596 q 369 642 422 642 q 271 619 317 642 q 192 555 225 596 q 139 456 158 514 q 119 331 119 399 m 364 981 l 414 981 l 300 792 l 264 792 l 364 981 m 542 981 l 592 981 l 478 792 l 442 792 l 542 981 z "},"ǒ":{"ha":739,"x_min":75,"x_max":664,"o":"m 75 331 q 99 479 75 414 q 163 589 122 544 q 256 657 203 633 q 369 681 310 681 q 483 657 429 681 q 576 589 536 633 q 640 479 617 544 q 664 331 664 414 q 640 184 664 249 q 576 75 617 119 q 483 7 536 31 q 369 -17 429 -17 q 256 7 310 -17 q 163 75 203 31 q 99 184 122 119 q 75 331 75 249 m 119 331 q 139 205 119 261 q 192 108 158 149 q 271 44 225 67 q 369 22 317 22 q 468 44 422 22 q 547 108 514 67 q 600 205 581 149 q 619 331 619 261 q 600 456 619 399 q 547 555 581 514 q 468 619 514 596 q 369 642 422 642 q 271 619 317 642 q 192 555 225 596 q 139 456 158 514 q 119 331 119 399 m 219 981 l 258 981 l 367 839 l 372 839 l 481 981 l 519 981 l 389 794 l 350 794 l 219 981 z "},"ọ":{"ha":739,"x_min":75,"x_max":664,"o":"m 75 331 q 99 479 75 414 q 163 589 122 544 q 256 657 203 633 q 369 681 310 681 q 483 657 429 681 q 576 589 536 633 q 640 479 617 544 q 664 331 664 414 q 640 184 664 249 q 576 75 617 119 q 483 7 536 31 q 369 -17 429 -17 q 256 7 310 -17 q 163 75 203 31 q 99 184 122 119 q 75 331 75 249 m 119 331 q 139 205 119 261 q 192 108 158 149 q 271 44 225 67 q 369 22 317 22 q 468 44 422 22 q 547 108 514 67 q 600 205 581 149 q 619 331 619 261 q 600 456 619 399 q 547 555 581 514 q 468 619 514 596 q 369 642 422 642 q 271 619 317 642 q 192 555 225 596 q 139 456 158 514 q 119 331 119 399 m 371 -264 q 339 -251 351 -264 q 326 -214 326 -237 q 339 -180 326 -193 q 371 -167 351 -167 q 403 -180 390 -167 q 415 -214 415 -193 q 403 -251 415 -237 q 371 -264 390 -264 z "},"ỏ":{"ha":739,"x_min":75,"x_max":664,"o":"m 75 331 q 99 479 75 414 q 163 589 122 544 q 256 657 203 633 q 369 681 310 681 q 483 657 429 681 q 576 589 536 633 q 640 479 617 544 q 664 331 664 414 q 640 184 664 249 q 576 75 617 119 q 483 7 536 31 q 369 -17 429 -17 q 256 7 310 -17 q 163 75 203 31 q 99 184 122 119 q 75 331 75 249 m 119 331 q 139 205 119 261 q 192 108 158 149 q 271 44 225 67 q 369 22 317 22 q 468 44 422 22 q 547 108 514 67 q 600 205 581 149 q 619 331 619 261 q 600 456 619 399 q 547 555 581 514 q 468 619 514 596 q 369 642 422 642 q 271 619 317 642 q 192 555 225 596 q 139 456 158 514 q 119 331 119 399 m 328 794 q 394 825 368 807 q 419 875 419 843 q 388 925 419 908 q 300 944 357 942 l 303 981 q 362 974 333 979 q 413 956 390 968 q 448 925 435 943 q 461 881 461 907 q 451 835 461 854 q 423 803 440 817 q 383 781 406 790 q 339 764 361 771 l 328 794 z "},"ố":{"ha":739,"x_min":75,"x_max":664,"o":"m 75 331 q 99 479 75 414 q 163 589 122 544 q 256 657 203 633 q 369 681 310 681 q 483 657 429 681 q 576 589 536 633 q 640 479 617 544 q 664 331 664 414 q 640 184 664 249 q 576 75 617 119 q 483 7 536 31 q 369 -17 429 -17 q 256 7 310 -17 q 163 75 203 31 q 99 184 122 119 q 75 331 75 249 m 119 331 q 139 205 119 261 q 192 108 158 149 q 271 44 225 67 q 369 22 317 22 q 468 44 422 22 q 547 108 514 67 q 600 205 581 149 q 619 331 619 261 q 600 456 619 399 q 547 555 581 514 q 468 619 514 596 q 369 642 422 642 q 271 619 317 642 q 192 555 225 596 q 139 456 158 514 q 119 331 119 399 m 350 950 l 389 950 l 506 794 l 467 794 l 372 906 l 367 906 l 272 794 l 233 794 l 350 950 m 581 1036 l 633 1036 l 508 883 l 472 883 l 581 1036 z "},"ồ":{"ha":739,"x_min":75,"x_max":664,"o":"m 75 331 q 99 479 75 414 q 163 589 122 544 q 256 657 203 633 q 369 681 310 681 q 483 657 429 681 q 576 589 536 633 q 640 479 617 544 q 664 331 664 414 q 640 184 664 249 q 576 75 617 119 q 483 7 536 31 q 369 -17 429 -17 q 256 7 310 -17 q 163 75 203 31 q 99 184 122 119 q 75 331 75 249 m 119 331 q 139 205 119 261 q 192 108 158 149 q 271 44 225 67 q 369 22 317 22 q 468 44 422 22 q 547 108 514 67 q 600 205 581 149 q 619 331 619 261 q 600 456 619 399 q 547 555 581 514 q 468 619 514 596 q 369 642 422 642 q 271 619 317 642 q 192 555 225 596 q 139 456 158 514 q 119 331 119 399 m 350 950 l 389 950 l 506 794 l 467 794 l 372 906 l 367 906 l 272 794 l 233 794 l 350 950 m 594 883 l 558 883 l 433 1036 l 486 1036 l 594 883 z "},"ổ":{"ha":739,"x_min":75,"x_max":664,"o":"m 75 331 q 99 479 75 414 q 163 589 122 544 q 256 657 203 633 q 369 681 310 681 q 483 657 429 681 q 576 589 536 633 q 640 479 617 544 q 664 331 664 414 q 640 184 664 249 q 576 75 617 119 q 483 7 536 31 q 369 -17 429 -17 q 256 7 310 -17 q 163 75 203 31 q 99 184 122 119 q 75 331 75 249 m 119 331 q 139 205 119 261 q 192 108 158 149 q 271 44 225 67 q 369 22 317 22 q 468 44 422 22 q 547 108 514 67 q 600 205 581 149 q 619 331 619 261 q 600 456 619 399 q 547 555 581 514 q 468 619 514 596 q 369 642 422 642 q 271 619 317 642 q 192 555 225 596 q 139 456 158 514 q 119 331 119 399 m 350 950 l 389 950 l 506 794 l 467 794 l 372 906 l 367 906 l 272 794 l 233 794 l 350 950 m 494 903 q 547 929 526 914 q 567 969 567 944 q 542 1018 567 1003 q 467 1036 517 1033 l 469 1069 q 522 1063 496 1068 q 566 1046 547 1057 q 597 1017 585 1035 q 608 975 608 1000 q 599 935 608 951 q 574 907 589 919 q 542 886 560 894 q 506 872 524 878 l 494 903 z "},"ỗ":{"ha":739,"x_min":75,"x_max":664,"o":"m 75 331 q 99 479 75 414 q 163 589 122 544 q 256 657 203 633 q 369 681 310 681 q 483 657 429 681 q 576 589 536 633 q 640 479 617 544 q 664 331 664 414 q 640 184 664 249 q 576 75 617 119 q 483 7 536 31 q 369 -17 429 -17 q 256 7 310 -17 q 163 75 203 31 q 99 184 122 119 q 75 331 75 249 m 119 331 q 139 205 119 261 q 192 108 158 149 q 271 44 225 67 q 369 22 317 22 q 468 44 422 22 q 547 108 514 67 q 600 205 581 149 q 619 331 619 261 q 600 456 619 399 q 547 555 581 514 q 468 619 514 596 q 369 642 422 642 q 271 619 317 642 q 192 555 225 596 q 139 456 158 514 q 119 331 119 399 m 350 928 l 389 928 l 517 792 l 478 792 l 372 889 l 367 889 l 261 792 l 222 792 l 350 928 m 206 978 q 213 1012 207 994 q 229 1044 218 1029 q 258 1068 240 1058 q 300 1078 275 1078 q 343 1068 325 1078 q 377 1046 361 1058 q 408 1024 393 1033 q 442 1014 422 1014 q 481 1030 465 1014 q 500 1078 496 1046 l 533 1078 q 526 1043 532 1061 q 510 1010 521 1025 q 481 987 499 996 q 439 978 464 978 q 396 988 414 978 q 362 1010 378 997 q 331 1032 346 1022 q 297 1042 315 1042 q 258 1026 274 1042 q 239 978 243 1010 l 206 978 z "},"ộ":{"ha":739,"x_min":75,"x_max":664,"o":"m 75 331 q 99 479 75 414 q 163 589 122 544 q 256 657 203 633 q 369 681 310 681 q 483 657 429 681 q 576 589 536 633 q 640 479 617 544 q 664 331 664 414 q 640 184 664 249 q 576 75 617 119 q 483 7 536 31 q 369 -17 429 -17 q 256 7 310 -17 q 163 75 203 31 q 99 184 122 119 q 75 331 75 249 m 119 331 q 139 205 119 261 q 192 108 158 149 q 271 44 225 67 q 369 22 317 22 q 468 44 422 22 q 547 108 514 67 q 600 205 581 149 q 619 331 619 261 q 600 456 619 399 q 547 555 581 514 q 468 619 514 596 q 369 642 422 642 q 271 619 317 642 q 192 555 225 596 q 139 456 158 514 q 119 331 119 399 m 350 981 l 389 981 l 519 794 l 481 794 l 372 936 l 367 936 l 258 794 l 219 794 l 350 981 m 371 -264 q 339 -251 351 -264 q 326 -214 326 -237 q 339 -180 326 -193 q 371 -167 351 -167 q 403 -180 390 -167 q 415 -214 415 -193 q 403 -251 415 -237 q 371 -264 390 -264 z "},"ø":{"ha":739,"x_min":64,"x_max":675,"o":"m 200 97 q 276 42 233 61 q 369 22 319 22 q 468 44 422 22 q 547 108 514 67 q 600 205 581 149 q 619 331 619 261 q 605 442 619 392 q 564 533 590 493 l 200 97 m 539 565 q 463 622 506 601 q 369 642 419 642 q 271 619 317 642 q 192 555 225 596 q 139 456 158 514 q 119 331 119 399 q 134 219 119 269 q 175 129 149 168 l 539 565 m 593 568 q 645 465 626 524 q 664 331 664 406 q 640 184 664 249 q 576 75 617 119 q 483 7 536 31 q 369 -17 429 -17 q 264 3 314 -17 q 174 64 214 24 l 94 -31 l 64 -6 l 147 94 q 94 197 114 139 q 75 331 75 256 q 99 479 75 414 q 163 589 122 544 q 256 657 203 633 q 369 681 310 681 q 476 660 426 681 q 567 599 526 639 l 644 692 l 675 667 l 593 568 z "},"œ":{"ha":1183,"x_min":75,"x_max":1131,"o":"m 119 331 q 138 205 119 261 q 190 108 157 149 q 267 44 222 67 q 364 22 311 22 q 462 44 417 22 q 540 108 507 67 q 590 205 572 149 q 608 331 608 261 q 590 456 608 399 q 540 555 572 514 q 462 619 507 596 q 364 642 417 642 q 267 619 311 642 q 190 555 222 596 q 138 456 157 514 q 119 331 119 399 m 75 331 q 99 479 75 414 q 162 589 122 544 q 254 657 201 633 q 364 681 307 681 q 519 628 446 681 q 628 472 592 576 q 731 624 664 568 q 881 681 797 681 q 1063 602 996 681 q 1131 375 1131 524 q 1131 353 1131 364 q 1128 331 1131 343 l 650 331 q 668 208 649 264 q 721 110 688 151 q 801 45 754 68 q 900 22 847 22 q 1001 39 957 22 q 1083 83 1046 56 l 1103 47 q 1019 3 1065 24 q 897 -17 972 -17 q 735 39 806 -17 q 628 189 664 94 q 522 35 590 86 q 364 -17 454 -17 q 254 7 307 -17 q 162 75 201 31 q 99 184 122 119 q 75 331 75 249 m 1089 367 q 1032 574 1089 506 q 881 642 975 642 q 797 622 836 642 q 727 565 758 601 q 676 477 696 528 q 650 367 656 426 l 1089 367 z "},"ơ":{"ha":739,"x_min":75,"x_max":664,"o":"m 369 22 q 468 44 422 22 q 547 108 514 67 q 600 205 581 149 q 619 331 619 261 q 600 456 619 399 q 547 555 581 514 q 468 619 514 596 q 369 642 422 642 q 271 619 317 642 q 192 555 225 596 q 139 456 158 514 q 119 331 119 399 q 139 205 119 261 q 192 108 158 149 q 271 44 225 67 q 369 22 317 22 m 639 822 q 664 750 664 785 q 653 699 664 721 q 625 663 643 678 q 585 638 607 647 q 540 622 563 628 q 631 504 597 578 q 664 331 664 431 q 640 184 664 249 q 576 75 617 119 q 483 7 536 31 q 369 -17 429 -17 q 256 7 310 -17 q 163 75 203 31 q 99 184 122 119 q 75 331 75 249 q 99 479 75 414 q 163 589 122 544 q 256 657 203 633 q 369 681 310 681 q 497 650 436 681 q 622 747 622 668 q 603 800 622 772 l 639 822 z "},"ớ":{"ha":739,"x_min":75,"x_max":664,"o":"m 369 22 q 468 44 422 22 q 547 108 514 67 q 600 205 581 149 q 619 331 619 261 q 600 456 619 399 q 547 555 581 514 q 468 619 514 596 q 369 642 422 642 q 271 619 317 642 q 192 555 225 596 q 139 456 158 514 q 119 331 119 399 q 139 205 119 261 q 192 108 158 149 q 271 44 225 67 q 369 22 317 22 m 639 822 q 664 750 664 785 q 653 699 664 721 q 625 663 643 678 q 585 638 607 647 q 540 622 563 628 q 631 504 597 578 q 664 331 664 431 q 640 184 664 249 q 576 75 617 119 q 483 7 536 31 q 369 -17 429 -17 q 256 7 310 -17 q 163 75 203 31 q 99 184 122 119 q 75 331 75 249 q 99 479 75 414 q 163 589 122 544 q 256 657 203 633 q 369 681 310 681 q 497 650 436 681 q 622 747 622 668 q 603 800 622 772 l 639 822 m 336 794 l 297 794 l 425 981 l 481 981 l 336 794 z "},"ờ":{"ha":739,"x_min":75,"x_max":664,"o":"m 369 22 q 468 44 422 22 q 547 108 514 67 q 600 205 581 149 q 619 331 619 261 q 600 456 619 399 q 547 555 581 514 q 468 619 514 596 q 369 642 422 642 q 271 619 317 642 q 192 555 225 596 q 139 456 158 514 q 119 331 119 399 q 139 205 119 261 q 192 108 158 149 q 271 44 225 67 q 369 22 317 22 m 639 822 q 664 750 664 785 q 653 699 664 721 q 625 663 643 678 q 585 638 607 647 q 540 622 563 628 q 631 504 597 578 q 664 331 664 431 q 640 184 664 249 q 576 75 617 119 q 483 7 536 31 q 369 -17 429 -17 q 256 7 310 -17 q 163 75 203 31 q 99 184 122 119 q 75 331 75 249 q 99 479 75 414 q 163 589 122 544 q 256 657 203 633 q 369 681 310 681 q 497 650 436 681 q 622 747 622 668 q 603 800 622 772 l 639 822 m 258 981 l 314 981 l 442 794 l 403 794 l 258 981 z "},"ở":{"ha":739,"x_min":75,"x_max":664,"o":"m 369 22 q 468 44 422 22 q 547 108 514 67 q 600 205 581 149 q 619 331 619 261 q 600 456 619 399 q 547 555 581 514 q 468 619 514 596 q 369 642 422 642 q 271 619 317 642 q 192 555 225 596 q 139 456 158 514 q 119 331 119 399 q 139 205 119 261 q 192 108 158 149 q 271 44 225 67 q 369 22 317 22 m 639 822 q 664 750 664 785 q 653 699 664 721 q 625 663 643 678 q 585 638 607 647 q 540 622 563 628 q 631 504 597 578 q 664 331 664 431 q 640 184 664 249 q 576 75 617 119 q 483 7 536 31 q 369 -17 429 -17 q 256 7 310 -17 q 163 75 203 31 q 99 184 122 119 q 75 331 75 249 q 99 479 75 414 q 163 589 122 544 q 256 657 203 633 q 369 681 310 681 q 497 650 436 681 q 622 747 622 668 q 603 800 622 772 l 639 822 m 328 794 q 394 825 368 807 q 419 875 419 843 q 388 925 419 908 q 300 944 357 942 l 303 981 q 362 974 333 979 q 413 956 390 968 q 448 925 435 943 q 461 881 461 907 q 451 835 461 854 q 423 803 440 817 q 383 781 406 790 q 339 764 361 771 l 328 794 z "}}}
